<svg version="1.1" xmlns="http://www.w3.org/2000/svg" xmlns:xlink="http://www.w3.org/1999/xlink">


<svg id="search"  viewBox="0 0 24 24" fill="none" xmlns="http://www.w3.org/2000/svg">
  <path d="M22.8712 22.2492L17.08 16.4581C18.7031 14.6726 19.5635 12.3231 19.4774 9.91174C19.3913 7.50033 18.3654 5.21825 16.6191 3.55313C14.8727 1.88801 12.5444 0.971938 10.1317 1.00066C7.71888 1.02937 5.41302 2.00061 3.70681 3.70681C2.00061 5.41302 1.02937 7.71888 1.00066 10.1317C0.971938 12.5444 1.88801 14.8727 3.55313 16.6191C5.21825 18.3654 7.50033 19.3913 9.91174 19.4774C12.3231 19.5635 14.6726 18.7031 16.4581 17.08L22.2492 22.8712C22.3317 22.9537 22.4436 23 22.5602 23C22.6768 23 22.7887 22.9537 22.8712 22.8712C22.9537 22.7887 23 22.6768 23 22.5602C23 22.4436 22.9537 22.3317 22.8712 22.2492ZM1.90112 10.2527C1.90112 8.60088 2.39093 6.9862 3.30861 5.6128C4.22629 4.23939 5.53062 3.16895 7.05667 2.53684C8.58271 1.90474 10.2619 1.73935 11.882 2.06159C13.502 2.38384 14.9901 3.17925 16.1581 4.34723C17.3261 5.51522 18.1215 7.00332 18.4437 8.62336C18.766 10.2434 18.6006 11.9226 17.9685 13.4487C17.3364 14.9747 16.2659 16.279 14.8925 17.1967C13.5191 18.1144 11.9044 18.6042 10.2527 18.6042C8.03841 18.6019 5.91552 17.7212 4.3498 16.1555C2.78409 14.5898 1.90345 12.4669 1.90112 10.2527Z" fill="currentColor" stroke="currentColor" stroke-width="0.5"/>
</svg>

<svg id="cart"  viewBox="0 0 24 26" fill="none" xmlns="http://www.w3.org/2000/svg">
  <path d="M8.28502 23.1189C7.96943 23.1189 7.71359 22.8524 7.71359 22.5237C7.71359 22.195 7.96943 21.9285 8.28502 21.9285C8.60061 21.9285 8.85645 22.195 8.85645 22.5237C8.85645 22.8524 8.60061 23.1189 8.28502 23.1189Z" stroke="currentColor" stroke-width="1.5" stroke-linecap="round" stroke-linejoin="round"/>
  <path d="M21.1427 23.1189C21.4583 23.1189 21.7141 22.8524 21.7141 22.5237C21.7141 22.195 21.4583 21.9285 21.1427 21.9285C20.8271 21.9285 20.5713 22.195 20.5713 22.5237C20.5713 22.8524 20.8271 23.1189 21.1427 23.1189Z" stroke="currentColor" stroke-width="1.5" stroke-linecap="round" stroke-linejoin="round"/>
  <path d="M1.14258 2.28564H4.72022L7.40345 18.9523H21.714" stroke="currentColor" stroke-width="1.5" stroke-linecap="round" stroke-linejoin="round"/>
  <path d="M7.4376 15.381H20.8741C20.9738 15.3811 21.0704 15.343 21.1475 15.2732C21.2246 15.2034 21.2774 15.1062 21.297 14.9982L22.8483 6.42682C22.8609 6.3577 22.8593 6.28638 22.8439 6.21799C22.8284 6.14961 22.7994 6.08586 22.759 6.03137C22.7185 5.97687 22.6676 5.93297 22.6099 5.90285C22.5523 5.87273 22.4893 5.85713 22.4255 5.85718H5.71387" stroke="currentColor" stroke-width="1.5" stroke-linecap="round" stroke-linejoin="round"/>
</svg>

<svg id="heart" viewBox="0 0 24 26" fill="none" xmlns="http://www.w3.org/2000/svg">
  <g clip-path="url(#clip0_21_189)">
    <path d="M17.3571 1.09521C15.1446 1.09521 13.2075 2.19666 12 4.05846C10.7925 2.19666 8.85536 1.09521 6.64286 1.09521C4.88167 1.09751 3.19319 1.90848 1.94784 3.35019C0.702493 4.79191 0.00198508 6.74663 0 8.78552C0 17.4681 11.1204 24.4961 11.5939 24.7863C11.7187 24.864 11.8583 24.9047 12 24.9047C12.1417 24.9047 12.2813 24.864 12.4061 24.7863C12.8796 24.4961 24 17.4681 24 8.78552C23.998 6.74663 23.2975 4.79191 22.0522 3.35019C20.8068 1.90848 19.1183 1.09751 17.3571 1.09521ZM12 22.7769C10.0436 21.4572 1.71429 15.4451 1.71429 8.78552C1.71599 7.27288 2.23579 5.82275 3.15971 4.75315C4.08363 3.68355 5.33624 3.08178 6.64286 3.07981C8.72679 3.07981 10.4764 4.36483 11.2071 6.42881C11.2717 6.61081 11.3816 6.76648 11.5228 6.87603C11.6639 6.98558 11.83 7.04407 12 7.04407C12.17 7.04407 12.3361 6.98558 12.4773 6.87603C12.6184 6.76648 12.7283 6.61081 12.7929 6.42881C13.5236 4.36111 15.2732 3.07981 17.3571 3.07981C18.6638 3.08178 19.9164 3.68355 20.8403 4.75315C21.7642 5.82275 22.284 7.27288 22.2857 8.78552C22.2857 15.4352 13.9543 21.4559 12 22.7769Z" fill="currentColor" stroke="currentColor" stroke-width="0"/>
  </g>
  <defs>
    <clipPath id="clip0_21_189">
      <rect width="24" height="25" fill="currentColor" transform="translate(0 0.5)"/>
    </clipPath>
  </defs>
</svg>

<svg id="person" width="24" height="24" viewBox="0 0 24 24" fill="none" xmlns="http://www.w3.org/2000/svg">
  <path d="M7.28565 8.57781C7.28582 7.76516 7.49606 6.96636 7.89595 6.25892C8.29585 5.55148 8.87183 4.95942 9.568 4.5402C10.2642 4.12099 11.0569 3.88885 11.8692 3.86632C12.6815 3.84378 13.4859 4.03162 14.2042 4.41159C14.9226 4.79157 15.5305 5.35078 15.969 6.03497C16.4075 6.71915 16.6617 7.50507 16.7069 8.31646C16.7521 9.12784 16.5869 9.93714 16.2271 10.6658C15.8673 11.3945 15.3253 12.0178 14.6537 12.4752C16.1001 13.0057 17.3547 13.957 18.2559 15.2065C19.1572 16.4561 19.6639 17.9467 19.7108 19.4867C19.7088 19.6527 19.6427 19.8115 19.5264 19.93C19.41 20.0485 19.2524 20.1174 19.0864 20.1224C18.9205 20.1273 18.759 20.068 18.6357 19.9567C18.5125 19.8454 18.437 19.6908 18.4251 19.5252C18.374 17.8551 17.6747 16.2704 16.4752 15.107C15.2758 13.9437 13.6705 13.293 11.9995 13.293C10.3285 13.293 8.72325 13.9437 7.52379 15.107C6.32433 16.2704 5.62498 17.8551 5.57394 19.5252C5.56536 19.6931 5.49138 19.8509 5.36785 19.9649C5.24432 20.0789 5.08106 20.1399 4.91306 20.135C4.74505 20.1301 4.58566 20.0595 4.46903 19.9385C4.3524 19.8175 4.2878 19.6556 4.28908 19.4875C4.33584 17.9474 4.84246 16.4566 5.74373 15.2069C6.64499 13.9572 7.89966 13.0058 9.34622 12.4752C8.71094 12.0429 8.19105 11.4618 7.83189 10.7824C7.47272 10.1031 7.2852 9.34623 7.28565 8.57781ZM11.9999 5.14923C11.0906 5.14923 10.2186 5.51046 9.57557 6.15344C8.93259 6.79642 8.57137 7.66849 8.57137 8.57781C8.57137 9.48712 8.93259 10.3592 9.57557 11.0022C10.2186 11.6452 11.0906 12.0064 11.9999 12.0064C12.9093 12.0064 13.7813 11.6452 14.4243 11.0022C15.0673 10.3592 15.4285 9.48712 15.4285 8.57781C15.4285 7.66849 15.0673 6.79642 14.4243 6.15344C13.7813 5.51046 12.9093 5.14923 11.9999 5.14923Z" fill="currentColor" stroke="currentColor" stroke-width="0.171429"/>
  <rect x="0.642857" y="0.642857" width="22.7143" height="22.7143" rx="11.3571" stroke="currentColor" stroke-width="1.28571"/>
</svg>

<svg id="arr-l" viewBox="0 0 32 32" fill="none" xmlns="http://www.w3.org/2000/svg">
  <g clip-path="url(#clip0_39_541)">
    <path d="M22.1459 24.854C22.0994 24.8076 22.0625 24.7524 22.0373 24.6917C22.0122 24.6311 21.9992 24.566 21.9992 24.5003C21.9992 24.4346 22.0122 24.3695 22.0373 24.3088C22.0625 24.2481 22.0994 24.193 22.1459 24.1465L30.2921 16.0003H9.49961C9.367 16.0003 9.23982 15.9476 9.14605 15.8538C9.05228 15.7601 8.99961 15.6329 8.99961 15.5003C8.99961 15.3677 9.05228 15.2405 9.14605 15.1467C9.23982 15.053 9.367 15.0003 9.49961 15.0003L30.2921 15.0003L22.1459 6.85403C22.0994 6.80757 22.0626 6.75242 22.0374 6.69173C22.0123 6.63103 21.9993 6.56598 21.9993 6.50028C21.9993 6.43458 22.0123 6.36953 22.0374 6.30883C22.0626 6.24813 22.0994 6.19298 22.1459 6.14653C22.1923 6.10007 22.2475 6.06322 22.3082 6.03808C22.3689 6.01294 22.4339 6 22.4996 6C22.5653 6 22.6304 6.01294 22.6911 6.03808C22.7518 6.06322 22.8069 6.10007 22.8534 6.14653L31.8534 15.1465C31.8998 15.193 31.9367 15.2481 31.9619 15.3088C31.987 15.3695 32 15.4346 32 15.5003C32 15.566 31.987 15.6311 31.9619 15.6917C31.9367 15.7524 31.8998 15.8076 31.8534 15.854L22.8534 24.854C22.8069 24.9005 22.7518 24.9374 22.6911 24.9626C22.6304 24.9877 22.5653 25.0007 22.4996 25.0007C22.4339 25.0007 22.3688 24.9877 22.3081 24.9626C22.2474 24.9374 22.1923 24.9005 22.1459 24.854Z" fill="currentColor"/>
  </g>
  <defs>
    <clipPath id="clip0_39_541">
      <rect width="32" height="32" fill="currentColor" transform="matrix(0 1 -1 0 32 0)"/>
    </clipPath>
  </defs>
</svg>



<svg id="tel-w"  viewBox="0 0 24 24" fill="none" xmlns="http://www.w3.org/2000/svg">
    <path fill-rule="evenodd" clip-rule="evenodd" d="M3.28669 9.6422C5.67436 14.8401 9.9167 18.9593 15.1827 21.1929L15.1987 21.1995L16.2174 21.6529C16.8466 21.9335 17.5532 21.9889 18.2184 21.81C18.8837 21.631 19.4671 21.2286 19.8707 20.6702L21.5694 18.3195C21.6193 18.2503 21.6408 18.1646 21.6294 18.08C21.6179 17.9954 21.5745 17.9184 21.508 17.8649L18.5427 15.4715C18.5077 15.4433 18.4674 15.4224 18.4241 15.4102C18.3808 15.398 18.3355 15.3946 18.2909 15.4004C18.2463 15.4061 18.2034 15.4208 18.1646 15.4436C18.1258 15.4663 18.0921 15.4967 18.0654 15.5329L16.9107 17.0902C16.7747 17.2739 16.5798 17.4055 16.3585 17.463C16.1372 17.5205 15.903 17.5005 15.6947 17.4062C11.7494 15.6189 8.58861 12.4581 6.80135 8.51286C6.7071 8.30459 6.68705 8.0703 6.74454 7.84904C6.80204 7.62778 6.93362 7.4329 7.11735 7.29686L8.67335 6.14086C8.70951 6.11414 8.73989 6.08038 8.76266 6.04161C8.78543 6.00284 8.80012 5.95987 8.80585 5.91528C8.81158 5.87069 8.80823 5.8254 8.796 5.78213C8.78377 5.73887 8.76291 5.69852 8.73469 5.66353L6.34269 2.6982C6.28917 2.6317 6.21217 2.58828 6.12758 2.57686C6.04299 2.56545 5.95725 2.58693 5.88802 2.63686L3.52402 4.34353C2.96189 4.74901 2.55749 5.33662 2.37957 6.00651C2.20165 6.6764 2.26117 7.38723 2.54802 8.0182L3.28669 9.64086V9.6422ZM14.3934 23.0302C8.67216 20.6009 4.06349 16.1239 1.46935 10.4755L1.46669 10.4729L0.72802 8.8462C0.249913 7.79478 0.150565 6.61026 0.446854 5.49389C0.743143 4.37752 1.41679 3.39816 2.35335 2.7222L4.71735 1.01553C5.20153 0.66609 5.80124 0.515562 6.39304 0.594932C6.98484 0.674302 7.5237 0.97753 7.89869 1.4422L10.292 4.40886C10.4895 4.65363 10.6355 4.93579 10.7212 5.23841C10.8069 5.54102 10.8305 5.85784 10.7907 6.16981C10.7508 6.48179 10.6483 6.78249 10.4893 7.05385C10.3303 7.3252 10.118 7.56161 9.86535 7.74886L8.97202 8.4102C10.4824 11.3386 12.8676 13.7238 15.796 15.2342L16.4587 14.3409C16.6459 14.0884 16.8823 13.8763 17.1535 13.7174C17.4248 13.5585 17.7253 13.4561 18.0371 13.4162C18.3489 13.3764 18.6656 13.4 18.9681 13.4855C19.2706 13.5711 19.5526 13.7169 19.7974 13.9142L22.764 16.3075C23.2291 16.6826 23.5325 17.2217 23.6119 17.8138C23.6913 18.4059 23.5405 19.0059 23.1907 19.4902L21.492 21.8422C20.8196 22.7728 19.8475 23.4436 18.7388 23.742C17.6302 24.0404 16.4527 23.9482 15.404 23.4809L14.3934 23.0302Z" fill="currentColor"/>
</svg>

<svg id="mail-w" viewBox="0 0 24 24" fill="none" xmlns="http://www.w3.org/2000/svg">
  <mask id="path-1-inside-1_39_641" fill="white">
    <path d="M18.6004 4.8C19.396 4.8 20.1591 5.11607 20.7217 5.67868C21.2843 6.24129 21.6004 7.00435 21.6004 7.8V17.4C21.6004 18.1956 21.2843 18.9587 20.7217 19.5213C20.1591 20.0839 19.396 20.4 18.6004 20.4H5.40039C4.60474 20.4 3.84168 20.0839 3.27907 19.5213C2.71646 18.9587 2.40039 18.1956 2.40039 17.4V7.8C2.40039 7.00435 2.71646 6.24129 3.27907 5.67868C3.84168 5.11607 4.60474 4.8 5.40039 4.8H18.6004ZM20.4004 9.5532L12.3052 14.3172C12.2287 14.3621 12.1431 14.3895 12.0547 14.3974C11.9663 14.4053 11.8773 14.3935 11.794 14.3628L11.6956 14.3172L3.60039 9.5556V17.4C3.60039 17.8774 3.79003 18.3352 4.1276 18.6728C4.46516 19.0104 4.923 19.2 5.40039 19.2H18.6004C19.0778 19.2 19.5356 19.0104 19.8732 18.6728C20.2107 18.3352 20.4004 17.8774 20.4004 17.4V9.5532ZM18.6004 6H5.40039C4.923 6 4.46516 6.18964 4.1276 6.52721C3.79003 6.86477 3.60039 7.32261 3.60039 7.8V8.1624L12.0004 13.104L20.4004 8.16V7.8C20.4004 7.32261 20.2107 6.86477 19.8732 6.52721C19.5356 6.18964 19.0778 6 18.6004 6Z"/>
  </mask>
  <path d="M18.6004 4.8C19.396 4.8 20.1591 5.11607 20.7217 5.67868C21.2843 6.24129 21.6004 7.00435 21.6004 7.8V17.4C21.6004 18.1956 21.2843 18.9587 20.7217 19.5213C20.1591 20.0839 19.396 20.4 18.6004 20.4H5.40039C4.60474 20.4 3.84168 20.0839 3.27907 19.5213C2.71646 18.9587 2.40039 18.1956 2.40039 17.4V7.8C2.40039 7.00435 2.71646 6.24129 3.27907 5.67868C3.84168 5.11607 4.60474 4.8 5.40039 4.8H18.6004ZM20.4004 9.5532L12.3052 14.3172C12.2287 14.3621 12.1431 14.3895 12.0547 14.3974C11.9663 14.4053 11.8773 14.3935 11.794 14.3628L11.6956 14.3172L3.60039 9.5556V17.4C3.60039 17.8774 3.79003 18.3352 4.1276 18.6728C4.46516 19.0104 4.923 19.2 5.40039 19.2H18.6004C19.0778 19.2 19.5356 19.0104 19.8732 18.6728C20.2107 18.3352 20.4004 17.8774 20.4004 17.4V9.5532ZM18.6004 6H5.40039C4.923 6 4.46516 6.18964 4.1276 6.52721C3.79003 6.86477 3.60039 7.32261 3.60039 7.8V8.1624L12.0004 13.104L20.4004 8.16V7.8C20.4004 7.32261 20.2107 6.86477 19.8732 6.52721C19.5356 6.18964 19.0778 6 18.6004 6Z" fill="white"/>
  <path d="M18.6004 4.8V3.1V4.8ZM20.4004 9.5532H22.1004V6.58022L19.5382 8.08808L20.4004 9.5532ZM12.3052 14.3172L13.1659 15.7832L13.1674 15.7823L12.3052 14.3172ZM11.794 14.3628L11.0792 15.9052L11.1417 15.9342L11.2063 15.958L11.794 14.3628ZM11.6956 14.3172L10.8337 15.7825L10.9054 15.8247L10.9808 15.8596L11.6956 14.3172ZM3.60039 9.5556L4.46229 8.09029L1.90039 6.58338V9.5556H3.60039ZM5.40039 19.2V20.9V19.2ZM18.6004 19.2V20.9V19.2ZM3.60039 8.1624H1.90039V9.13467L2.7384 9.62766L3.60039 8.1624ZM12.0004 13.104L11.1384 14.5693L12.0006 15.0765L12.8627 14.5691L12.0004 13.104ZM20.4004 8.16L21.2627 9.62507L22.1004 9.13203V8.16H20.4004ZM20.4004 7.8H22.1004H20.4004ZM18.6004 6.5C18.9452 6.5 19.2758 6.63696 19.5196 6.88076L21.9238 4.4766C21.0424 3.59518 19.8469 3.1 18.6004 3.1V6.5ZM19.5196 6.88076C19.7634 7.12456 19.9004 7.45522 19.9004 7.8H23.3004C23.3004 6.55348 22.8052 5.35802 21.9238 4.4766L19.5196 6.88076ZM19.9004 7.8V17.4H23.3004V7.8H19.9004ZM19.9004 17.4C19.9004 17.7448 19.7634 18.0754 19.5196 18.3192L21.9238 20.7234C22.8052 19.842 23.3004 18.6465 23.3004 17.4H19.9004ZM19.5196 18.3192C19.2758 18.563 18.9452 18.7 18.6004 18.7V22.1C19.8469 22.1 21.0424 21.6048 21.9238 20.7234L19.5196 18.3192ZM18.6004 18.7H5.40039V22.1H18.6004V18.7ZM5.40039 18.7C5.05561 18.7 4.72495 18.563 4.48115 18.3192L2.07699 20.7234C2.95841 21.6048 4.15387 22.1 5.40039 22.1V18.7ZM4.48115 18.3192C4.23735 18.0754 4.10039 17.7448 4.10039 17.4H0.700391C0.700391 18.6465 1.19557 19.842 2.07699 20.7234L4.48115 18.3192ZM4.10039 17.4V7.8H0.700391V17.4H4.10039ZM4.10039 7.8C4.10039 7.45522 4.23735 7.12456 4.48115 6.88076L2.07699 4.4766C1.19557 5.35802 0.700391 6.55348 0.700391 7.8H4.10039ZM4.48115 6.88076C4.72495 6.63696 5.05561 6.5 5.40039 6.5V3.1C4.15387 3.1 2.95841 3.59518 2.07699 4.4766L4.48115 6.88076ZM5.40039 6.5H18.6004V3.1H5.40039V6.5ZM19.5382 8.08808L11.443 12.8521L13.1674 15.7823L21.2626 11.0183L19.5382 8.08808ZM11.4445 12.8512C11.5848 12.7688 11.7416 12.7186 11.9037 12.7041L12.2058 16.0907C12.5446 16.0605 12.8725 15.9554 13.1659 15.7832L11.4445 12.8512ZM11.9037 12.7041C12.0657 12.6897 12.229 12.7114 12.3817 12.7676L11.2063 15.958C11.5255 16.0756 11.8669 16.1209 12.2058 16.0907L11.9037 12.7041ZM12.5088 12.8204L12.4104 12.7748L10.9808 15.8596L11.0792 15.9052L12.5088 12.8204ZM12.5575 12.8519L4.46229 8.09029L2.73849 11.0209L10.8337 15.7825L12.5575 12.8519ZM1.90039 9.5556V17.4H5.30039V9.5556H1.90039ZM1.90039 17.4C1.90039 18.3283 2.26914 19.2185 2.92552 19.8749L5.32968 17.4707C5.31093 17.452 5.30039 17.4265 5.30039 17.4H1.90039ZM2.92552 19.8749C3.58189 20.5313 4.47213 20.9 5.40039 20.9V17.5C5.37387 17.5 5.34843 17.4895 5.32968 17.4707L2.92552 19.8749ZM5.40039 20.9H18.6004V17.5H5.40039V20.9ZM18.6004 20.9C19.5287 20.9 20.4189 20.5313 21.0753 19.8749L18.6711 17.4707C18.6523 17.4895 18.6269 17.5 18.6004 17.5V20.9ZM21.0753 19.8749C21.7316 19.2185 22.1004 18.3283 22.1004 17.4H18.7004C18.7004 17.4265 18.6899 17.452 18.6711 17.4707L21.0753 19.8749ZM22.1004 17.4V9.5532H18.7004V17.4H22.1004ZM18.6004 4.3H5.40039V7.7H18.6004V4.3ZM5.40039 4.3C4.47213 4.3 3.58189 4.66875 2.92552 5.32513L5.32968 7.72929C5.34843 7.71054 5.37387 7.7 5.40039 7.7V4.3ZM2.92552 5.32513C2.26914 5.9815 1.90039 6.87174 1.90039 7.8H5.30039C5.30039 7.77348 5.31093 7.74804 5.32968 7.72929L2.92552 5.32513ZM1.90039 7.8V8.1624H5.30039V7.8H1.90039ZM2.7384 9.62766L11.1384 14.5693L12.8624 11.6387L4.46238 6.69714L2.7384 9.62766ZM12.8627 14.5691L21.2627 9.62507L19.5381 6.69493L11.1381 11.6389L12.8627 14.5691ZM22.1004 8.16V7.8H18.7004V8.16H22.1004ZM22.1004 7.8C22.1004 6.87174 21.7316 5.9815 21.0753 5.32513L18.6711 7.72929C18.6899 7.74804 18.7004 7.77348 18.7004 7.8H22.1004ZM21.0753 5.32513C20.4189 4.66875 19.5287 4.3 18.6004 4.3V7.7C18.6269 7.7 18.6523 7.71053 18.6711 7.72929L21.0753 5.32513Z" fill="white" mask="url(#path-1-inside-1_39_641)"/>
</svg>

<svg id="mapdot-w" viewBox="0 0 24 24" fill="none" xmlns="http://www.w3.org/2000/svg">
  <path d="M12.3571 3C14.5736 3 16.6993 3.88048 18.2665 5.44775C19.8338 7.01502 20.7143 9.14069 20.7143 11.3571C20.7143 14.8886 18.2329 18.7371 13.3343 22.944C13.0619 23.178 12.7146 23.3065 12.3555 23.3062C11.9965 23.3059 11.6494 23.1768 11.3774 22.9423L11.0534 22.6611C6.37171 18.564 4 14.8097 4 11.3571C4 9.14069 4.88048 7.01502 6.44775 5.44775C8.01502 3.88048 10.1407 3 12.3571 3ZM12.3571 4.28571C10.4817 4.28571 8.68304 5.03074 7.35689 6.35689C6.03074 7.68304 5.28571 9.48168 5.28571 11.3571C5.28571 14.3589 7.46971 17.8174 11.8977 21.6917L12.2174 21.9686C12.2563 22.002 12.3059 22.0204 12.3571 22.0204C12.4084 22.0204 12.458 22.002 12.4969 21.9686C17.1391 17.9811 19.4286 14.43 19.4286 11.3571C19.4286 10.4285 19.2457 9.50897 18.8903 8.65102C18.5349 7.79308 18.014 7.01353 17.3574 6.35689C16.7008 5.70024 15.9212 5.17937 15.0633 4.82399C14.2053 4.46862 13.2858 4.28571 12.3571 4.28571ZM12.3571 8.14286C13.2096 8.14286 14.0272 8.4815 14.63 9.0843C15.2328 9.6871 15.5714 10.5047 15.5714 11.3571C15.5714 12.2096 15.2328 13.0272 14.63 13.63C14.0272 14.2328 13.2096 14.5714 12.3571 14.5714C11.5047 14.5714 10.6871 14.2328 10.0843 13.63C9.4815 13.0272 9.14286 12.2096 9.14286 11.3571C9.14286 10.5047 9.4815 9.6871 10.0843 9.0843C10.6871 8.4815 11.5047 8.14286 12.3571 8.14286ZM12.3571 9.42857C11.8457 9.42857 11.3551 9.63176 10.9934 9.99344C10.6318 10.3551 10.4286 10.8457 10.4286 11.3571C10.4286 11.8686 10.6318 12.3592 10.9934 12.7208C11.3551 13.0825 11.8457 13.2857 12.3571 13.2857C12.8686 13.2857 13.3592 13.0825 13.7208 12.7208C14.0825 12.3592 14.2857 11.8686 14.2857 11.3571C14.2857 10.8457 14.0825 10.3551 13.7208 9.99344C13.3592 9.63176 12.8686 9.42857 12.3571 9.42857Z" fill="white"/>
</svg>


<svg id="tg" viewBox="0 0 28 28" fill="none" xmlns="http://www.w3.org/2000/svg">
  <path d="M13.9928 2.33333C11.6854 2.33333 9.42976 3.01757 7.51119 4.29952C5.59262 5.58147 4.09727 7.40355 3.21425 9.53535C2.33123 11.6672 2.10019 14.0129 2.55035 16.276C3.00051 18.5392 4.11165 20.618 5.74326 22.2496C7.37488 23.8812 9.45368 24.9923 11.7168 25.4425C13.9799 25.8927 16.3257 25.6616 18.4575 24.7786C20.5893 23.8956 22.4114 22.4002 23.6933 20.4816C24.9753 18.5631 25.6595 16.3074 25.6595 14C25.6595 12.4679 25.3577 10.9508 24.7714 9.53535C24.1851 8.11989 23.3258 6.83377 22.2424 5.75042C21.1591 4.66707 19.8729 3.80771 18.4575 3.2214C17.042 2.6351 15.5249 2.33333 13.9928 2.33333ZM17.7028 20.0107C17.6593 20.1197 17.5929 20.2181 17.5082 20.2993C17.4235 20.3805 17.3224 20.4427 17.2116 20.4816C17.1009 20.5205 16.9831 20.5352 16.8662 20.5248C16.7493 20.5144 16.636 20.4791 16.5338 20.4213L13.3663 17.9597L11.334 19.8357C11.2868 19.8705 11.2317 19.8929 11.1736 19.9009C11.1155 19.9088 11.0563 19.902 11.0015 19.8812L11.3912 16.394L11.4028 16.4045L11.411 16.3357C11.411 16.3357 17.1102 11.1463 17.3423 10.9258C17.578 10.7053 17.4998 10.6575 17.4998 10.6575C17.5138 10.3892 17.0787 10.6575 17.0787 10.6575L9.52684 15.5155L6.38268 14.4445C6.38268 14.4445 5.89968 14.2718 5.85418 13.8903C5.80634 13.5123 6.39784 13.307 6.39784 13.307L18.901 8.33933C18.901 8.33933 19.9288 7.88199 19.9288 8.64033L17.7028 20.0107Z" fill="currentColor"/>
</svg>

<svg id="vk" viewBox="0 0 29 28" fill="none" xmlns="http://www.w3.org/2000/svg">
  <path d="M18.3348 2.33333H11.1762C4.63817 2.33333 3.08301 3.8885 3.08301 10.4148V17.5735C3.08301 24.1103 4.62651 25.6667 11.1645 25.6667H18.3232C24.86 25.6667 26.4163 24.1232 26.4163 17.5852V10.4265C26.4163 3.8885 24.8728 2.33333 18.3348 2.33333ZM21.92 18.9817H20.2178C19.5738 18.9817 19.3802 18.4602 18.2252 17.3052C17.2172 16.3333 16.7913 16.212 16.5358 16.212C16.1835 16.212 16.0867 16.3088 16.0867 16.7953V18.326C16.0867 18.7402 15.9525 18.9828 14.871 18.9828C13.8214 18.9123 12.8036 18.5934 11.9014 18.0524C10.9992 17.5115 10.2384 16.7639 9.68167 15.8713C8.36004 14.2263 7.44044 12.2956 6.99601 10.2328C6.99601 9.97733 7.09284 9.74633 7.57934 9.74633H9.28034C9.71784 9.74633 9.87534 9.94116 10.0468 10.3903C10.8728 12.8217 12.2822 14.9357 12.8538 14.9357C13.0732 14.9357 13.1688 14.8388 13.1688 14.2917V11.788C13.0965 10.6458 12.4898 10.549 12.4898 10.136C12.4976 10.0271 12.5476 9.92545 12.629 9.8527C12.7105 9.77996 12.8171 9.7418 12.9262 9.74633H15.6002C15.9653 9.74633 16.0867 9.92833 16.0867 10.3658V13.7445C16.0867 14.1097 16.2442 14.231 16.3538 14.231C16.5732 14.231 16.7423 14.1097 17.1437 13.7083C18.0057 12.6571 18.71 11.4859 19.2343 10.2317C19.2879 10.081 19.3894 9.95202 19.5231 9.86439C19.6569 9.77676 19.8156 9.73529 19.9752 9.74633H21.6773C22.1872 9.74633 22.2957 10.0018 22.1872 10.3658C21.5682 11.7523 20.8024 13.0685 19.9028 14.2917C19.7197 14.5717 19.6462 14.7175 19.9028 15.0453C20.072 15.3008 20.6682 15.799 21.0695 16.2727C21.6527 16.8544 22.137 17.5275 22.5033 18.2653C22.6492 18.739 22.4053 18.9817 21.92 18.9817Z" fill="currentColor"/>
</svg>

<svg id="yt" viewBox="0 0 33 32" fill="none" xmlns="http://www.w3.org/2000/svg">
  <path d="M13.8337 20L20.7537 16L13.8337 12V20ZM29.247 9.56C29.4203 10.1867 29.5403 11.0267 29.6203 12.0933C29.7137 13.16 29.7537 14.08 29.7537 14.88L29.8337 16C29.8337 18.92 29.6203 21.0667 29.247 22.44C28.9137 23.64 28.1403 24.4133 26.9403 24.7467C26.3137 24.92 25.167 25.04 23.407 25.12C21.6737 25.2133 20.087 25.2533 18.6203 25.2533L16.5003 25.3333C10.9137 25.3333 7.43366 25.12 6.06033 24.7467C4.86033 24.4133 4.08699 23.64 3.75366 22.44C3.58033 21.8133 3.46033 20.9733 3.38033 19.9067C3.28699 18.84 3.24699 17.92 3.24699 17.12L3.16699 16C3.16699 13.08 3.38033 10.9333 3.75366 9.56C4.08699 8.36001 4.86033 7.58667 6.06033 7.25334C6.68699 7.08001 7.83366 6.96 9.59366 6.88C11.327 6.78667 12.9137 6.74667 14.3803 6.74667L16.5003 6.66667C22.087 6.66667 25.567 6.88001 26.9403 7.25334C28.1403 7.58667 28.9137 8.36001 29.247 9.56Z" fill="currentColor"/>
</svg>

<svg id="dzen" viewBox="0 0 25 24" fill="none" xmlns="http://www.w3.org/2000/svg">
  <g clip-path="url(#clip0_39_684)">
    <path d="M14.5643 14.3143C12.6786 16.26 12.5414 18.6857 12.3786 24C17.3329 24 20.7529 23.9829 22.5186 22.2686C24.2329 20.5029 24.25 16.92 24.25 12.1286C18.9357 12.3 16.51 12.4286 14.5643 14.3143ZM0.25 12.1286C0.25 16.92 0.267143 20.5029 1.98143 22.2686C3.74714 23.9829 7.16714 24 12.1214 24C11.95 18.6857 11.8214 16.26 9.93571 14.3143C7.99 12.4286 5.56429 12.2914 0.25 12.1286ZM12.1214 0C7.17571 0 3.74714 0.0171428 1.98143 1.73143C0.267143 3.49714 0.25 7.08 0.25 11.8714C5.56429 11.7 7.99 11.5714 9.93571 9.68571C11.8214 7.74 11.9586 5.31429 12.1214 0ZM14.5643 9.68571C12.6786 7.74 12.5414 5.31429 12.3786 0C17.3329 0 20.7529 0.0171428 22.5186 1.73143C24.2329 3.49714 24.25 7.08 24.25 11.8714C18.9357 11.7 16.51 11.5714 14.5643 9.68571Z" fill="currentColor"/>
  </g>
  <defs>
    <clipPath id="clip0_39_684">
      <rect width="24" height="24" fill="currentColor" transform="translate(0.25)"/>
    </clipPath>
  </defs>
</svg>

<svg id="mailru" viewBox="0 0 24 24" fill="none" xmlns="http://www.w3.org/2000/svg">
  <g clip-path="url(#clip0_39_687)">
    <path d="M11.5863 5.26575C13.4185 5.26575 15.145 6.078 16.4103 7.34775V7.3515C16.4103 6.74175 16.8205 6.2805 17.3875 6.2805H17.5315C18.4263 6.2805 18.6055 7.12425 18.6055 7.3905L18.6093 16.8668C18.547 17.4878 19.2505 17.8088 19.6413 17.4098C21.16 15.8475 22.9803 9.3705 18.6955 5.6205C14.6995 2.12026 9.33628 2.6985 6.48478 4.6635C3.45403 6.7575 1.51678 11.3828 3.39853 15.7298C5.45353 20.469 11.3283 21.8828 14.8248 20.4728C16.5948 19.758 17.4108 22.1475 15.571 22.9298C12.7983 24.1125 5.07103 23.9918 1.46203 17.742C-0.976221 13.5203 -0.847221 6.09375 5.62228 2.24625C10.567 -0.698995 17.0913 0.117005 21.0243 4.22325C25.1343 8.52 24.8965 16.5593 20.884 19.6845C19.0668 21.1058 16.3683 19.7235 16.3878 17.6528L16.3675 16.9778C15.1023 18.231 13.4185 18.966 11.5863 18.966C7.96153 18.966 4.77028 15.774 4.77028 12.153C4.77028 8.493 7.96153 5.26725 11.5863 5.26725V5.26575ZM16.1455 11.8913C16.0083 9.2385 14.0395 7.641 11.6605 7.641H11.5705C8.82853 7.641 7.30528 9.801 7.30528 12.2498C7.30528 14.9955 9.14503 16.7295 11.5593 16.7295C14.254 16.7295 16.0233 14.7578 16.1523 12.4253L16.1455 11.8913Z" fill="currentColor"/>
  </g>
  <defs>
    <clipPath id="clip0_39_687">
      <rect width="24" height="24" fill="currentColor"/>
    </clipPath>
  </defs>
</svg>

<svg id="tg-m" viewBox="0 0 28 28" fill="none" xmlns="http://www.w3.org/2000/svg">
  <path d="M13.9928 2.33337C11.6854 2.33337 9.42976 3.01761 7.51119 4.29956C5.59262 5.58151 4.09727 7.4036 3.21425 9.5354C2.33123 11.6672 2.10019 14.013 2.55035 16.2761C3.00051 18.5392 4.11165 20.618 5.74326 22.2496C7.37488 23.8812 9.45368 24.9924 11.7168 25.4425C13.9799 25.8927 16.3257 25.6617 18.4575 24.7786C20.5893 23.8956 22.4114 22.4003 23.6933 20.4817C24.9753 18.5631 25.6595 16.3075 25.6595 14C25.6595 12.468 25.3577 10.9509 24.7714 9.5354C24.1851 8.11994 23.3258 6.83381 22.2424 5.75046C21.1591 4.66711 19.8729 3.80775 18.4575 3.22145C17.042 2.63514 15.5249 2.33337 13.9928 2.33337ZM17.7028 20.0107C17.6593 20.1197 17.5929 20.2181 17.5082 20.2993C17.4235 20.3806 17.3224 20.4427 17.2116 20.4816C17.1009 20.5205 16.9831 20.5353 16.8662 20.5249C16.7493 20.5145 16.636 20.4792 16.5338 20.4214L13.3663 17.9597L11.334 19.8357C11.2868 19.8705 11.2317 19.893 11.1736 19.9009C11.1155 19.9089 11.0563 19.9021 11.0015 19.8812L11.3912 16.394L11.4028 16.4045L11.411 16.3357C11.411 16.3357 17.1102 11.1464 17.3423 10.9259C17.578 10.7054 17.4998 10.6575 17.4998 10.6575C17.5138 10.3892 17.0787 10.6575 17.0787 10.6575L9.52684 15.5155L6.38268 14.4445C6.38268 14.4445 5.89968 14.2719 5.85418 13.8904C5.80634 13.5124 6.39784 13.307 6.39784 13.307L18.901 8.33937C18.901 8.33937 19.9288 7.88204 19.9288 8.64037L17.7028 20.0107Z" fill="currentColor"/>
</svg>

<svg id="vk-m" viewBox="0 0 28 28" fill="none" xmlns="http://www.w3.org/2000/svg">
  <path d="M17.5853 2.33337H10.4267C3.88866 2.33337 2.3335 3.88854 2.3335 10.4149V17.5735C2.3335 24.1104 3.877 25.6667 10.415 25.6667H17.5737C24.1105 25.6667 25.6668 24.1232 25.6668 17.5852V10.4265C25.6668 3.88854 24.1233 2.33337 17.5853 2.33337ZM21.1705 18.9817H19.4683C18.8243 18.9817 18.6307 18.4602 17.4757 17.3052C16.4677 16.3334 16.0418 16.212 15.7863 16.212C15.434 16.212 15.3372 16.3089 15.3372 16.7954V18.326C15.3372 18.7402 15.203 18.9829 14.1215 18.9829C13.0719 18.9123 12.0541 18.5935 11.1519 18.0525C10.2496 17.5115 9.48886 16.764 8.93216 15.8714C7.61053 14.2264 6.69093 12.2957 6.2465 10.2329C6.2465 9.97737 6.34333 9.74637 6.82983 9.74637H8.53083C8.96833 9.74637 9.12583 9.94121 9.29733 10.3904C10.1233 12.8217 11.5327 14.9357 12.1043 14.9357C12.3237 14.9357 12.4193 14.8389 12.4193 14.2917V11.788C12.347 10.6459 11.7403 10.549 11.7403 10.136C11.7481 10.0271 11.798 9.92549 11.8795 9.85275C11.961 9.78 12.0675 9.74185 12.1767 9.74637H14.8507C15.2158 9.74637 15.3372 9.92837 15.3372 10.3659V13.7445C15.3372 14.1097 15.4947 14.231 15.6043 14.231C15.8237 14.231 15.9928 14.1097 16.3942 13.7084C17.2562 12.6571 17.9605 11.486 18.4848 10.2317C18.5384 10.081 18.6398 9.95206 18.7736 9.86443C18.9074 9.7768 19.0661 9.73534 19.2257 9.74637H20.9278C21.4377 9.74637 21.5462 10.0019 21.4377 10.3659C20.8187 11.7524 20.0529 13.0685 19.1533 14.2917C18.9702 14.5717 18.8967 14.7175 19.1533 15.0454C19.3225 15.3009 19.9187 15.799 20.32 16.2727C20.9032 16.8545 21.3875 17.5275 21.7538 18.2654C21.8997 18.739 21.6558 18.9817 21.1705 18.9817Z" fill="currentColor"/>
</svg>

<svg id="yt-m" viewBox="0 0 32 32" fill="none" xmlns="http://www.w3.org/2000/svg">
  <path d="M13.5 20L21.285 15.5L13.5 11V20ZM30.84 8.255C31.035 8.96 31.17 9.905 31.26 11.105C31.365 12.305 31.41 13.34 31.41 14.24L31.5 15.5C31.5 18.785 31.26 21.2 30.84 22.745C30.465 24.095 29.595 24.965 28.245 25.34C27.54 25.535 26.25 25.67 24.27 25.76C22.32 25.865 20.535 25.91 18.885 25.91L16.5 26C10.215 26 6.3 25.76 4.755 25.34C3.405 24.965 2.535 24.095 2.16 22.745C1.965 22.04 1.83 21.095 1.74 19.895C1.635 18.695 1.59 17.66 1.59 16.76L1.5 15.5C1.5 12.215 1.74 9.8 2.16 8.255C2.535 6.905 3.405 6.035 4.755 5.66C5.46 5.465 6.75 5.33 8.73 5.24C10.68 5.135 12.465 5.09 14.115 5.09L16.5 5C22.785 5 26.7 5.24 28.245 5.66C29.595 6.035 30.465 6.905 30.84 8.255Z" fill="currentColor"/>
</svg>

<svg id="dzen-m" viewBox="0 0 24 24" fill="none" xmlns="http://www.w3.org/2000/svg">
  <g clip-path="url(#clip0_280_5421)">
    <path d="M14.3143 14.3143C12.4286 16.26 12.2914 18.6857 12.1286 24C17.0829 24 20.5029 23.9829 22.2686 22.2686C23.9829 20.5029 24 16.92 24 12.1286C18.6857 12.3 16.26 12.4286 14.3143 14.3143ZM0 12.1286C0 16.92 0.0171428 20.5029 1.73143 22.2686C3.49714 23.9829 6.91714 24 11.8714 24C11.7 18.6857 11.5714 16.26 9.68571 14.3143C7.74 12.4286 5.31429 12.2914 0 12.1286ZM11.8714 0C6.92571 0 3.49714 0.0171428 1.73143 1.73143C0.0171428 3.49714 0 7.08 0 11.8714C5.31429 11.7 7.74 11.5714 9.68571 9.68571C11.5714 7.74 11.7086 5.31429 11.8714 0ZM14.3143 9.68571C12.4286 7.74 12.2914 5.31429 12.1286 0C17.0829 0 20.5029 0.0171428 22.2686 1.73143C23.9829 3.49714 24 7.08 24 11.8714C18.6857 11.7 16.26 11.5714 14.3143 9.68571Z" fill="currentColor"/>
  </g>
  <defs>
    <clipPath id="clip0_280_5421">
      <rect width="24" height="24" fill="white"/>
    </clipPath>
  </defs>
</svg>

<svg id="mailru-m" viewBox="0 0 24 24" fill="none" xmlns="http://www.w3.org/2000/svg">
  <g clip-path="url(#clip0_280_5424)">
    <path d="M11.5858 5.26575C13.418 5.26575 15.1445 6.078 16.4098 7.34775V7.3515C16.4098 6.74175 16.82 6.2805 17.387 6.2805H17.531C18.4258 6.2805 18.605 7.12425 18.605 7.3905L18.6088 16.8668C18.5465 17.4878 19.25 17.8088 19.6408 17.4098C21.1595 15.8475 22.9798 9.3705 18.695 5.6205C14.699 2.12026 9.33579 2.6985 6.48429 4.6635C3.45354 6.7575 1.51629 11.3828 3.39804 15.7298C5.45304 20.469 11.3278 21.8828 14.8243 20.4728C16.5943 19.758 17.4103 22.1475 15.5705 22.9298C12.7978 24.1125 5.07054 23.9918 1.46154 17.742C-0.976709 13.5203 -0.84771 6.09375 5.62179 2.24625C10.5665 -0.698995 17.0908 0.117005 21.0238 4.22325C25.1338 8.52 24.896 16.5593 20.8835 19.6845C19.0663 21.1058 16.3678 19.7235 16.3873 17.6528L16.367 16.9778C15.1018 18.231 13.418 18.966 11.5858 18.966C7.96104 18.966 4.76979 15.774 4.76979 12.153C4.76979 8.493 7.96104 5.26725 11.5858 5.26725V5.26575ZM16.145 11.8913C16.0078 9.2385 14.039 7.641 11.66 7.641H11.57C8.82804 7.641 7.30479 9.801 7.30479 12.2498C7.30479 14.9955 9.14454 16.7295 11.5588 16.7295C14.2535 16.7295 16.0228 14.7578 16.1518 12.4253L16.145 11.8913Z" fill="currentColor"/>
  </g>
  <defs>
    <clipPath id="clip0_280_5424">
      <rect width="24" height="24" fill="white"/>
    </clipPath>
  </defs>
</svg>

<svg id="arr-thin" viewBox="0 0 30 30" fill="none" xmlns="http://www.w3.org/2000/svg">
  <path d="M27 15.5L22 20L21.5 19L24.4252 16.1537H14.2126H4V14.8464L24.4254 14.8464L21 12L22 11L27 15.5Z" fill="currentColor" fill-opacity="0.7"/>
  <path d="M27 15.5L22 20L21.5 19L24.4252 16.1537H14.2126H4V14.8464L24.4254 14.8464L21 12L22 11L27 15.5Z" stroke="transparent"/>
</svg>

<svg id="close-filter" viewBox="0 0 14 14" fill="none" xmlns="http://www.w3.org/2000/svg">
  <g clip-path="url(#clip0_90_1994)">
    <path d="M13 13L1 1M13 1L1 13" stroke="currentColor" stroke-linecap="round" stroke-linejoin="round"/>
  </g>
  <defs>
    <clipPath id="clip0_90_1994">
      <rect width="14" height="14" fill="white"/>
    </clipPath>
  </defs>
</svg>

<svg id="basket-close" viewBox="0 0 21 21" fill="none" xmlns="http://www.w3.org/2000/svg">
  <path d="M18 18L3 3M18 3L3 18" stroke="#0C0C0C" stroke-linecap="round" stroke-linejoin="round"/>
</svg>




<!-- Формы -->

<svg id="form1" viewBox="0 0 35 50" fill="none" xmlns="http://www.w3.org/2000/svg">
  <g clip-path="url(#clip0_90_1997)">
    <rect width="34.5" height="50" fill="white"/>
    <rect x="0.75" y="7.25" width="33" height="33" rx="5.25" stroke="currentColor" stroke-width="1.5"/>
    <rect x="4.75" y="11.25" width="25" height="25" rx="3.25" stroke="currentColor" stroke-width="1.5"/>
    <circle cx="17.498" cy="17" r="1.1875" stroke="currentColor" stroke-width="0.625"/>
  </g>
  <defs>
    <clipPath id="clip0_90_1997">
      <rect width="34.5" height="50" fill="white"/>
    </clipPath>
  </defs>
</svg>


<svg id="form2"  viewBox="0 0 51 50" fill="none" xmlns="http://www.w3.org/2000/svg">
  <g clip-path="url(#clip0_90_2001)">
  <rect width="50" height="50" transform="translate(0.5)" fill="white"/>
  <rect x="1.25195" y="7.25" width="48.5" height="33" rx="5.25" stroke="currentColor" stroke-width="1.5"/>
  <rect x="5.25" y="11.25" width="24" height="25" rx="3.25" stroke="currentColor" stroke-width="1.5"/>
  <circle cx="9.50195" cy="23.5" r="1.1875" stroke="currentColor" stroke-width="0.625"/>
  <rect x="33.502" y="15.5" width="13.5" height="1" fill="currentColor"/>
  <rect x="33.502" y="18.5" width="13.5" height="1" fill="currentColor"/>
  <rect x="33.502" y="21.5" width="13.5" height="1" fill="currentColor"/>
  <rect x="33.502" y="24.5" width="13.5" height="1" fill="currentColor"/>
  <rect x="33.502" y="27.5" width="13.5" height="1" fill="currentColor"/>
  <rect x="33.502" y="30.5" width="13.5" height="1" fill="currentColor"/>
  </g>
  <defs>
  <clipPath id="clip0_90_2001">
  <rect width="50" height="50" fill="white" transform="translate(0.5)"/>
  </clipPath>
  </defs>
</svg>

<svg id="form3" viewBox="0 0 51 50" fill="none" xmlns="http://www.w3.org/2000/svg">
  <g clip-path="url(#clip0_90_2012)">
    <rect width="50" height="50" transform="translate(0.5)" fill="white"/>
    <rect x="1.25" y="7.25" width="48.5" height="33" rx="5.25" stroke="currentColor" stroke-width="1.5"/>
    <rect x="5.25" y="11.25" width="26.5" height="25" rx="3.25" stroke="currentColor" stroke-width="1.5"/>
    <circle cx="18" cy="17" r="1.1875" stroke="currentColor" stroke-width="0.625"/>
    <rect x="34.75" y="11.25" width="11" height="25" rx="3.25" stroke="currentColor" stroke-width="1.5"/>
    <circle cx="40.5" cy="17" r="1.1875" stroke="currentColor" stroke-width="0.625"/>
  </g>
  <defs>
    <clipPath id="clip0_90_2012">
      <rect width="50" height="50" fill="white" transform="translate(0.5)"/>
    </clipPath>
  </defs>
</svg>

<svg id="form4" viewBox="0 0 51 50" fill="none" xmlns="http://www.w3.org/2000/svg">
  <g clip-path="url(#clip0_90_2018)">
    <rect width="50" height="50" transform="translate(0.5)" fill="white"/>
    <rect x="1.25" y="7.25" width="48.5" height="33" rx="5.25" stroke="currentColor" stroke-width="1.5"/>
    <rect x="5.25" y="11.25" width="19" height="25" rx="3.25" stroke="currentColor" stroke-width="1.5"/>
    <circle cx="15" cy="17" r="1.1875" stroke="currentColor" stroke-width="0.625"/>
    <rect x="26.75" y="11.25" width="19" height="25" rx="3.25" stroke="currentColor" stroke-width="1.5"/>
    <circle cx="36.501" cy="17" r="1.1875" stroke="currentColor" stroke-width="0.625"/>
  </g>
  <defs>
    <clipPath id="clip0_90_2018">
      <rect width="50" height="50" fill="white" transform="translate(0.5)"/>
    </clipPath>
  </defs>
</svg>

<svg id="form5" viewBox="0 0 35 50" fill="none" xmlns="http://www.w3.org/2000/svg">
  <g clip-path="url(#clip0_90_2024)">
    <rect width="34.5" height="50" fill="white"/>
    <rect x="0.75" y="7.25" width="33" height="33" rx="16.5" stroke="currentColor" stroke-width="1.5"/>
    <rect x="4.74805" y="11.25" width="25" height="25" rx="12.5" stroke="currentColor" stroke-width="1.5"/>
    <circle cx="17.498" cy="17" r="1.1875" stroke="currentColor" stroke-width="0.625"/>
  </g>
  <defs>
    <clipPath id="clip0_90_2024">
      <rect width="34.5" height="50" fill="white"/>
    </clipPath>
  </defs>
</svg>

<svg id="form6" viewBox="0 0 51 50" fill="none" xmlns="http://www.w3.org/2000/svg">
  <g clip-path="url(#clip0_90_2028)">
  <rect width="50" height="50" transform="translate(0.5)" fill="white"/>
  <rect x="1.25195" y="7.25" width="48.5" height="33" rx="16.5" stroke="currentColor" stroke-width="1.5"/>
  <rect x="5.25" y="11.25" width="24" height="25" rx="12" stroke="currentColor" stroke-width="1.5"/>
  <circle cx="10.5" cy="23.5" r="1.1875" stroke="currentColor" stroke-width="0.625"/>
  <rect x="32.502" y="15.5" width="12.5" height="1" rx="0.5" fill="currentColor"/>
  <rect x="32.502" y="18.5" width="12.5" height="1" rx="0.5" fill="currentColor"/>
  <rect x="32.502" y="21.5" width="12.5" height="1" rx="0.5" fill="currentColor"/>
  <rect x="32.502" y="24.5" width="12.5" height="1" rx="0.5" fill="currentColor"/>
  <rect x="32.502" y="27.5" width="12.5" height="1" rx="0.5" fill="currentColor"/>
  <rect x="32.502" y="30.5" width="12.5" height="1" rx="0.5" fill="currentColor"/>
  </g>
  <defs>
  <clipPath id="clip0_90_2028">
  <rect width="50" height="50" fill="white" transform="translate(0.5)"/>
  </clipPath>
  </defs>
</svg>

<svg id="form7" viewBox="0 0 51 50" fill="none" xmlns="http://www.w3.org/2000/svg">
  <rect width="50" height="50" transform="translate(0.5)" fill="white"/>
  <path d="M46.8039 13.7788C29.3349 2.86388 12.1982 8.40654 3.69166 13.7338C2.40332 14.5407 2.07857 16.2261 2.84671 17.5379L15.131 38.5159C15.6692 39.4352 16.6546 40 17.7198 40H34.1867C35.3016 40 36.3246 39.3817 36.8429 38.3945L47.7766 17.5683C48.4766 16.235 48.081 14.5768 46.8039 13.7788Z" stroke="currentColor" stroke-width="1.5"/>
  <rect x="16.252" y="11.75" width="18.5" height="24.5" rx="1.25" stroke="currentColor" stroke-width="1.5"/>
  <circle cx="25.5" cy="32" r="0.75" stroke="currentColor" stroke-width="1.5"/>
  <rect x="37" y="15.5" width="8" height="1" fill="currentColor"/>
  <rect x="37" y="18" width="7" height="1" fill="currentColor"/>
  <rect x="37" y="20.5" width="6" height="1" fill="currentColor"/>
  <rect width="8" height="1" transform="matrix(-1 0 0 1 14 15.5)" fill="currentColor"/>
  <rect width="7" height="1" transform="matrix(-1 0 0 1 14 18)" fill="currentColor"/>
  <rect width="6" height="1" transform="matrix(-1 0 0 1 14 20.5)" fill="currentColor"/>
</svg>

<svg id="form8" viewBox="0 0 40 40" fill="none" xmlns="http://www.w3.org/2000/svg">
  <path d="M17.2319 36.552C17.2319 36.704 17.1119 36.856 16.9039 36.976C16.3439 37.328 15.1119 37.568 13.6799 37.568C12.2479 37.568 11.0159 37.32 10.4559 36.976C10.2479 36.848 10.1279 36.704 10.1279 36.552" stroke="currentColor" stroke-miterlimit="10"/>
  <path d="M17.2319 35.2081C17.2319 35.3601 17.1119 35.5121 16.9039 35.6321C16.3439 35.9841 15.1119 36.2241 13.6799 36.2241C12.2479 36.2241 11.0159 35.9761 10.4559 35.6321C10.2479 35.5041 10.1279 35.3601 10.1279 35.2081C10.1279 34.6481 11.7199 34.1841 13.6799 34.1841C15.6399 34.1841 17.2319 34.6481 17.2319 35.2081Z" fill="white" stroke="currentColor" stroke-miterlimit="10"/>
  <path d="M16.1838 26.3521V34.7521C14.5118 35.2801 12.8478 35.2801 11.1758 34.7521V26.3521" fill="white"/>
  <path d="M16.1838 26.3521V34.7521C14.5118 35.2801 12.8478 35.2801 11.1758 34.7521V26.3521" stroke="currentColor" stroke-linejoin="round"/>
  <path d="M13.6798 27.1761C15.0627 27.1761 16.1838 26.8072 16.1838 26.3521C16.1838 25.897 15.0627 25.5281 13.6798 25.5281C12.2969 25.5281 11.1758 25.897 11.1758 26.3521C11.1758 26.8072 12.2969 27.1761 13.6798 27.1761Z" stroke="currentColor" stroke-miterlimit="10"/>
  <path d="M17.2319 36.5521V35.2161" stroke="currentColor" stroke-miterlimit="10"/>
  <path d="M10.1279 36.5521V35.2161" stroke="currentColor" stroke-miterlimit="10"/>
  <path d="M15.9038 27.432L19.9758 26.656C21.2398 26.656 22.2638 27.68 22.2638 28.944C22.2638 30.016 21.5278 30.92 20.5278 31.168L20.3918 31.184L16.3598 31.888" stroke="currentColor" stroke-miterlimit="10"/>
  <path d="M16.8799 27.2401C18.0719 27.2081 19.1039 28.1041 19.2159 29.3041C19.3119 30.3121 18.7439 31.2321 17.8639 31.6161" stroke="currentColor" stroke-miterlimit="10"/>
  <path d="M20.3761 20.7439C20.3761 20.3861 20.086 20.0959 19.7281 20.0959C19.3702 20.0959 19.0801 20.3861 19.0801 20.7439V26.5199C19.0801 26.8778 19.3702 27.1679 19.7281 27.1679C20.086 27.1679 20.3761 26.8778 20.3761 26.5199V20.7439Z" fill="white" stroke="currentColor" stroke-miterlimit="10"/>
  <path d="M32.7039 4.93611L15.4559 5.70411C15.1919 5.70411 14.9759 5.92011 14.9759 6.18411V25.8481C14.1199 26.0721 13.2879 26.0801 12.4639 25.8481V5.70411C12.4639 4.32011 13.5839 3.19211 14.9759 3.19211L32.7039 2.46411C32.7039 2.46411 33.2479 2.88811 33.2479 3.65611C33.2479 4.75211 32.7039 4.94411 32.7039 4.94411V4.93611Z" fill="white" stroke="currentColor" stroke-linejoin="round"/>
  <path d="M28.3439 2.69604C28.3439 2.69604 27.8799 3.29605 27.9519 3.98405C28.0319 4.72005 28.4559 5.17604 28.4559 5.17604" stroke="currentColor" stroke-linejoin="round"/>
  <path d="M32.5922 2.46411C32.5922 2.46411 32.0882 3.03211 32.1122 3.72011C32.1442 4.46411 32.5282 4.94411 32.5282 4.94411" stroke="currentColor" stroke-linejoin="round"/>
  <path d="M32.1118 5.24805V5.96005C31.4158 6.07205 30.7358 6.08805 30.0718 5.96005V5.24805" stroke="currentColor" stroke-linejoin="round"/>
</svg>

<svg id="form9" viewBox="0 0 40 40" fill="none" xmlns="http://www.w3.org/2000/svg">
  <path d="M18.2798 36.28C18.2798 36.432 18.1598 36.584 17.9518 36.704C17.3918 37.056 16.1598 37.296 14.7278 37.296C13.2958 37.296 12.0638 37.048 11.5038 36.704C11.2958 36.576 11.1758 36.432 11.1758 36.28" stroke="currentColor" stroke-miterlimit="10"/>
  <path d="M18.2798 34.9439C18.2798 35.0959 18.1598 35.2479 17.9518 35.3679C17.3918 35.7199 16.1598 35.9599 14.7278 35.9599C13.2958 35.9599 12.0638 35.7119 11.5038 35.3679C11.2958 35.2399 11.1758 35.0959 11.1758 34.9439C11.1758 34.3839 12.7678 33.9199 14.7278 33.9199C16.6878 33.9199 18.2798 34.3839 18.2798 34.9439Z" fill="white" stroke="currentColor" stroke-miterlimit="10"/>
  <path d="M17.2321 26.0879V34.4879C15.5601 35.0159 13.8961 35.0159 12.2241 34.4879V26.0879" fill="white"/>
  <path d="M17.2321 26.0879V34.4879C15.5601 35.0159 13.8961 35.0159 12.2241 34.4879V26.0879" stroke="currentColor" stroke-linejoin="round"/>
  <path d="M14.7281 26.9119C16.111 26.9119 17.2321 26.543 17.2321 26.0879C17.2321 25.6328 16.111 25.2639 14.7281 25.2639C13.3452 25.2639 12.2241 25.6328 12.2241 26.0879C12.2241 26.543 13.3452 26.9119 14.7281 26.9119Z" stroke="currentColor" stroke-miterlimit="10"/>
  <path d="M18.2798 36.2801V34.9441" stroke="currentColor" stroke-miterlimit="10"/>
  <path d="M11.1758 36.2801V34.9441" stroke="currentColor" stroke-miterlimit="10"/>
  <path d="M16.9438 27.1681L21.0158 26.3921C22.2798 26.3921 23.3038 27.4161 23.3038 28.6801C23.3038 29.7521 22.5678 30.6561 21.5678 30.9041L21.4318 30.9201L17.3998 31.6241" stroke="currentColor" stroke-miterlimit="10"/>
  <path d="M17.9199 26.9759C19.1119 26.9439 20.1439 27.8399 20.2559 29.0399C20.3519 30.0479 19.7839 30.9679 18.9039 31.3519" stroke="currentColor" stroke-miterlimit="10"/>
  <path d="M21.4239 20.48C21.4239 20.1222 21.1338 19.832 20.7759 19.832C20.418 19.832 20.1279 20.1222 20.1279 20.48V26.256C20.1279 26.6139 20.418 26.904 20.7759 26.904C21.1338 26.904 21.4239 26.6139 21.4239 26.256V20.48Z" fill="white" stroke="currentColor" stroke-miterlimit="10"/>
  <path d="M31.4642 4.59208V5.44008H31.4562V11.0481C30.5922 11.3841 29.7522 11.4241 28.9442 11.0481V5.07208C28.9442 4.80808 28.7282 4.59208 28.4642 4.59208L16.5042 5.44008C16.2402 5.44008 16.0242 5.65608 16.0242 5.92008V25.5841C15.1682 25.8081 14.3362 25.8161 13.5122 25.5841V5.44008C13.5122 4.05608 14.6322 2.92808 16.0242 2.92808L28.9522 2.08008C30.3362 2.08008 31.4642 3.20008 31.4642 4.59208Z" fill="white" stroke="currentColor" stroke-linejoin="round"/>
  <path d="M31.4558 7.27197V9.28797C30.5918 9.61597 29.7598 9.65597 28.9438 9.28797V7.27197" stroke="currentColor" stroke-linejoin="round"/>
</svg>

<svg id="form10" viewBox="0 0 22 39" fill="none" xmlns="http://www.w3.org/2000/svg">
  <path d="M8.0957 36.9192C8.0957 37.0736 7.9757 37.2208 7.7677 37.3464C7.2077 37.6968 5.9757 37.9416 4.5437 37.9416C3.1117 37.9416 1.8797 37.696 1.3197 37.3464C1.1117 37.22 0.991699 37.0728 0.991699 36.9192" stroke="currentColor" stroke-miterlimit="10"/>
  <path d="M8.0957 35.5798C8.0957 35.7342 7.9757 35.8814 7.7677 36.007C7.2077 36.3574 5.9757 36.6022 4.5437 36.6022C3.1117 36.6022 1.8797 36.3566 1.3197 36.007C1.1117 35.8806 0.991699 35.7334 0.991699 35.5798C0.991699 35.019 2.5837 34.5566 4.5437 34.5566C6.5037 34.5566 8.0957 35.019 8.0957 35.5798Z" fill="white" stroke="currentColor" stroke-miterlimit="10"/>
  <path d="M7.04786 26.7207V35.1183C5.37826 35.6439 3.70866 35.6439 2.03906 35.1183C2.03906 32.3191 2.03906 29.5199 2.03906 26.7207" fill="white"/>
  <path d="M7.04786 26.7207V35.1183C5.37826 35.6439 3.70866 35.6439 2.03906 35.1183C2.03906 32.3191 2.03906 29.5199 2.03906 26.7207" stroke="currentColor" stroke-miterlimit="10" stroke-linejoin="round"/>
  <path d="M4.54355 27.5439C5.92647 27.5439 7.04755 27.1753 7.04755 26.7207C7.04755 26.266 5.92647 25.8975 4.54355 25.8975C3.16063 25.8975 2.03955 26.266 2.03955 26.7207C2.03955 27.1753 3.16063 27.5439 4.54355 27.5439Z" stroke="currentColor" stroke-miterlimit="10"/>
  <path d="M8.0957 36.919C8.0957 36.4726 8.0957 36.0262 8.0957 35.5798" stroke="currentColor" stroke-miterlimit="10"/>
  <path d="M0.991699 36.919C0.991699 36.4726 0.991699 36.0262 0.991699 35.5798" stroke="currentColor" stroke-miterlimit="10"/>
  <path d="M18.838 9.99992C18.1892 5.64471 15.2188 3.27751 12.2948 3.38231C8.47795 3.51831 6.03715 6.04872 5.83475 9.70391V26.3127C4.98195 26.5343 4.14435 26.5431 3.32275 26.3127V10.0111C3.32275 5.35591 6.71715 1.49111 11.3524 1.06071C16.5548 0.576715 20.6276 5.01512 20.994 9.44792" fill="white"/>
  <path d="M18.838 9.99991C18.1892 5.64471 15.2188 3.27751 12.2948 3.38231C8.47795 3.51831 6.03715 6.04871 5.83475 9.70391V26.3127C4.98195 26.5343 4.14435 26.5431 3.32275 26.3127V10.0111C3.32275 5.35591 6.71715 1.49111 11.3524 1.06071C16.5548 0.576715 20.6276 5.01512 20.994 9.44792" stroke="currentColor" stroke-miterlimit="10" stroke-linejoin="round"/>
  <path d="M6.76514 27.804L10.8371 27.0288C12.1011 27.0288 13.1259 28.0536 13.1259 29.3176C13.1259 30.3904 12.3883 31.2904 11.3923 31.5392L11.2555 31.5584L7.22434 32.2656" stroke="currentColor" stroke-miterlimit="10"/>
  <path d="M7.74121 27.6134C8.93161 27.5806 9.96201 28.475 10.0796 29.679C10.178 30.6862 9.60841 31.6054 8.73081 31.995" stroke="currentColor" stroke-miterlimit="10"/>
  <path d="M10.5959 27.544C10.2375 27.544 9.94629 27.2527 9.94629 26.8943V21.1184C9.94629 20.76 10.2375 20.4688 10.5959 20.4688C10.9543 20.4688 11.2455 20.76 11.2455 21.1184V26.8943C11.2455 27.2527 10.9543 27.544 10.5959 27.544Z" fill="white" stroke="currentColor" stroke-miterlimit="10"/>
  <path d="M20.0879 10.3181C20.6832 10.1533 21.0893 9.74353 20.995 9.40287C20.9007 9.0622 20.3417 8.91963 19.7464 9.08442C19.1511 9.24922 18.7449 9.65898 18.8392 9.99964C18.9335 10.3403 19.4926 10.4829 20.0879 10.3181Z" fill="white" stroke="currentColor" stroke-miterlimit="10"/>
  <path d="M18.3725 8.04385C18.2813 7.71345 18.6949 7.30945 19.2981 7.14305C19.9013 6.97665 20.4637 7.10945 20.5549 7.43985" stroke="currentColor" stroke-miterlimit="10"/>
  <path d="M18.4012 8.17194C18.31 7.84154 18.7284 7.43674 19.3364 7.26794C19.9444 7.09994 20.5116 7.23114 20.6036 7.56234" stroke="currentColor" stroke-miterlimit="10"/>
</svg>

<svg id="form11" viewBox="0 0 35 34" fill="none" xmlns="http://www.w3.org/2000/svg">
  <path d="M20.7002 24.8506C20.7002 24.8506 18.0634 31.9082 17.941 31.9082C16.3154 32.8538 14.6522 32.8146 12.957 31.9082C12.845 31.9082 9.79297 24.4458 9.79297 24.4458" fill="white"/>
  <path d="M20.7002 24.8506C20.7002 24.8506 18.0634 31.9082 17.941 31.9082C16.3154 32.8538 14.6522 32.8146 12.957 31.9082C12.845 31.9082 9.79297 24.4458 9.79297 24.4458" stroke="currentColor" stroke-miterlimit="10" stroke-linejoin="round"/>
  <path d="M14.2277 22.1453C14.4389 22.5477 13.6173 23.3949 12.3925 24.0381C11.1677 24.6805 10.0037 24.8749 9.79248 24.4725" stroke="currentColor" stroke-miterlimit="10"/>
  <path d="M13.4277 21.2532C13.7541 21.4716 14.0325 21.7724 14.2277 22.1452L13.4277 21.2532Z" fill="white"/>
  <path d="M13.4277 21.2532C13.7541 21.4716 14.0325 21.7724 14.2277 22.1452" stroke="currentColor" stroke-miterlimit="10"/>
  <path d="M9.79256 24.4724C9.61416 24.1324 9.52376 23.7692 9.51416 23.4092L9.79256 24.4724Z" fill="white"/>
  <path d="M9.79256 24.4724C9.61416 24.1324 9.52376 23.7692 9.51416 23.4092" stroke="currentColor" stroke-miterlimit="10"/>
  <path d="M19.8569 24.1804C20.3737 24.3444 20.7001 24.5844 20.7001 24.8508C20.7001 25.3452 19.5809 25.746 18.2009 25.746C16.8201 25.746 15.7017 25.3452 15.7017 24.8508C15.7017 24.5852 16.0233 24.3476 16.5345 24.1836" fill="white"/>
  <path d="M19.8569 24.1804C20.3737 24.3444 20.7001 24.5844 20.7001 24.8508C20.7001 25.3452 19.5809 25.746 18.2009 25.746C16.8201 25.746 15.7017 25.3452 15.7017 24.8508C15.7017 24.5852 16.0233 24.3476 16.5345 24.1836" stroke="currentColor" stroke-miterlimit="10"/>
  <path d="M18.2001 23.1028C19.1204 23.1028 19.8665 22.8356 19.8665 22.506C19.8665 22.1764 19.1204 21.9092 18.2001 21.9092C17.2798 21.9092 16.5337 22.1764 16.5337 22.506C16.5337 22.8356 17.2798 23.1028 18.2001 23.1028Z" fill="white" stroke="currentColor" stroke-miterlimit="10"/>
  <path d="M19.8665 24.1499C19.8665 24.4795 19.1209 24.7467 18.2001 24.7467C17.2801 24.7467 16.5337 24.4795 16.5337 24.1499" fill="white"/>
  <path d="M19.8665 24.1499C19.8665 24.4795 19.1209 24.7467 18.2001 24.7467C17.2801 24.7467 16.5337 24.4795 16.5337 24.1499" stroke="currentColor" stroke-miterlimit="10"/>
  <path d="M16.5342 24.1499V22.5059" stroke="currentColor" stroke-miterlimit="10"/>
  <path d="M19.8662 24.1499V22.5059" stroke="currentColor" stroke-miterlimit="10"/>
  <path d="M17.0455 14.7539C16.7207 4.78591 22.9015 -0.025293 29.8247 1.18271C31.7783 1.60591 32.7687 2.31071 33.2519 2.81391C33.5167 3.08991 33.6791 3.44431 33.7191 3.82511L33.8439 5.00111C33.8559 5.11311 33.7767 5.21471 33.6647 5.22991C33.2135 5.66271 32.5911 5.74111 31.8063 5.48431C31.6911 5.50031 31.5855 5.41871 31.5711 5.30351L31.5015 4.76031C31.3783 3.86511 30.7991 3.30191 29.9935 3.13231C24.1735 1.91791 18.6559 5.95151 19.2495 14.7539L19.2911 21.8787C18.5367 22.2243 17.7879 22.2507 17.0463 21.8819L17.0455 14.7539Z" fill="white" stroke="currentColor" stroke-miterlimit="10"/>
  <path d="M33.7759 5.11304L33.9383 6.36744C33.9487 6.49704 33.8535 6.61064 33.7247 6.62504C33.2663 6.98424 32.7263 7.00744 32.1295 6.79704C31.9943 6.81144 31.8743 6.71144 31.8647 6.57624L31.7031 5.25144" stroke="currentColor" stroke-miterlimit="10"/>
  <path d="M9.34898 18.4371C10.565 17.7779 11.7322 17.5899 11.937 17.9795C12.1418 18.3691 11.3554 19.2915 10.0898 19.8483C7.87938 20.8203 1.00098 23.1187 1.00098 23.1187C1.00098 23.1187 7.24578 19.5779 9.34898 18.4371Z" stroke="currentColor" stroke-miterlimit="10" stroke-linecap="round" stroke-linejoin="round"/>
  <path d="M1 23.1187C4.3544 21.9099 7.9176 20.3875 8.6136 23.1979C8.8472 23.6435 10.172 23.4091 11.572 22.6747C12.972 21.9403 13.9176 20.9835 13.684 20.5387L11.9368 17.9795" stroke="currentColor" stroke-miterlimit="10"/>
  <path d="M14.228 22.145L15.7008 24.8506" stroke="currentColor" stroke-miterlimit="10"/>
</svg>

<svg id="form12" viewBox="0 0 29 21" fill="none" xmlns="http://www.w3.org/2000/svg">
  <path d="M8.50439 19.3533C8.50439 19.5077 8.38439 19.6549 8.17639 19.7805C7.61639 20.1309 6.38439 20.3757 4.95239 20.3757C3.52039 20.3757 2.28839 20.1301 1.72839 19.7805C1.52039 19.6541 1.40039 19.5069 1.40039 19.3533" stroke="currentColor" stroke-miterlimit="10"/>
  <path d="M8.50439 18.0134C8.50439 18.1678 8.38439 18.315 8.17639 18.4406C7.61639 18.791 6.38439 19.0358 4.95239 19.0358C3.52039 19.0358 2.28839 18.7902 1.72839 18.4406C1.52039 18.3142 1.40039 18.167 1.40039 18.0134C1.40039 17.4526 2.99239 16.9902 4.95239 16.9902C6.91239 16.991 8.50439 17.4534 8.50439 18.0134Z" fill="white" stroke="currentColor" stroke-miterlimit="10"/>
  <path d="M7.45655 6.96777V17.4542C5.78695 18.1102 4.11735 18.1102 2.44775 17.4542C2.44775 13.959 2.44775 10.463 2.44775 6.96777" fill="white"/>
  <path d="M7.45655 6.96777V17.4542C5.78695 18.1102 4.11735 18.1102 2.44775 17.4542C2.44775 13.959 2.44775 10.463 2.44775 6.96777" stroke="currentColor" stroke-miterlimit="10" stroke-linejoin="round"/>
  <path d="M7.45624 6.96777C7.45624 7.42217 6.33464 7.79097 4.95224 7.79097C3.56984 7.79097 2.44824 7.42217 2.44824 6.96777" stroke="currentColor" stroke-miterlimit="10"/>
  <path d="M7.45624 13.2622C7.45624 13.7166 6.33464 14.0854 4.95224 14.0854C3.56984 14.0854 2.44824 13.7166 2.44824 13.2622" stroke="currentColor" stroke-miterlimit="10"/>
  <path d="M8.50439 19.3534C8.50439 18.907 8.50439 18.4606 8.50439 18.0142" stroke="currentColor" stroke-miterlimit="10"/>
  <path d="M1.40039 19.3534C1.40039 18.907 1.40039 18.4606 1.40039 18.0142" stroke="currentColor" stroke-miterlimit="10"/>
  <path d="M7.45654 16.7294V14.551L21.2477 5.32778C21.8061 4.95418 22.4029 4.63018 23.0453 4.43258C23.8189 4.19418 24.6253 4.07178 25.4389 4.07178H28.1997C28.3309 4.07178 28.4373 4.17818 28.4373 4.30938V5.95578H25.4229C24.4973 5.95578 23.5813 6.23018 22.7125 6.59178C22.2549 6.78218 21.8181 7.02058 21.4053 7.29498L7.45654 16.7294Z" fill="white" stroke="currentColor" stroke-miterlimit="10"/>
  <path d="M7.1626 5.80615C7.3498 6.15175 7.457 6.54695 7.457 6.96775L7.1626 5.80615Z" fill="white"/>
  <path d="M7.1626 5.80615C7.3498 6.15175 7.457 6.54695 7.457 6.96775" stroke="currentColor" stroke-miterlimit="10"/>
  <path d="M2.44775 6.96768C2.44775 6.58368 2.53655 6.21968 2.69495 5.89648L2.44775 6.96768Z" fill="white"/>
  <path d="M2.44775 6.96768C2.44775 6.58368 2.53655 6.21968 2.69495 5.89648" stroke="currentColor" stroke-miterlimit="10"/>
  <path d="M26.0731 7.40043H28.1995C28.3307 7.40043 28.4379 7.29403 28.4379 7.16203V5.97803H25.8355V7.16203C25.8347 7.29323 25.9419 7.40043 26.0731 7.40043Z" fill="white" stroke="currentColor" stroke-miterlimit="10"/>
  <path d="M4.80225 1.43412C3.41905 1.45812 2.31025 1.86932 2.32385 2.30932C2.33745 2.74932 3.47585 3.16532 4.85185 3.02692C7.25425 2.78532 14.3735 1.40052 14.3735 1.40052C14.3735 1.40052 7.19505 1.39252 4.80225 1.43412Z" stroke="currentColor" stroke-miterlimit="10" stroke-linecap="round" stroke-linejoin="round"/>
  <path d="M14.3742 1.40063C10.859 1.99983 7.00779 2.42703 7.78539 5.21663C7.80139 5.71903 6.53339 6.16703 4.95259 6.21663C3.37259 6.26623 2.07899 5.89903 2.06299 5.39663L2.32379 2.30863" stroke="currentColor" stroke-miterlimit="10"/>
</svg>

<!-- Формы конец -->


<svg id="sort"  viewBox="0 0 18 18" fill="none" xmlns="http://www.w3.org/2000/svg">
  <path d="M1.125 5.0625H16.875M3.9375 9H14.0625M7.3125 12.9375H10.6875" stroke="currentColor" stroke-width="1.5" stroke-linecap="round" stroke-linejoin="round"/>
</svg>

<svg id="arr-d" viewBox="0 0 17 9" fill="none" xmlns="http://www.w3.org/2000/svg">
  <path d="M16 1L8.5 7L1 1" stroke="currentColor" stroke-width="2"/>
</svg>

<svg id="active-filter-close"  viewBox="0 0 10 10" fill="none" xmlns="http://www.w3.org/2000/svg">
  <g clip-path="url(#clip0_124_272)">
    <path d="M9.2853 9.28578L0.713867 0.714355M9.2853 0.714355L0.713867 9.28578" stroke="currentColor" stroke-linecap="round" stroke-linejoin="round"/>
  </g>
  <defs>
    <clipPath id="clip0_124_272">
      <rect width="10" height="10" fill="white"/>
    </clipPath>
  </defs>
</svg>

<svg id="header-close" viewBox="0 0 22 22" fill="none" xmlns="http://www.w3.org/2000/svg">
  <path d="M21.2853 21.2858L0.713867 0.714355M21.2853 0.714355L0.713867 21.2858" stroke="currentColor" stroke-linecap="round" stroke-linejoin="round"/>
</svg>

<svg id="slider-arr-l" viewBox="0 0 44 44" fill="none" xmlns="http://www.w3.org/2000/svg">
  <path d="M20.1393 12.1466C20.1918 12.1931 20.2335 12.2482 20.262 12.3089C20.2904 12.3696 20.305 12.4347 20.305 12.5004C20.305 12.5661 20.2904 12.6311 20.262 12.6918C20.2335 12.7525 20.1918 12.8077 20.1393 12.8541L10.9306 21.0001H34.4348C34.5847 21.0001 34.7285 21.0528 34.8345 21.1465C34.9405 21.2403 35 21.3675 35 21.5001C35 21.6327 34.9405 21.7598 34.8345 21.8536C34.7285 21.9474 34.5847 22 34.4348 22H10.9306L20.1393 30.146C20.1918 30.1925 20.2334 30.2476 20.2619 30.3083C20.2903 30.369 20.3049 30.434 20.3049 30.4997C20.3049 30.5654 20.2903 30.6305 20.2619 30.6912C20.2334 30.7519 20.1918 30.807 20.1393 30.8535C20.0868 30.8999 20.0244 30.9368 19.9558 30.9619C19.8872 30.9871 19.8137 31 19.7394 31C19.6651 31 19.5916 30.9871 19.523 30.9619C19.4544 30.9368 19.392 30.8999 19.3395 30.8535L9.16577 21.8538C9.11322 21.8074 9.07153 21.7522 9.04308 21.6915C9.01464 21.6308 9 21.5658 9 21.5001C9 21.4344 9.01464 21.3693 9.04308 21.3086C9.07153 21.2479 9.11322 21.1928 9.16577 21.1463L19.3395 12.1466C19.392 12.1002 19.4543 12.0633 19.523 12.0381C19.5916 12.013 19.6651 12 19.7394 12C19.8137 12 19.8872 12.013 19.9558 12.0381C20.0244 12.0633 20.0868 12.1002 20.1393 12.1466Z" fill="currentColor"/>
</svg>

<svg id="slider-arr-r" viewBox="0 0 44 44" fill="none" xmlns="http://www.w3.org/2000/svg">
  <path d="M23.8607 30.8534C23.8082 30.8069 23.7665 30.7518 23.738 30.6911C23.7096 30.6304 23.695 30.5653 23.695 30.4996C23.695 30.4339 23.7096 30.3689 23.738 30.3082C23.7665 30.2475 23.8082 30.1923 23.8607 30.1459L33.0694 21.9999H9.56521C9.41531 21.9999 9.27154 21.9472 9.16555 21.8535C9.05955 21.7597 9 21.6325 9 21.4999C9 21.3673 9.05955 21.2402 9.16555 21.1464C9.27154 21.0526 9.41531 21 9.56521 21H33.0694L23.8607 12.854C23.8082 12.8075 23.7666 12.7524 23.7381 12.6917C23.7097 12.631 23.6951 12.566 23.6951 12.5003C23.6951 12.4346 23.7097 12.3695 23.7381 12.3088C23.7666 12.2481 23.8082 12.193 23.8607 12.1465C23.9132 12.1001 23.9756 12.0632 24.0442 12.0381C24.1128 12.0129 24.1863 12 24.2606 12C24.3349 12 24.4084 12.0129 24.477 12.0381C24.5456 12.0632 24.608 12.1001 24.6605 12.1465L34.8342 21.1462C34.8868 21.1926 34.9285 21.2478 34.9569 21.3085C34.9854 21.3692 35 21.4342 35 21.4999C35 21.5656 34.9854 21.6307 34.9569 21.6914C34.9285 21.7521 34.8868 21.8072 34.8342 21.8537L24.6605 30.8534C24.608 30.8998 24.5457 30.9367 24.477 30.9619C24.4084 30.987 24.3349 31 24.2606 31C24.1863 31 24.1128 30.987 24.0442 30.9619C23.9756 30.9367 23.9132 30.8998 23.8607 30.8534Z" fill="currentColor"/>
</svg>

<svg id="download" viewBox="0 0 24 24" fill="none" xmlns="http://www.w3.org/2000/svg">
  <path d="M19.5 18V21H4.5V18H3V21C3 21.3978 3.15804 21.7794 3.43934 22.0607C3.72064 22.342 4.10218 22.5 4.5 22.5H19.5C19.8978 22.5 20.2794 22.342 20.5607 22.0607C20.842 21.7794 21 21.3978 21 21V18H19.5ZM19.5 10.5L18.4425 9.4425L12.75 15.1275V1.5H11.25V15.1275L5.5575 9.4425L4.5 10.5L12 18L19.5 10.5Z" fill="currentColor"/>
</svg>

<svg id="burger" viewBox="0 0 42 42" fill="none" xmlns="http://www.w3.org/2000/svg">
  <path d="M5.25 31.5H36.75V28.875H5.25V31.5ZM5.25 22.3125H36.75V19.6875H5.25V22.3125ZM5.25 10.5V13.125H36.75V10.5H5.25Z" fill="currentColor" stroke="white" stroke-width="0.8"/>
</svg>

<svg id="home" viewBox="0 0 20 22" fill="none" xmlns="http://www.w3.org/2000/svg">
  <path d="M2.35 19.5556V19.7056H2.5H6.25H6.4V19.5556V12.3722H13.6V19.5556V19.7056H13.75H17.5H17.65V19.5556V8.55556V8.47954L17.5887 8.43459L10.0887 2.93459L10 2.86954L9.9113 2.93459L2.4113 8.43459L2.35 8.47954V8.55556V19.5556ZM19.85 7.40934V21.85H11.4V14.6667V14.5167H11.25H8.75H8.6V14.6667V21.85H0.15V7.40934L10 0.18601L19.85 7.40934Z" fill="currentColor" stroke="white" stroke-width="0.3"/>
</svg>

<svg id="catalog" viewBox="0 0 29 28" fill="none" xmlns="http://www.w3.org/2000/svg">
  <path fill-rule="evenodd" clip-rule="evenodd" d="M19.4167 18.6666H24.0833V23.3333H19.4167V18.6666ZM12.4167 18.6666H17.0833V23.3333H12.4167V18.6666ZM5.41666 18.6666H10.0833V23.3333H5.41666V18.6666ZM19.4167 11.6666H24.0833V16.3333H19.4167V11.6666ZM12.4167 11.6666H17.0833V16.3333H12.4167V11.6666ZM5.41666 11.6666H10.0833V16.3333H5.41666V11.6666ZM19.4167 4.66663H24.0833V9.33329H19.4167V4.66663ZM12.4167 4.66663H17.0833V9.33329H12.4167V4.66663ZM5.41666 4.66663H10.0833V9.33329H5.41666V4.66663Z" fill="currentColor"/>
</svg>

<svg id="phone" viewBox="0 0 29 28" fill="none" xmlns="http://www.w3.org/2000/svg">
  <path d="M24.4509 21.2379L25.068 21.8586L24.4497 21.2379H24.4509ZM9.74387 18.7226L10.3599 18.1019L9.7427 18.7226H9.74387ZM4.9302 6.36522L4.3142 5.74572L4.93137 6.36638L4.9302 6.36522ZM18.8579 17.7472L19.391 17.2187L18.1555 15.9774L17.6259 16.5059L18.8579 17.7472ZM21.1749 16.9971L23.4044 18.2092L24.2385 16.6715L22.0102 15.4605L21.1749 16.9971ZM23.8325 20.6172L22.1759 22.2657L23.409 23.5059L25.0657 21.8586L23.8325 20.6172ZM21.1655 22.7954C19.4739 22.9541 15.0989 22.8129 10.3599 18.1019L9.12554 19.3421C14.2962 24.4835 19.2184 24.7355 21.3289 24.5384L21.1644 22.7954H21.1655ZM10.3599 18.1019C5.8437 13.6102 5.0947 9.83372 5.00137 8.19455L3.2537 8.29372C3.37037 10.3564 4.29787 14.5424 9.12554 19.3421L10.3599 18.1019ZM11.964 10.8919L12.2989 10.5582L11.0669 9.31805L10.732 9.65055L11.9652 10.8907L11.964 10.8919ZM12.5649 6.31738L11.0949 4.35272L9.6937 5.40272L11.1637 7.36622L12.5649 6.31738ZM6.14704 3.92455L4.31537 5.74455L5.5497 6.98588L7.3802 5.16588L6.14704 3.92455ZM11.348 10.2712C10.7297 9.65055 10.7297 9.65055 10.7297 9.65288H10.7274L10.7239 9.65755C10.6688 9.71377 10.6192 9.7751 10.5757 9.84072C10.5127 9.93405 10.4439 10.0566 10.3855 10.2117C10.2435 10.6123 10.2081 11.0429 10.2829 11.4612C10.4392 12.4704 11.1345 13.8039 12.9149 15.5749L14.1492 14.3336C12.482 12.6769 12.0854 11.6689 12.0119 11.1929C11.9769 10.9665 12.013 10.8545 12.0235 10.8289C12.0294 10.8126 12.0317 10.8114 12.0235 10.8219C12.0132 10.8381 12.0015 10.8533 11.9885 10.8674L11.9769 10.879C11.9731 10.8827 11.9692 10.8862 11.9652 10.8895L11.3469 10.2712H11.348ZM12.9149 15.5749C14.6964 17.3459 16.0369 18.0365 17.0472 18.1905C17.564 18.2699 17.9805 18.2069 18.2967 18.089C18.4735 18.0236 18.6389 17.9307 18.7867 17.8137C18.8068 17.7969 18.8262 17.7794 18.845 17.7612L18.8532 17.7542L18.8567 17.7507L18.8579 17.7484C18.8579 17.7484 18.859 17.7472 18.2419 17.1265C17.6235 16.5059 17.627 16.5047 17.627 16.5047L17.6294 16.5024L17.6317 16.5L17.6387 16.4942L17.6504 16.4825C17.6644 16.47 17.6792 16.4583 17.6947 16.4476C17.7064 16.4394 17.7029 16.4429 17.6865 16.4499C17.6574 16.4604 17.543 16.4965 17.3132 16.4615C16.8302 16.3869 15.8152 15.9902 14.1492 14.3336L12.9149 15.5749ZM11.0949 4.35155C9.90487 2.76488 7.56687 2.51288 6.14704 3.92455L7.3802 5.16588C8.00087 4.54872 9.1022 4.61288 9.6937 5.40272L11.0937 4.35155H11.0949ZM5.00254 8.19572C4.9792 7.79205 5.1647 7.36972 5.5497 6.98705L4.3142 5.74572C3.6877 6.36872 3.1942 7.25072 3.2537 8.29372L5.00254 8.19572ZM22.1759 22.2657C21.8562 22.5854 21.5109 22.765 21.1667 22.7965L21.3289 24.5384C22.1864 24.4579 22.8875 24.0262 23.4102 23.507L22.1759 22.2657ZM12.2989 10.5582C13.448 9.41605 13.5332 7.61122 12.566 6.31855L11.1649 7.36738C11.635 7.99622 11.565 8.82105 11.0657 9.31922L12.2989 10.5582ZM23.4055 18.2104C24.3587 18.7284 24.5069 19.9487 23.8337 20.6184L25.068 21.8586C26.6314 20.3034 26.1495 17.7099 24.2397 16.6727L23.4055 18.2104ZM19.391 17.2199C19.839 16.7742 20.56 16.6645 21.176 16.9982L22.0114 15.4617C20.7467 14.7734 19.1787 14.9635 18.1567 15.9785L19.391 17.2199Z" fill="currentColor"/>
</svg>

<svg id="arr-bold-r" viewBox="0 0 22 22" fill="none" xmlns="http://www.w3.org/2000/svg">
  <path d="M12.4227 17.1929C12.3907 17.1609 12.3653 17.123 12.3481 17.0813C12.3308 17.0396 12.3218 16.9948 12.3218 16.9497C12.3218 16.9045 12.3308 16.8597 12.3481 16.818C12.3653 16.7763 12.3907 16.7384 12.4227 16.7065L18.0232 11.1059H3.72837C3.6372 11.1059 3.54977 11.0697 3.4853 11.0052C3.42084 10.9408 3.38462 10.8533 3.38462 10.7622C3.38462 10.671 3.42084 10.5836 3.4853 10.5191C3.54977 10.4546 3.6372 10.4184 3.72837 10.4184H18.0232L12.4227 4.81786C12.3907 4.78592 12.3654 4.748 12.3481 4.70627C12.3308 4.66455 12.3219 4.61982 12.3219 4.57465C12.3219 4.52949 12.3308 4.48476 12.3481 4.44303C12.3654 4.4013 12.3907 4.36339 12.4227 4.33145C12.4546 4.29951 12.4925 4.27418 12.5342 4.25689C12.576 4.23961 12.6207 4.23071 12.6659 4.23071C12.711 4.23071 12.7558 4.23961 12.7975 4.25689C12.8392 4.27418 12.8771 4.29951 12.9091 4.33145L19.0966 10.519C19.1285 10.5509 19.1539 10.5888 19.1712 10.6305C19.1885 10.6722 19.1974 10.717 19.1974 10.7622C19.1974 10.8073 19.1885 10.8521 19.1712 10.8938C19.1539 10.9355 19.1285 10.9734 19.0966 11.0054L12.9091 17.1929C12.8771 17.2248 12.8392 17.2502 12.7975 17.2675C12.7558 17.2848 12.711 17.2937 12.6659 17.2937C12.6207 17.2937 12.576 17.2848 12.5342 17.2675C12.4925 17.2502 12.4546 17.2248 12.4227 17.1929Z" fill="#12406E" stroke="#12406E"/>
</svg>

<svg id="cross-bold" viewBox="0 0 24 24" fill="none" xmlns="http://www.w3.org/2000/svg">
  <g clip-path="url(#clip0_363_700)">
    <path d="M21.8233 23.6458L12.1846 13.9981L12.0077 13.8211L11.8309 13.9981L2.1915 23.6464L0.353806 21.8099L10.0081 12.177L10.1855 12L10.0081 11.823L0.353806 2.19009L2.1915 0.353579L11.8309 10.0019L12.0076 10.1788L12.1844 10.002L21.8238 0.368864L23.6463 2.19023L14.0072 11.8232L13.8303 12L14.0072 12.1768L23.647 21.8104L21.8233 23.6458Z" fill="currentColor" stroke="white" stroke-width="0.5"/>
  </g>
  <defs>
    <clipPath id="clip0_363_700">
      <rect width="24" height="24" fill="white"/>
    </clipPath>
  </defs>
</svg>

<svg id="arr-d2" viewBox="0 0 13 15" fill="none" xmlns="http://www.w3.org/2000/svg">
  <path d="M0.933061 8.16395C0.959182 8.1378 0.9902 8.11706 1.02434 8.10291C1.05849 8.08875 1.09509 8.08147 1.13205 8.08147C1.16901 8.08147 1.2056 8.08875 1.23975 8.10291C1.27389 8.11706 1.30491 8.1378 1.33103 8.16395L5.9133 12.7462L5.9133 1.05044C5.9133 0.975847 5.94293 0.90431 5.99567 0.851565C6.04842 0.79882 6.11995 0.76919 6.19455 0.76919C6.26914 0.76919 6.34067 0.79882 6.39342 0.851565C6.44616 0.90431 6.4758 0.975847 6.4758 1.05044L6.4758 12.7462L11.0581 8.16395C11.0842 8.13782 11.1152 8.1171 11.1494 8.10295C11.1835 8.08881 11.2201 8.08153 11.257 8.08153C11.294 8.08153 11.3306 8.08881 11.3647 8.10295C11.3989 8.1171 11.4299 8.13782 11.456 8.16395C11.4822 8.19009 11.5029 8.22111 11.517 8.25525C11.5312 8.28939 11.5385 8.32598 11.5385 8.36294C11.5385 8.39989 11.5312 8.43649 11.517 8.47063C11.5029 8.50477 11.4822 8.53579 11.456 8.56192L6.39353 13.6244C6.36741 13.6506 6.33639 13.6713 6.30225 13.6855C6.26811 13.6996 6.23151 13.7069 6.19455 13.7069C6.15758 13.7069 6.12099 13.6996 6.08684 13.6855C6.0527 13.6713 6.02168 13.6506 5.99556 13.6244L0.933061 8.56192C0.906912 8.5358 0.886167 8.50478 0.872013 8.47064C0.85786 8.4365 0.850574 8.3999 0.850574 8.36294C0.850574 8.32598 0.85786 8.28938 0.872013 8.25524C0.886167 8.22109 0.906912 8.19007 0.933061 8.16395Z" fill="currentColor" stroke="currentColor"/>
</svg>

<svg id="arr-bold-l" viewBox="0 0 42 42" fill="none" xmlns="http://www.w3.org/2000/svg">
  <path d="M18.284 9.17718C18.345 9.23813 18.3934 9.31051 18.4265 9.39017C18.4595 9.46984 18.4765 9.55524 18.4765 9.64148C18.4765 9.72772 18.4595 9.81312 18.4265 9.89279C18.3934 9.97245 18.345 10.0448 18.284 10.1058L7.59207 20.7977H34.8822C35.0563 20.7977 35.2232 20.8669 35.3463 20.9899C35.4693 21.113 35.5385 21.2799 35.5385 21.454C35.5385 21.628 35.4693 21.7949 35.3463 21.918C35.2232 22.0411 35.0563 22.1102 34.8822 22.1102H7.59207L18.284 32.8022C18.345 32.8632 18.3934 32.9355 18.4264 33.0152C18.4594 33.0949 18.4763 33.1803 18.4763 33.2665C18.4763 33.3527 18.4594 33.4381 18.4264 33.5178C18.3934 33.5974 18.345 33.6698 18.284 33.7308C18.2231 33.7918 18.1507 33.8401 18.071 33.8731C17.9913 33.9061 17.906 33.9231 17.8197 33.9231C17.7335 33.9231 17.6481 33.9061 17.5685 33.8731C17.4888 33.8401 17.4164 33.7918 17.3554 33.7308L5.54293 21.9183C5.48192 21.8573 5.43351 21.785 5.40049 21.7053C5.36746 21.6256 5.35046 21.5402 5.35046 21.454C5.35046 21.3677 5.36746 21.2823 5.40049 21.2027C5.43351 21.123 5.48192 21.0506 5.54293 20.9897L17.3554 9.17718C17.4164 9.11617 17.4888 9.06776 17.5684 9.03474C17.6481 9.00171 17.7335 8.98471 17.8197 8.98471C17.906 8.98471 17.9914 9.00171 18.071 9.03474C18.1507 9.06776 18.2231 9.11617 18.284 9.17718Z" fill="currentColor" stroke="currentColor"/>
</svg>

<svg id="delete" viewBox="0 0 16 16" fill="none" xmlns="http://www.w3.org/2000/svg">
  <path d="M12 12.6667C12 13.1971 11.7893 13.7058 11.4142 14.0809C11.0391 14.456 10.5304 14.6667 10 14.6667H5.33334C4.80291 14.6667 4.2942 14.456 3.91912 14.0809C3.54405 13.7058 3.33334 13.1971 3.33334 12.6667V4.66667H2.66667V2.66667H5.66667L6.33334 2H9.00001L9.66667 2.66667H12.6667V4.66667H12V12.6667ZM4.00001 4.66667V12.6667C4.00001 13.0203 4.14048 13.3594 4.39053 13.6095C4.64058 13.8595 4.97972 14 5.33334 14H10C10.3536 14 10.6928 13.8595 10.9428 13.6095C11.1929 13.3594 11.3333 13.0203 11.3333 12.6667V4.66667H4.00001ZM12 4V3.33333H9.33334L8.66667 2.66667H6.66667L6.00001 3.33333H3.33334V4H12ZM5.33334 6H6.00001V12.6667H5.33334V6ZM9.33334 6H10V12.6667H9.33334V6Z" fill="currentColor"/>
</svg>

<svg id="basket-arr" viewBox="0 0 29 28" fill="none" xmlns="http://www.w3.org/2000/svg">
  <path d="M15.9405 22.1845C15.8998 22.1439 15.8675 22.0956 15.8455 22.0425C15.8235 21.9894 15.8122 21.9325 15.8122 21.875C15.8122 21.8175 15.8235 21.7606 15.8455 21.7075C15.8675 21.6544 15.8998 21.6061 15.9405 21.5655L23.0685 14.4375L4.87502 14.4375C4.75899 14.4375 4.64771 14.3914 4.56566 14.3094C4.48362 14.2273 4.43752 14.116 4.43752 14C4.43752 13.884 4.48362 13.7727 4.56566 13.6906C4.64771 13.6086 4.75899 13.5625 4.87502 13.5625H23.0685L15.9405 6.43453C15.8998 6.39388 15.8676 6.34563 15.8456 6.29252C15.8236 6.23941 15.8123 6.18248 15.8123 6.125C15.8123 6.06751 15.8236 6.01059 15.8456 5.95748C15.8676 5.90437 15.8998 5.85612 15.9405 5.81547C15.9811 5.77482 16.0294 5.74258 16.0825 5.72058C16.1356 5.69858 16.1925 5.68726 16.25 5.68726C16.3075 5.68726 16.3644 5.69858 16.4175 5.72058C16.4706 5.74258 16.5189 5.77482 16.5596 5.81547L24.4346 13.6905C24.4752 13.7311 24.5075 13.7794 24.5295 13.8325C24.5515 13.8856 24.5629 13.9425 24.5629 14C24.5629 14.0575 24.5515 14.1144 24.5295 14.1675C24.5075 14.2206 24.4752 14.2689 24.4346 14.3095L16.5596 22.1845C16.5189 22.2252 16.4707 22.2575 16.4176 22.2795C16.3644 22.3015 16.3075 22.3128 16.25 22.3128C16.1925 22.3128 16.1356 22.3015 16.0825 22.2795C16.0294 22.2575 15.9811 22.2252 15.9405 22.1845Z" fill="currentColor"/>
</svg>


</svg>