<svg version="1.1" xmlns="http://www.w3.org/2000/svg" xmlns:xlink="http://www.w3.org/1999/xlink">


<svg id="search"  viewBox="0 0 24 24" fill="none" xmlns="http://www.w3.org/2000/svg">
  <path d="M22.8712 22.2492L17.08 16.4581C18.7031 14.6726 19.5635 12.3231 19.4774 9.91174C19.3913 7.50033 18.3654 5.21825 16.6191 3.55313C14.8727 1.88801 12.5444 0.971938 10.1317 1.00066C7.71888 1.02937 5.41302 2.00061 3.70681 3.70681C2.00061 5.41302 1.02937 7.71888 1.00066 10.1317C0.971938 12.5444 1.88801 14.8727 3.55313 16.6191C5.21825 18.3654 7.50033 19.3913 9.91174 19.4774C12.3231 19.5635 14.6726 18.7031 16.4581 17.08L22.2492 22.8712C22.3317 22.9537 22.4436 23 22.5602 23C22.6768 23 22.7887 22.9537 22.8712 22.8712C22.9537 22.7887 23 22.6768 23 22.5602C23 22.4436 22.9537 22.3317 22.8712 22.2492ZM1.90112 10.2527C1.90112 8.60088 2.39093 6.9862 3.30861 5.6128C4.22629 4.23939 5.53062 3.16895 7.05667 2.53684C8.58271 1.90474 10.2619 1.73935 11.882 2.06159C13.502 2.38384 14.9901 3.17925 16.1581 4.34723C17.3261 5.51522 18.1215 7.00332 18.4437 8.62336C18.766 10.2434 18.6006 11.9226 17.9685 13.4487C17.3364 14.9747 16.2659 16.279 14.8925 17.1967C13.5191 18.1144 11.9044 18.6042 10.2527 18.6042C8.03841 18.6019 5.91552 17.7212 4.3498 16.1555C2.78409 14.5898 1.90345 12.4669 1.90112 10.2527Z" fill="currentColor" stroke="currentColor" stroke-width="0.5"/>
</svg>

<svg id="cart"  viewBox="0 0 24 26" fill="none" xmlns="http://www.w3.org/2000/svg">
  <path d="M8.28502 23.1189C7.96943 23.1189 7.71359 22.8524 7.71359 22.5237C7.71359 22.195 7.96943 21.9285 8.28502 21.9285C8.60061 21.9285 8.85645 22.195 8.85645 22.5237C8.85645 22.8524 8.60061 23.1189 8.28502 23.1189Z" stroke="currentColor" stroke-width="1.5" stroke-linecap="round" stroke-linejoin="round"/>
  <path d="M21.1427 23.1189C21.4583 23.1189 21.7141 22.8524 21.7141 22.5237C21.7141 22.195 21.4583 21.9285 21.1427 21.9285C20.8271 21.9285 20.5713 22.195 20.5713 22.5237C20.5713 22.8524 20.8271 23.1189 21.1427 23.1189Z" stroke="currentColor" stroke-width="1.5" stroke-linecap="round" stroke-linejoin="round"/>
  <path d="M1.14258 2.28564H4.72022L7.40345 18.9523H21.714" stroke="currentColor" stroke-width="1.5" stroke-linecap="round" stroke-linejoin="round"/>
  <path d="M7.4376 15.381H20.8741C20.9738 15.3811 21.0704 15.343 21.1475 15.2732C21.2246 15.2034 21.2774 15.1062 21.297 14.9982L22.8483 6.42682C22.8609 6.3577 22.8593 6.28638 22.8439 6.21799C22.8284 6.14961 22.7994 6.08586 22.759 6.03137C22.7185 5.97687 22.6676 5.93297 22.6099 5.90285C22.5523 5.87273 22.4893 5.85713 22.4255 5.85718H5.71387" stroke="currentColor" stroke-width="1.5" stroke-linecap="round" stroke-linejoin="round"/>
</svg>

<svg id="heart" viewBox="0 0 24 26" fill="none" xmlns="http://www.w3.org/2000/svg">
  <g clip-path="url(#clip0_21_189)">
    <path d="M17.3571 1.09521C15.1446 1.09521 13.2075 2.19666 12 4.05846C10.7925 2.19666 8.85536 1.09521 6.64286 1.09521C4.88167 1.09751 3.19319 1.90848 1.94784 3.35019C0.702493 4.79191 0.00198508 6.74663 0 8.78552C0 17.4681 11.1204 24.4961 11.5939 24.7863C11.7187 24.864 11.8583 24.9047 12 24.9047C12.1417 24.9047 12.2813 24.864 12.4061 24.7863C12.8796 24.4961 24 17.4681 24 8.78552C23.998 6.74663 23.2975 4.79191 22.0522 3.35019C20.8068 1.90848 19.1183 1.09751 17.3571 1.09521ZM12 22.7769C10.0436 21.4572 1.71429 15.4451 1.71429 8.78552C1.71599 7.27288 2.23579 5.82275 3.15971 4.75315C4.08363 3.68355 5.33624 3.08178 6.64286 3.07981C8.72679 3.07981 10.4764 4.36483 11.2071 6.42881C11.2717 6.61081 11.3816 6.76648 11.5228 6.87603C11.6639 6.98558 11.83 7.04407 12 7.04407C12.17 7.04407 12.3361 6.98558 12.4773 6.87603C12.6184 6.76648 12.7283 6.61081 12.7929 6.42881C13.5236 4.36111 15.2732 3.07981 17.3571 3.07981C18.6638 3.08178 19.9164 3.68355 20.8403 4.75315C21.7642 5.82275 22.284 7.27288 22.2857 8.78552C22.2857 15.4352 13.9543 21.4559 12 22.7769Z" fill="currentColor" stroke="currentColor" stroke-width="0"/>
  </g>
  <defs>
    <clipPath id="clip0_21_189">
      <rect width="24" height="25" fill="currentColor" transform="translate(0 0.5)"/>
    </clipPath>
  </defs>
</svg>

<svg id="person" width="24" height="24" viewBox="0 0 24 24" fill="none" xmlns="http://www.w3.org/2000/svg">
  <path d="M7.28565 8.57781C7.28582 7.76516 7.49606 6.96636 7.89595 6.25892C8.29585 5.55148 8.87183 4.95942 9.568 4.5402C10.2642 4.12099 11.0569 3.88885 11.8692 3.86632C12.6815 3.84378 13.4859 4.03162 14.2042 4.41159C14.9226 4.79157 15.5305 5.35078 15.969 6.03497C16.4075 6.71915 16.6617 7.50507 16.7069 8.31646C16.7521 9.12784 16.5869 9.93714 16.2271 10.6658C15.8673 11.3945 15.3253 12.0178 14.6537 12.4752C16.1001 13.0057 17.3547 13.957 18.2559 15.2065C19.1572 16.4561 19.6639 17.9467 19.7108 19.4867C19.7088 19.6527 19.6427 19.8115 19.5264 19.93C19.41 20.0485 19.2524 20.1174 19.0864 20.1224C18.9205 20.1273 18.759 20.068 18.6357 19.9567C18.5125 19.8454 18.437 19.6908 18.4251 19.5252C18.374 17.8551 17.6747 16.2704 16.4752 15.107C15.2758 13.9437 13.6705 13.293 11.9995 13.293C10.3285 13.293 8.72325 13.9437 7.52379 15.107C6.32433 16.2704 5.62498 17.8551 5.57394 19.5252C5.56536 19.6931 5.49138 19.8509 5.36785 19.9649C5.24432 20.0789 5.08106 20.1399 4.91306 20.135C4.74505 20.1301 4.58566 20.0595 4.46903 19.9385C4.3524 19.8175 4.2878 19.6556 4.28908 19.4875C4.33584 17.9474 4.84246 16.4566 5.74373 15.2069C6.64499 13.9572 7.89966 13.0058 9.34622 12.4752C8.71094 12.0429 8.19105 11.4618 7.83189 10.7824C7.47272 10.1031 7.2852 9.34623 7.28565 8.57781ZM11.9999 5.14923C11.0906 5.14923 10.2186 5.51046 9.57557 6.15344C8.93259 6.79642 8.57137 7.66849 8.57137 8.57781C8.57137 9.48712 8.93259 10.3592 9.57557 11.0022C10.2186 11.6452 11.0906 12.0064 11.9999 12.0064C12.9093 12.0064 13.7813 11.6452 14.4243 11.0022C15.0673 10.3592 15.4285 9.48712 15.4285 8.57781C15.4285 7.66849 15.0673 6.79642 14.4243 6.15344C13.7813 5.51046 12.9093 5.14923 11.9999 5.14923Z" fill="currentColor" stroke="currentColor" stroke-width="0.171429"/>
  <rect x="0.642857" y="0.642857" width="22.7143" height="22.7143" rx="11.3571" stroke="currentColor" stroke-width="1.28571"/>
</svg>

<svg id="arr-l" viewBox="0 0 32 32" fill="none" xmlns="http://www.w3.org/2000/svg">
  <g clip-path="url(#clip0_39_541)">
    <path d="M22.1459 24.854C22.0994 24.8076 22.0625 24.7524 22.0373 24.6917C22.0122 24.6311 21.9992 24.566 21.9992 24.5003C21.9992 24.4346 22.0122 24.3695 22.0373 24.3088C22.0625 24.2481 22.0994 24.193 22.1459 24.1465L30.2921 16.0003H9.49961C9.367 16.0003 9.23982 15.9476 9.14605 15.8538C9.05228 15.7601 8.99961 15.6329 8.99961 15.5003C8.99961 15.3677 9.05228 15.2405 9.14605 15.1467C9.23982 15.053 9.367 15.0003 9.49961 15.0003L30.2921 15.0003L22.1459 6.85403C22.0994 6.80757 22.0626 6.75242 22.0374 6.69173C22.0123 6.63103 21.9993 6.56598 21.9993 6.50028C21.9993 6.43458 22.0123 6.36953 22.0374 6.30883C22.0626 6.24813 22.0994 6.19298 22.1459 6.14653C22.1923 6.10007 22.2475 6.06322 22.3082 6.03808C22.3689 6.01294 22.4339 6 22.4996 6C22.5653 6 22.6304 6.01294 22.6911 6.03808C22.7518 6.06322 22.8069 6.10007 22.8534 6.14653L31.8534 15.1465C31.8998 15.193 31.9367 15.2481 31.9619 15.3088C31.987 15.3695 32 15.4346 32 15.5003C32 15.566 31.987 15.6311 31.9619 15.6917C31.9367 15.7524 31.8998 15.8076 31.8534 15.854L22.8534 24.854C22.8069 24.9005 22.7518 24.9374 22.6911 24.9626C22.6304 24.9877 22.5653 25.0007 22.4996 25.0007C22.4339 25.0007 22.3688 24.9877 22.3081 24.9626C22.2474 24.9374 22.1923 24.9005 22.1459 24.854Z" fill="currentColor"/>
  </g>
  <defs>
    <clipPath id="clip0_39_541">
      <rect width="32" height="32" fill="currentColor" transform="matrix(0 1 -1 0 32 0)"/>
    </clipPath>
  </defs>
</svg>



<svg id="tel-w2"  viewBox="0 0 24 24" fill="none" xmlns="http://www.w3.org/2000/svg">
    <path fill-rule="evenodd" clip-rule="evenodd" d="M3.28669 9.6422C5.67436 14.8401 9.9167 18.9593 15.1827 21.1929L15.1987 21.1995L16.2174 21.6529C16.8466 21.9335 17.5532 21.9889 18.2184 21.81C18.8837 21.631 19.4671 21.2286 19.8707 20.6702L21.5694 18.3195C21.6193 18.2503 21.6408 18.1646 21.6294 18.08C21.6179 17.9954 21.5745 17.9184 21.508 17.8649L18.5427 15.4715C18.5077 15.4433 18.4674 15.4224 18.4241 15.4102C18.3808 15.398 18.3355 15.3946 18.2909 15.4004C18.2463 15.4061 18.2034 15.4208 18.1646 15.4436C18.1258 15.4663 18.0921 15.4967 18.0654 15.5329L16.9107 17.0902C16.7747 17.2739 16.5798 17.4055 16.3585 17.463C16.1372 17.5205 15.903 17.5005 15.6947 17.4062C11.7494 15.6189 8.58861 12.4581 6.80135 8.51286C6.7071 8.30459 6.68705 8.0703 6.74454 7.84904C6.80204 7.62778 6.93362 7.4329 7.11735 7.29686L8.67335 6.14086C8.70951 6.11414 8.73989 6.08038 8.76266 6.04161C8.78543 6.00284 8.80012 5.95987 8.80585 5.91528C8.81158 5.87069 8.80823 5.8254 8.796 5.78213C8.78377 5.73887 8.76291 5.69852 8.73469 5.66353L6.34269 2.6982C6.28917 2.6317 6.21217 2.58828 6.12758 2.57686C6.04299 2.56545 5.95725 2.58693 5.88802 2.63686L3.52402 4.34353C2.96189 4.74901 2.55749 5.33662 2.37957 6.00651C2.20165 6.6764 2.26117 7.38723 2.54802 8.0182L3.28669 9.64086V9.6422ZM14.3934 23.0302C8.67216 20.6009 4.06349 16.1239 1.46935 10.4755L1.46669 10.4729L0.72802 8.8462C0.249913 7.79478 0.150565 6.61026 0.446854 5.49389C0.743143 4.37752 1.41679 3.39816 2.35335 2.7222L4.71735 1.01553C5.20153 0.66609 5.80124 0.515562 6.39304 0.594932C6.98484 0.674302 7.5237 0.97753 7.89869 1.4422L10.292 4.40886C10.4895 4.65363 10.6355 4.93579 10.7212 5.23841C10.8069 5.54102 10.8305 5.85784 10.7907 6.16981C10.7508 6.48179 10.6483 6.78249 10.4893 7.05385C10.3303 7.3252 10.118 7.56161 9.86535 7.74886L8.97202 8.4102C10.4824 11.3386 12.8676 13.7238 15.796 15.2342L16.4587 14.3409C16.6459 14.0884 16.8823 13.8763 17.1535 13.7174C17.4248 13.5585 17.7253 13.4561 18.0371 13.4162C18.3489 13.3764 18.6656 13.4 18.9681 13.4855C19.2706 13.5711 19.5526 13.7169 19.7974 13.9142L22.764 16.3075C23.2291 16.6826 23.5325 17.2217 23.6119 17.8138C23.6913 18.4059 23.5405 19.0059 23.1907 19.4902L21.492 21.8422C20.8196 22.7728 19.8475 23.4436 18.7388 23.742C17.6302 24.0404 16.4527 23.9482 15.404 23.4809L14.3934 23.0302Z" fill="currentColor"/>
</svg>

<svg id="mail-w2" width="24" height="24" viewBox="0 0 24 24" fill="none" xmlns="http://www.w3.org/2000/svg">
<path d="M19.4836 5H4.51636C3.84898 5 3.20893 5.24895 2.73702 5.69209C2.26512 6.13523 2 6.73626 2 7.36295V17.6371C2 18.2637 2.26512 18.8648 2.73702 19.3079C3.20893 19.751 3.84898 20 4.51636 20H19.4836C20.151 20 20.7911 19.751 21.263 19.3079C21.7349 18.8648 22 18.2637 22 17.6371V7.36295C22 6.73626 21.7349 6.13523 21.263 5.69209C20.7911 5.24895 20.151 5 19.4836 5ZM4.51636 5.94518H19.4836C19.8646 5.94415 20.2317 6.0794 20.5103 6.32345C20.7889 6.56749 20.9581 6.90201 20.9834 7.25898C18.4972 8.50662 16.001 9.7448 13.5048 10.9924C13.1671 11.1912 12.8098 11.3589 12.4378 11.4934C12.1459 11.5475 11.8449 11.5426 11.5551 11.4791C11.2653 11.4155 10.9932 11.2947 10.7569 11.1248C9.32763 10.4159 7.89834 9.69754 6.47911 8.98866C5.33166 8.42155 4.16407 7.84499 3.01661 7.26843C3.03995 6.90994 3.20818 6.57334 3.48692 6.32741C3.76566 6.08147 4.13388 5.94475 4.51636 5.94518ZM20.9935 17.6371C20.9935 18.0131 20.8344 18.3737 20.5512 18.6396C20.2681 18.9054 19.8841 19.0548 19.4836 19.0548H4.51636C4.11593 19.0548 3.7319 18.9054 3.44876 18.6396C3.16561 18.3737 3.00654 18.0131 3.00654 17.6371V8.34121C5.38198 9.51323 7.74736 10.7042 10.1228 11.8856C10.5472 12.13 11.0041 12.3207 11.4816 12.4527C12.1806 12.5594 12.8969 12.4216 13.4947 12.0652C14.9542 11.3469 16.4036 10.6191 17.8631 9.90076C18.9099 9.37146 19.9467 8.86106 20.9935 8.34121V17.6371Z" fill="currentColor"/>
</svg>


<svg id="mapdot-w2" viewBox="0 0 24 24" fill="none" xmlns="http://www.w3.org/2000/svg">
  <path d="M12.3571 3C14.5736 3 16.6993 3.88048 18.2665 5.44775C19.8338 7.01502 20.7143 9.14069 20.7143 11.3571C20.7143 14.8886 18.2329 18.7371 13.3343 22.944C13.0619 23.178 12.7146 23.3065 12.3555 23.3062C11.9965 23.3059 11.6494 23.1768 11.3774 22.9423L11.0534 22.6611C6.37171 18.564 4 14.8097 4 11.3571C4 9.14069 4.88048 7.01502 6.44775 5.44775C8.01502 3.88048 10.1407 3 12.3571 3ZM12.3571 4.28571C10.4817 4.28571 8.68304 5.03074 7.35689 6.35689C6.03074 7.68304 5.28571 9.48168 5.28571 11.3571C5.28571 14.3589 7.46971 17.8174 11.8977 21.6917L12.2174 21.9686C12.2563 22.002 12.3059 22.0204 12.3571 22.0204C12.4084 22.0204 12.458 22.002 12.4969 21.9686C17.1391 17.9811 19.4286 14.43 19.4286 11.3571C19.4286 10.4285 19.2457 9.50897 18.8903 8.65102C18.5349 7.79308 18.014 7.01353 17.3574 6.35689C16.7008 5.70024 15.9212 5.17937 15.0633 4.82399C14.2053 4.46862 13.2858 4.28571 12.3571 4.28571ZM12.3571 8.14286C13.2096 8.14286 14.0272 8.4815 14.63 9.0843C15.2328 9.6871 15.5714 10.5047 15.5714 11.3571C15.5714 12.2096 15.2328 13.0272 14.63 13.63C14.0272 14.2328 13.2096 14.5714 12.3571 14.5714C11.5047 14.5714 10.6871 14.2328 10.0843 13.63C9.4815 13.0272 9.14286 12.2096 9.14286 11.3571C9.14286 10.5047 9.4815 9.6871 10.0843 9.0843C10.6871 8.4815 11.5047 8.14286 12.3571 8.14286ZM12.3571 9.42857C11.8457 9.42857 11.3551 9.63176 10.9934 9.99344C10.6318 10.3551 10.4286 10.8457 10.4286 11.3571C10.4286 11.8686 10.6318 12.3592 10.9934 12.7208C11.3551 13.0825 11.8457 13.2857 12.3571 13.2857C12.8686 13.2857 13.3592 13.0825 13.7208 12.7208C14.0825 12.3592 14.2857 11.8686 14.2857 11.3571C14.2857 10.8457 14.0825 10.3551 13.7208 9.99344C13.3592 9.63176 12.8686 9.42857 12.3571 9.42857Z" fill="white"/>
</svg>


<svg id="tel-w" width="24" height="24" viewBox="0 0 24 24" fill="none" xmlns="http://www.w3.org/2000/svg">
  <mask id="path-1-inside-1_606_5724" fill="white">
    <path d="M20.7046 18.2104L21.2199 18.728L20.7036 18.2104H20.7046ZM8.42294 16.1126L8.93735 15.5949L8.42196 16.1126H8.42294ZM4.40311 5.80657L3.8887 5.28991L4.40409 5.80755L4.40311 5.80657ZM16.0339 15.2991L16.4792 14.8584L15.4474 13.8231L15.0051 14.2639L16.0339 15.2991ZM17.9688 14.6735L19.8306 15.6845L20.5272 14.402L18.6664 13.3921L17.9688 14.6735ZM20.1882 17.6927L18.8047 19.0676L19.8345 20.1019L21.218 18.728L20.1882 17.6927ZM17.961 19.5093C16.5483 19.6416 12.8948 19.5239 8.93735 15.5949L7.90658 16.6292C12.2245 20.9172 16.335 21.1274 18.0974 20.963L17.96 19.5093H17.961ZM8.93735 15.5949C5.16596 11.8489 4.54048 8.6993 4.46254 7.33224L3.00309 7.41494C3.10052 9.1352 3.87506 12.6263 7.90658 16.6292L8.93735 15.5949ZM10.277 9.58181L10.5566 9.30353L9.52776 8.26923L9.24814 8.54654L10.2779 9.58084L10.277 9.58181ZM10.7787 5.76668L9.55114 4.12815L8.38105 5.00385L9.60862 6.64141L10.7787 5.76668ZM5.41927 3.77106L3.88967 5.28894L4.92045 6.32421L6.44907 4.80633L5.41927 3.77106ZM9.76256 9.06417C9.2462 8.54654 9.2462 8.54654 9.2462 8.54848H9.24425L9.24132 8.55238C9.19532 8.59926 9.15389 8.65041 9.11759 8.70514C9.06498 8.78298 9.0075 8.88514 8.95879 9.01455C8.84015 9.3486 8.8106 9.70773 8.87305 10.0566C9.0036 10.8983 9.58427 12.0104 11.071 13.4874L12.1018 12.4522C10.7095 11.0705 10.3783 10.2298 10.3169 9.83284C10.2877 9.64408 10.3179 9.55067 10.3267 9.52927C10.3315 9.51564 10.3335 9.51467 10.3267 9.52343C10.3181 9.53692 10.3083 9.54962 10.2974 9.56138L10.2877 9.57111C10.2845 9.57413 10.2813 9.57705 10.2779 9.57986L9.76158 9.06417H9.76256ZM11.071 13.4874C12.5587 14.9644 13.6781 15.5405 14.5219 15.6689C14.9535 15.7351 15.3013 15.6825 15.5653 15.5842C15.7129 15.5297 15.851 15.4522 15.9745 15.3546C15.9913 15.3406 16.0075 15.326 16.0232 15.3108L16.03 15.305L16.0329 15.3021L16.0339 15.3001C16.0339 15.3001 16.0349 15.2991 15.5195 14.7815C15.0031 14.2639 15.0061 14.2629 15.0061 14.2629L15.008 14.261L15.01 14.259L15.0158 14.2541L15.0256 14.2444C15.0373 14.2339 15.0496 14.2242 15.0626 14.2152C15.0723 14.2084 15.0694 14.2113 15.0558 14.2172C15.0314 14.2259 14.9359 14.2561 14.744 14.2269C14.3406 14.1646 13.493 13.8338 12.1018 12.4522L11.071 13.4874ZM9.55114 4.12718C8.55739 2.8039 6.60496 2.59373 5.41927 3.77106L6.44907 4.80633C6.96738 4.29162 7.88709 4.34513 8.38105 5.00385L9.55017 4.12718H9.55114ZM4.46352 7.33321C4.44403 6.99655 4.59894 6.64433 4.92045 6.32518L3.8887 5.28991C3.36552 5.80949 2.9534 6.54508 3.00309 7.41494L4.46352 7.33321ZM18.8047 19.0676C18.5378 19.3342 18.2494 19.484 17.962 19.5103L18.0974 20.963C18.8135 20.8958 19.399 20.5358 19.8355 20.1028L18.8047 19.0676ZM10.5566 9.30353C11.5162 8.35097 11.5874 6.84574 10.7797 5.76765L9.6096 6.64238C10.0022 7.16683 9.94377 7.85474 9.52678 8.27021L10.5566 9.30353ZM19.8316 15.6854C20.6276 16.1174 20.7513 17.1352 20.1892 17.6937L21.2199 18.728C22.5255 17.431 22.1231 15.268 20.5282 14.403L19.8316 15.6854ZM16.4792 14.8594C16.8533 14.4877 17.4554 14.3962 17.9698 14.6745L18.6674 13.393C17.6113 12.819 16.3018 12.9776 15.4484 13.8241L16.4792 14.8594Z"/>
  </mask>
  <path d="M20.7046 18.2104L21.2199 18.728L20.7036 18.2104H20.7046ZM8.42294 16.1126L8.93735 15.5949L8.42196 16.1126H8.42294ZM4.40311 5.80657L3.8887 5.28991L4.40409 5.80755L4.40311 5.80657ZM16.0339 15.2991L16.4792 14.8584L15.4474 13.8231L15.0051 14.2639L16.0339 15.2991ZM17.9688 14.6735L19.8306 15.6845L20.5272 14.402L18.6664 13.3921L17.9688 14.6735ZM20.1882 17.6927L18.8047 19.0676L19.8345 20.1019L21.218 18.728L20.1882 17.6927ZM17.961 19.5093C16.5483 19.6416 12.8948 19.5239 8.93735 15.5949L7.90658 16.6292C12.2245 20.9172 16.335 21.1274 18.0974 20.963L17.96 19.5093H17.961ZM8.93735 15.5949C5.16596 11.8489 4.54048 8.6993 4.46254 7.33224L3.00309 7.41494C3.10052 9.1352 3.87506 12.6263 7.90658 16.6292L8.93735 15.5949ZM10.277 9.58181L10.5566 9.30353L9.52776 8.26923L9.24814 8.54654L10.2779 9.58084L10.277 9.58181ZM10.7787 5.76668L9.55114 4.12815L8.38105 5.00385L9.60862 6.64141L10.7787 5.76668ZM5.41927 3.77106L3.88967 5.28894L4.92045 6.32421L6.44907 4.80633L5.41927 3.77106ZM9.76256 9.06417C9.2462 8.54654 9.2462 8.54654 9.2462 8.54848H9.24425L9.24132 8.55238C9.19532 8.59926 9.15389 8.65041 9.11759 8.70514C9.06498 8.78298 9.0075 8.88514 8.95879 9.01455C8.84015 9.3486 8.8106 9.70773 8.87305 10.0566C9.0036 10.8983 9.58427 12.0104 11.071 13.4874L12.1018 12.4522C10.7095 11.0705 10.3783 10.2298 10.3169 9.83284C10.2877 9.64408 10.3179 9.55067 10.3267 9.52927C10.3315 9.51564 10.3335 9.51467 10.3267 9.52343C10.3181 9.53692 10.3083 9.54962 10.2974 9.56138L10.2877 9.57111C10.2845 9.57413 10.2813 9.57705 10.2779 9.57986L9.76158 9.06417H9.76256ZM11.071 13.4874C12.5587 14.9644 13.6781 15.5405 14.5219 15.6689C14.9535 15.7351 15.3013 15.6825 15.5653 15.5842C15.7129 15.5297 15.851 15.4522 15.9745 15.3546C15.9913 15.3406 16.0075 15.326 16.0232 15.3108L16.03 15.305L16.0329 15.3021L16.0339 15.3001C16.0339 15.3001 16.0349 15.2991 15.5195 14.7815C15.0031 14.2639 15.0061 14.2629 15.0061 14.2629L15.008 14.261L15.01 14.259L15.0158 14.2541L15.0256 14.2444C15.0373 14.2339 15.0496 14.2242 15.0626 14.2152C15.0723 14.2084 15.0694 14.2113 15.0558 14.2172C15.0314 14.2259 14.9359 14.2561 14.744 14.2269C14.3406 14.1646 13.493 13.8338 12.1018 12.4522L11.071 13.4874ZM9.55114 4.12718C8.55739 2.8039 6.60496 2.59373 5.41927 3.77106L6.44907 4.80633C6.96738 4.29162 7.88709 4.34513 8.38105 5.00385L9.55017 4.12718H9.55114ZM4.46352 7.33321C4.44403 6.99655 4.59894 6.64433 4.92045 6.32518L3.8887 5.28991C3.36552 5.80949 2.9534 6.54508 3.00309 7.41494L4.46352 7.33321ZM18.8047 19.0676C18.5378 19.3342 18.2494 19.484 17.962 19.5103L18.0974 20.963C18.8135 20.8958 19.399 20.5358 19.8355 20.1028L18.8047 19.0676ZM10.5566 9.30353C11.5162 8.35097 11.5874 6.84574 10.7797 5.76765L9.6096 6.64238C10.0022 7.16683 9.94377 7.85474 9.52678 8.27021L10.5566 9.30353ZM19.8316 15.6854C20.6276 16.1174 20.7513 17.1352 20.1892 17.6937L21.2199 18.728C22.5255 17.431 22.1231 15.268 20.5282 14.403L19.8316 15.6854ZM16.4792 14.8594C16.8533 14.4877 17.4554 14.3962 17.9698 14.6745L18.6674 13.393C17.6113 12.819 16.3018 12.9776 15.4484 13.8241L16.4792 14.8594Z" fill="white"/>
  <path d="M6.44907 4.80633L6.09508 5.15945L6.80356 4.45372L6.44907 4.80633ZM15.8742 14.4291L15.3597 13.9114L14.6504 14.6163L15.1648 15.134L15.8742 14.4291ZM15.6094 14.6935L16.1248 15.2112L16.8335 14.5056L16.3181 13.988L15.6094 14.6935ZM17.8792 13.7937L17.5304 14.4358L18.4092 14.9131L18.7579 14.2709L17.8792 13.7937ZM19.7402 14.8043L19.3914 15.4455L20.2699 15.9234L20.6186 15.2822L19.7402 14.8043ZM19.6748 19.2308L19.1584 18.7141L18.4511 19.421L18.9674 19.9377L19.6748 19.2308ZM17.5314 20.2829L17.5996 21.0097L18.5952 20.9163L18.527 20.1894L17.5314 20.2829ZM3.70486 6.87486L2.97513 6.91572L3.03105 7.91416L3.76077 7.87329L3.70486 6.87486ZM9.68623 9.13901L10.2026 9.65665L10.9106 8.95041L10.3942 8.43278L9.68623 9.13901ZM10.4925 6.60407L11.0771 6.16719L10.4784 5.36617L9.89386 5.80305L10.4925 6.60407ZM8.66715 4.16557L8.08162 4.60342L8.68048 5.40428L9.26601 4.96643L8.66715 4.16557ZM5.57872 4.64181L6.09508 5.15945L6.80306 4.45321L6.2867 3.93558L5.57872 4.64181ZM11.9397 13.3226L12.4551 12.8049L11.7465 12.0994L11.2311 12.617L11.9397 13.3226ZM8.5832 15.242L7.55242 16.2763L8.26073 16.9822L9.29151 15.9479L8.5832 15.242ZM6.80356 4.45372L5.77376 3.41845L5.06478 4.12368L6.09458 5.15895L6.80356 4.45372ZM11.4253 13.8402L12.4561 12.8049L11.7475 12.0994L10.7167 13.1346L11.4253 13.8402ZM15.5195 14.7815L16.2281 14.0759L16.2275 14.0753L15.5195 14.7815ZM15.0051 14.2639L14.2992 13.5555L13.5918 14.2604L14.2958 14.9688L15.0051 14.2639ZM16.4792 14.8584L17.1827 15.569L17.8957 14.8632L17.1875 14.1525L16.4792 14.8584ZM17.9698 14.6745L17.494 15.554L18.3712 16.0286L18.8481 15.1526L17.9698 14.6745ZM19.8306 15.6845L19.3535 16.5633L20.2321 17.0404L20.7094 16.1618L19.8306 15.6845ZM20.7046 18.2104L21.4132 17.5048L21.12 17.2104H20.7046V18.2104ZM21.2199 18.728L20.512 19.4342L21.2168 20.1408L21.9247 19.4374L21.2199 18.728ZM20.7036 18.2104V17.2104H18.2936L19.9956 18.9166L20.7036 18.2104ZM18.8047 19.0676L18.0998 18.3583L18.0981 18.36L18.8047 19.0676ZM18.0974 20.963L18.1903 21.9586L18.1908 21.9586L18.0974 20.963ZM8.42294 16.1126V17.1126H8.83898L9.13225 16.8175L8.42294 16.1126ZM8.42196 16.1126L7.71332 15.407L6.01516 17.1126H8.42196V16.1126ZM6.44907 4.80633L7.15368 5.51593L7.15372 5.5159L6.44907 4.80633ZM4.40311 5.80657L3.69446 6.51214L3.69652 6.5142L4.40311 5.80657ZM3.8887 5.28991L4.59701 4.58401L3.89234 3.87694L3.18404 4.58037L3.8887 5.28991ZM4.40409 5.80755L3.6975 6.51517L5.11273 5.10198L4.40409 5.80755ZM16.0339 15.2991L15.3246 16.004L16.0281 16.712L16.7374 16.0098L16.0339 15.2991ZM15.4474 13.8231L16.1557 13.1172L15.4499 12.4089L14.7415 13.1148L15.4474 13.8231ZM17.9688 14.6735L17.0905 14.1954L16.6119 15.0746L17.4916 15.5523L17.9688 14.6735ZM20.5272 14.402L21.406 14.8794L21.8835 14.0003L21.0043 13.5231L20.5272 14.402ZM18.6664 13.3921L19.1434 12.5132L18.2656 12.0368L17.7881 12.914L18.6664 13.3921ZM20.1882 17.6927L20.8972 16.9875L20.1923 16.2788L19.4833 16.9834L20.1882 17.6927ZM19.8345 20.1019L19.1259 20.8074L19.8305 21.5152L20.5392 20.8114L19.8345 20.1019ZM21.218 18.728L21.9226 19.4376L22.6328 18.7323L21.927 18.0228L21.218 18.728ZM17.961 19.5093L18.0543 20.505L17.961 18.5093V19.5093ZM7.90658 16.6292L8.61122 15.9197L8.61116 15.9196L7.90658 16.6292ZM17.96 19.5093V18.5093H16.8611L16.9645 19.6034L17.96 19.5093ZM4.46254 7.33224L5.46092 7.27531L5.40402 6.27728L4.40596 6.33384L4.46254 7.33224ZM10.277 9.58181L9.57038 8.87418L10.9824 10.2906L10.277 9.58181ZM9.52776 8.26923L10.2367 7.564L9.53256 6.85608L8.82359 7.5592L9.52776 8.26923ZM9.24814 8.54654L8.54398 7.83651L7.83254 8.54206L8.5395 9.2521L9.24814 8.54654ZM10.2779 9.58084L10.9845 10.2885L11.6911 9.58289L10.9866 8.87527L10.2779 9.58084ZM10.7787 5.76668L11.3775 6.56762L12.1792 5.96824L11.579 5.16709L10.7787 5.76668ZM9.55114 4.12815L10.3515 3.52856L9.75217 2.72866L8.95196 3.32754L9.55114 4.12815ZM9.60862 6.64141L8.80848 7.24122L9.4075 8.0403L10.2074 7.44234L9.60862 6.64141ZM5.41927 3.77106L6.12365 4.48088L6.12387 4.48066L5.41927 3.77106ZM3.88967 5.28894L3.18529 4.57912L2.47428 5.28468L3.18103 5.99451L3.88967 5.28894ZM4.92045 6.32421L4.2118 7.02978L4.91642 7.73746L5.62506 7.03381L4.92045 6.32421ZM9.76256 9.06417V10.0642H12.1726L10.4705 8.35794L9.76256 9.06417ZM9.2462 8.54848V9.54848H10.2462V8.54848H9.2462ZM9.24425 8.54848V7.54848H8.74466L8.44465 7.94795L9.24425 8.54848ZM9.24132 8.55238L9.95515 9.25269L10.0013 9.20563L10.0409 9.15291L9.24132 8.55238ZM9.11759 8.70514L9.94613 9.26513L9.95091 9.25793L9.11759 8.70514ZM8.95879 9.01455L8.0229 8.66225L8.01959 8.67104L8.01645 8.67988L8.95879 9.01455ZM8.87305 10.0566L9.86123 9.90335L9.85945 9.89188L9.85741 9.88045L8.87305 10.0566ZM11.071 13.4874L10.3662 14.1968L10.3664 14.1971L11.071 13.4874ZM12.1018 12.4522L12.8064 11.7426L12.8062 11.7424L12.1018 12.4522ZM10.3169 9.83284L11.3052 9.68004L11.3051 9.67982L10.3169 9.83284ZM10.3267 9.52927L11.252 9.90832L11.2606 9.88734L11.2683 9.86599L10.3267 9.52927ZM10.3267 9.52343L9.53769 8.90899L9.5086 8.94635L9.48316 8.9863L10.3267 9.52343ZM10.2974 9.56138L11.0041 10.269L11.0184 10.2547L11.0321 10.2398L10.2974 9.56138ZM10.2877 9.57111L10.9804 10.2923L10.9874 10.2856L10.9943 10.2787L10.2877 9.57111ZM10.2779 9.57986L9.5713 10.2874L10.2198 10.9351L10.9214 10.3453L10.2779 9.57986ZM9.76158 9.06417V8.06417H7.34514L9.05494 9.77174L9.76158 9.06417ZM14.5219 15.6689L14.6734 14.6804L14.6723 14.6803L14.5219 15.6689ZM15.5653 15.5842L15.2186 14.6463L15.2165 14.647L15.5653 15.5842ZM15.9745 15.3546L16.5945 16.1392L16.6051 16.1308L16.6154 16.1222L15.9745 15.3546ZM16.0232 15.3108L15.3729 14.5511L15.3499 14.5709L15.3281 14.5919L16.0232 15.3108ZM16.03 15.305L16.6803 16.0647L16.7095 16.0397L16.7367 16.0126L16.03 15.305ZM16.0329 15.3021L16.7396 16.0096L16.8545 15.8949L16.9272 15.7496L16.0329 15.3021ZM16.0339 15.3001L15.3274 14.5924L15.2124 14.7072L15.1397 14.8526L16.0339 15.3001ZM15.0061 14.2629L15.3223 15.2116L15.5458 15.1371L15.7125 14.9707L15.0061 14.2629ZM15.008 14.261L15.7144 14.9688L15.7148 14.9684L15.008 14.261ZM15.01 14.259L14.3703 13.4903L14.3354 13.5194L14.3032 13.5516L15.01 14.259ZM15.0158 14.2541L15.6554 15.0228L15.6903 14.9938L15.7225 14.9617L15.0158 14.2541ZM15.0256 14.2444L14.358 13.4998L14.338 13.5178L14.3189 13.5369L15.0256 14.2444ZM15.0626 14.2152L15.6309 15.0381L15.6355 15.0348L15.0626 14.2152ZM15.0558 14.2172L15.3941 15.1582L15.422 15.1482L15.4492 15.1365L15.0558 14.2172ZM14.744 14.2269L14.5914 15.2152L14.5936 15.2155L14.744 14.2269ZM9.55114 4.12718V5.12718H11.5527L10.3508 3.52668L9.55114 4.12718ZM9.55017 4.12718V3.12718H9.21688L8.95024 3.32712L9.55017 4.12718ZM4.46352 7.33321L4.51939 8.33165L5.51974 8.27566L5.46185 7.27543L4.46352 7.33321ZM4.92045 6.32518L5.62494 7.03489L6.33606 6.329L5.62876 5.61928L4.92045 6.32518ZM17.962 19.5103L17.871 18.5144L16.8733 18.6056L16.9663 19.6031L17.962 19.5103ZM19.8355 20.1028L20.5398 20.8128L21.251 20.1072L20.5442 19.3973L19.8355 20.1028ZM10.7797 5.76765L11.58 5.16808L10.9811 4.36858L10.1809 4.96672L10.7797 5.76765ZM9.6096 6.64238L9.01084 5.84145L8.20935 6.44062L8.80908 7.24169L9.6096 6.64238ZM9.52678 8.27021L8.82097 7.56181L8.11249 8.26771L8.81847 8.9761L9.52678 8.27021ZM19.8316 15.6854L18.9529 15.2081L18.4754 16.0871L19.3546 16.5643L19.8316 15.6854ZM20.1892 17.6937L19.4844 16.9843L18.7739 17.6902L19.4809 18.3996L20.1892 17.6937ZM20.5282 14.403L21.005 13.524L20.1265 13.0475L19.6495 13.9257L20.5282 14.403ZM16.4792 14.8594L15.7705 15.5649L16.4753 16.2728L17.184 15.5688L16.4792 14.8594ZM18.6674 13.393L19.5457 13.8712L20.0241 12.9923L19.1449 12.5145L18.6674 13.393ZM15.4484 13.8241L14.7442 13.1141L14.0328 13.8196L14.7397 14.5296L15.4484 13.8241ZM19.9959 18.9159L20.5113 19.4336L21.9286 18.0224L21.4132 17.5048L19.9959 18.9159ZM21.9279 18.0218L21.4116 17.5041L19.9956 18.9166L20.512 19.4342L21.9279 18.0218ZM20.7036 19.2104H20.7046V17.2104H20.7036V19.2104ZM9.13225 16.8175L9.64666 16.2998L8.22804 14.89L7.71363 15.4077L9.13225 16.8175ZM8.22871 14.8894L7.71332 15.407L9.13061 16.8181L9.646 16.3005L8.22871 14.8894ZM8.42196 17.1126H8.42294V15.1126H8.42196V17.1126ZM5.11176 5.10101L4.59735 4.58435L3.18005 5.99548L3.69446 6.51214L5.11176 5.10101ZM3.18005 5.99548L3.69544 6.51311L5.11273 5.10198L4.59734 4.58435L3.18005 5.99548ZM5.11067 5.09992L5.1097 5.09895L3.69652 6.5142L3.6975 6.51517L5.11067 5.09992ZM16.7374 16.0098L17.1827 15.569L15.7756 14.1477L15.3304 14.5885L16.7374 16.0098ZM17.1875 14.1525L16.1557 13.1172L14.7391 14.529L15.7708 15.5643L17.1875 14.1525ZM14.7415 13.1148L14.2992 13.5555L15.711 14.9722L16.1533 14.5315L14.7415 13.1148ZM14.2958 14.9688L15.3246 16.004L16.7432 14.5943L15.7144 13.559L14.2958 14.9688ZM17.4916 15.5523L19.3535 16.5633L20.3078 14.8056L18.446 13.7947L17.4916 15.5523ZM20.7094 16.1618L21.406 14.8794L19.6485 13.9247L18.9519 15.2071L20.7094 16.1618ZM21.0043 13.5231L19.1434 12.5132L18.1894 14.271L20.0502 15.2809L21.0043 13.5231ZM17.7881 12.914L17.0905 14.1954L18.8471 15.1516L19.5447 13.8702L17.7881 12.914ZM19.4833 16.9834L18.0998 18.3583L19.5096 19.7769L20.8931 18.402L19.4833 16.9834ZM18.0961 19.7731L19.1259 20.8074L20.5432 19.3963L19.5134 18.362L18.0961 19.7731ZM20.5392 20.8114L21.9226 19.4376L20.5134 18.0184L19.1299 19.3923L20.5392 20.8114ZM21.927 18.0228L20.8972 16.9875L19.4792 18.398L20.509 19.4332L21.927 18.0228ZM17.8678 18.5137C16.6951 18.6235 13.3526 18.5692 9.6419 14.8853L8.23281 16.3046C12.4371 20.4786 16.4016 20.6598 18.0543 20.505L17.8678 18.5137ZM7.20194 17.3388C11.7671 21.8723 16.1888 22.1454 18.1903 21.9586L18.0045 19.9673C16.4811 20.1094 12.6819 19.9622 8.61122 15.9197L7.20194 17.3388ZM19.093 20.8689L18.9556 19.4152L16.9645 19.6034L17.1019 21.0571L19.093 20.8689ZM17.96 20.5093H17.961V18.5093H17.96V20.5093ZM9.64207 14.8855C6.04831 11.3158 5.52503 8.39977 5.46092 7.27531L3.46416 7.38916C3.55594 8.99883 4.28361 12.3819 8.23263 16.3044L9.64207 14.8855ZM4.40596 6.33384L2.94651 6.41654L3.05967 8.41334L4.51912 8.33063L4.40596 6.33384ZM2.00469 7.47149C2.11587 9.43468 2.99275 13.1595 7.20199 17.3389L8.61116 15.9196C4.75736 12.0932 4.08516 8.83573 4.00149 7.3584L2.00469 7.47149ZM10.9824 10.2906L11.262 10.0123L9.85117 8.59473L9.57156 8.87301L10.9824 10.2906ZM11.2656 8.5983L10.2367 7.564L8.81878 8.97446L9.84761 10.0088L11.2656 8.5983ZM8.82359 7.5592L8.54398 7.83651L9.95231 9.25657L10.2319 8.97927L8.82359 7.5592ZM8.5395 9.2521L9.5693 10.2864L10.9866 8.87527L9.95679 7.84097L8.5395 9.2521ZM9.57136 8.87321L9.57038 8.87418L10.9836 10.2894L10.9845 10.2885L9.57136 8.87321ZM11.579 5.16709L10.3515 3.52856L8.75083 4.72774L9.97841 6.36627L11.579 5.16709ZM8.95196 3.32754L7.78187 4.20324L8.98023 5.80447L10.1503 4.92877L8.95196 3.32754ZM7.58091 5.60367L8.80848 7.24122L10.4088 6.04159L9.18118 4.40404L7.58091 5.60367ZM10.2074 7.44234L11.3775 6.56762L10.18 4.96575L9.00987 5.84047L10.2074 7.44234ZM4.71489 3.06124L3.18529 4.57912L4.59405 5.99876L6.12365 4.48088L4.71489 3.06124ZM3.18103 5.99451L4.2118 7.02978L5.62909 5.61864L4.59832 4.58337L3.18103 5.99451ZM5.62506 7.03381L7.15368 5.51593L5.74447 4.09674L4.21584 5.61461L5.62506 7.03381ZM10.4705 8.35794C10.2129 8.09964 10.0828 7.96924 10.0174 7.90392C9.98669 7.87326 9.96468 7.85137 9.94998 7.83713C9.94583 7.83311 9.93913 7.82666 9.93128 7.81934C9.92685 7.81522 9.90679 7.79645 9.88026 7.77475C9.86837 7.76502 9.83611 7.73891 9.79178 7.71008C9.78242 7.70399 9.62729 7.59526 9.39901 7.55999C9.26045 7.53859 9.01597 7.53221 8.76052 7.67417C8.49674 7.82075 8.36875 8.04296 8.31198 8.19165C8.26059 8.32625 8.25144 8.43952 8.24876 8.47692C8.24698 8.50163 8.24651 8.52133 8.24634 8.53171C8.24624 8.53728 8.24621 8.54175 8.2462 8.54436C8.2462 8.5454 8.2462 8.54694 8.2462 8.54746C8.2462 8.54797 8.2462 8.54848 8.2462 8.54848H10.2462C10.2462 8.54014 10.2467 8.57751 10.2436 8.61987C10.241 8.65721 10.2318 8.77044 10.1804 8.905C10.1237 9.05365 9.99573 9.27582 9.73198 9.42238C9.47656 9.56432 9.23213 9.55794 9.09363 9.53654C8.86548 9.50129 8.71054 9.39265 8.70146 9.38674C8.65741 9.3581 8.62554 9.33227 8.61415 9.32296C8.58862 9.30208 8.57008 9.28465 8.56792 9.28265C8.56233 9.27744 8.55867 9.27388 8.55854 9.27376C8.55809 9.27332 8.56065 9.2758 8.56917 9.28425C8.57708 9.2921 8.58827 9.30325 8.6041 9.31905C8.66777 9.38265 8.79588 9.51107 9.05458 9.77041L10.4705 8.35794ZM9.2462 7.54848H9.24425V9.54848H9.2462V7.54848ZM8.44465 7.94795L8.44172 7.95184L10.0409 9.15291L10.0438 9.14902L8.44465 7.94795ZM8.52749 7.85206C8.43709 7.94421 8.35565 8.04475 8.28428 8.15234L9.95091 9.25793C9.95214 9.25608 9.95356 9.25432 9.95515 9.25269L8.52749 7.85206ZM8.28908 8.14516C8.19783 8.28018 8.10222 8.45153 8.0229 8.66225L9.89468 9.36685C9.91278 9.31875 9.93214 9.28577 9.9461 9.26511L8.28908 8.14516ZM8.01645 8.67988C7.83967 9.17765 7.79563 9.71285 7.88869 10.2328L9.85741 9.88045C9.82558 9.70261 9.84063 9.51954 9.90112 9.34922L8.01645 8.67988ZM7.88487 10.2099C8.06284 11.3573 8.81446 12.6552 10.3662 14.1968L11.7758 12.778C10.3541 11.3656 9.94436 10.4393 9.86123 9.90335L7.88487 10.2099ZM12.8062 11.7424C11.4793 10.4256 11.3192 9.77095 11.3052 9.68004L9.32866 9.98564C9.43736 10.6887 9.93977 11.7154 11.3974 13.1619L12.8062 11.7424ZM11.3051 9.67982C11.3 9.64645 11.321 9.73993 11.252 9.90832L9.40128 9.15021C9.31477 9.36141 9.2754 9.64171 9.32869 9.98586L11.3051 9.67982ZM11.2683 9.86599C11.2634 9.87952 11.259 9.89077 11.2559 9.89838C11.2552 9.89994 11.2548 9.90111 11.2547 9.9012C11.2543 9.90221 11.2554 9.89952 11.2563 9.89734C11.257 9.89564 11.2604 9.88734 11.2645 9.8768C11.266 9.87272 11.2796 9.83805 11.2925 9.79301C11.2976 9.77493 11.3151 9.71345 11.3245 9.63243C11.329 9.59289 11.3365 9.51042 11.3249 9.40678C11.3152 9.32016 11.2795 9.09089 11.095 8.87253C10.8646 8.59972 10.5421 8.50323 10.2709 8.51957C10.0538 8.53265 9.89961 8.61324 9.84252 8.6452C9.72043 8.71356 9.64219 8.79262 9.62939 8.80521C9.58327 8.85062 9.55126 8.89163 9.54946 8.89388C9.54052 8.90507 9.5337 8.91411 9.53217 8.91614C9.52162 8.93011 9.53356 8.9143 9.53769 8.90899L11.1156 10.1379C11.1232 10.1282 11.1374 10.1092 11.1283 10.1213C11.1271 10.1229 11.1206 10.1315 11.1119 10.1424C11.1103 10.1444 11.0785 10.1852 11.0325 10.2305C11.0198 10.243 10.9416 10.322 10.8195 10.3903C10.7624 10.4223 10.6083 10.5029 10.3912 10.5159C10.12 10.5323 9.79748 10.4358 9.56708 10.163C9.38267 9.94466 9.34693 9.71539 9.33725 9.6288C9.32568 9.52518 9.3331 9.44274 9.33766 9.40323C9.347 9.32227 9.36447 9.26087 9.36962 9.2429C9.38244 9.19808 9.3959 9.1637 9.39732 9.16001C9.40121 9.14986 9.40442 9.14204 9.40488 9.14091C9.40554 9.1393 9.40638 9.13726 9.40565 9.13902C9.4053 9.13987 9.40448 9.14187 9.40346 9.14437C9.39884 9.15573 9.39233 9.1722 9.38506 9.19254L11.2683 9.86599ZM9.48316 8.9863C9.50658 8.94952 9.53322 8.91494 9.56275 8.88296L11.0321 10.2398C11.0833 10.1843 11.1296 10.1243 11.1702 10.0606L9.48316 8.9863ZM9.59081 8.85378L9.58107 8.86351L10.9943 10.2787L11.0041 10.269L9.59081 8.85378ZM9.59493 8.84994C9.60768 8.83769 9.62086 8.82583 9.63447 8.81439L10.9214 10.3453C10.9417 10.3283 10.9614 10.3106 10.9804 10.2923L9.59493 8.84994ZM10.9846 8.87229L10.4682 8.3566L9.05494 9.77174L9.5713 10.2874L10.9846 8.87229ZM9.76158 10.0642H9.76256V8.06417H9.76158V10.0642ZM10.3664 14.1971C11.9197 15.7391 13.2246 16.4829 14.3714 16.6575L14.6723 14.6803C14.1317 14.598 13.1977 14.1897 11.7756 12.7778L10.3664 14.1971ZM14.3703 16.6573C14.9651 16.7485 15.4855 16.681 15.9141 16.5214L15.2165 14.647C15.117 14.6841 14.9418 14.7216 14.6734 14.6804L14.3703 16.6573ZM15.912 16.5222C16.1582 16.4312 16.3885 16.302 16.5945 16.1392L15.3545 14.57C15.3135 14.6024 15.2677 14.6281 15.2186 14.6463L15.912 16.5222ZM16.6154 16.1222C16.6508 16.0926 16.6852 16.0618 16.7183 16.0297L15.3281 14.5919C15.3298 14.5902 15.3317 14.5886 15.3335 14.587L16.6154 16.1222ZM16.6735 16.0705L16.6803 16.0647L15.3797 14.5453L15.3729 14.5511L16.6735 16.0705ZM16.7367 16.0126L16.7396 16.0096L15.3263 14.5945L15.3234 14.5974L16.7367 16.0126ZM16.9272 15.7496L16.9282 15.7477L15.1397 14.8526L15.1387 14.8545L16.9272 15.7496ZM16.0339 15.3001C16.7404 16.0078 16.888 15.8203 16.9869 15.6031C17.0042 15.5421 17.0306 15.3815 17.0338 15.282C17.031 15.1314 16.9945 15.0175 16.9777 14.9696C16.9421 14.868 16.8978 14.796 16.8864 14.7774C16.855 14.7261 16.8256 14.6891 16.8197 14.6816C16.8005 14.6572 16.7842 14.639 16.7812 14.6356C16.7707 14.6238 16.762 14.6146 16.76 14.6124C16.7536 14.6057 16.7474 14.5993 16.7426 14.5944C16.7319 14.5834 16.7138 14.5649 16.6813 14.532C16.6157 14.4657 16.486 14.335 16.2281 14.0759L14.8109 15.4871C15.0684 15.7457 15.1959 15.8743 15.2587 15.9378C15.2904 15.9699 15.3042 15.984 15.3094 15.9894C15.3126 15.9927 15.3103 15.9903 15.3059 15.9857C15.3049 15.9846 15.2967 15.9759 15.2865 15.9644C15.2835 15.9611 15.2673 15.943 15.2482 15.9186C15.2423 15.9111 15.2129 15.8741 15.1814 15.8229C15.17 15.8043 15.1257 15.7322 15.0901 15.6307C15.0733 15.5827 15.0368 15.4689 15.0341 15.3182C15.0372 15.2187 15.0636 15.0581 15.0809 14.9972C15.1798 14.78 15.3274 14.5924 16.0339 15.3001ZM16.2275 14.0753C15.9697 13.8168 15.8435 13.6894 15.7824 13.6272C15.7513 13.5955 15.7399 13.5837 15.7376 13.5813C15.7352 13.5787 15.7422 13.586 15.7521 13.5971C15.7544 13.5996 15.7722 13.6194 15.7931 13.6461C15.7981 13.6523 15.8343 13.6977 15.8711 13.7612C15.8806 13.7776 15.945 13.8847 15.9803 14.0374C15.9968 14.1085 16.036 14.306 15.9652 14.5459C15.926 14.6786 15.8525 14.8252 15.7275 14.9554C15.6651 15.015 15.5636 15.0931 15.5285 15.1156C15.4281 15.1695 15.3223 15.2116 15.0061 14.2629C14.6898 13.3142 14.584 13.3563 14.4837 13.4102C14.4485 13.4328 14.347 13.5108 14.2846 13.5704C14.1596 13.7006 14.0861 13.8472 14.0469 13.9799C13.9761 14.2198 14.0154 14.4173 14.0318 14.4884C14.0672 14.6411 14.1315 14.7482 14.141 14.7646C14.1779 14.8281 14.2142 14.8736 14.2192 14.88C14.2403 14.907 14.2586 14.9272 14.2618 14.9308C14.2736 14.944 14.2844 14.9554 14.2897 14.961C14.303 14.9749 14.3232 14.9957 14.3558 15.029C14.4224 15.0967 14.553 15.2285 14.8115 15.4877L16.2275 14.0753ZM15.7125 14.9707L15.7144 14.9688L14.3016 13.5532L14.2997 13.5551L15.7125 14.9707ZM15.7148 14.9684L15.7167 14.9665L14.3032 13.5516L14.3013 13.5535L15.7148 14.9684ZM15.6496 15.0277L15.6554 15.0228L14.3762 13.4855L14.3703 13.4903L15.6496 15.0277ZM15.7225 14.9617L15.7322 14.952L14.3189 13.5369L14.3092 13.5466L15.7225 14.9617ZM15.6931 14.989C15.6734 15.0067 15.6526 15.023 15.6309 15.0381L14.4943 13.3924C14.4467 13.4253 14.4011 13.4612 14.358 13.4998L15.6931 14.989ZM15.6355 15.0348C15.6292 15.0392 15.6234 15.0431 15.6251 15.042C15.6256 15.0416 15.6269 15.0408 15.6285 15.0397C15.6299 15.0387 15.633 15.0366 15.637 15.0339C15.6401 15.0317 15.6485 15.0259 15.6591 15.0181C15.6603 15.0172 15.6987 14.9897 15.742 14.9503C15.7552 14.9383 15.778 14.9168 15.8044 14.8881C15.8245 14.8664 15.8799 14.8049 15.9329 14.7138C15.9513 14.6821 16.154 14.3554 16.0271 13.9271C15.8566 13.352 15.3357 13.2378 15.1981 13.2197C15.0382 13.1988 14.9129 13.2229 14.8808 13.229C14.8302 13.2387 14.7909 13.2503 14.7707 13.2566C14.7295 13.2694 14.6982 13.2822 14.687 13.2868C14.6611 13.2975 14.6412 13.307 14.6369 13.3091C14.6295 13.3127 14.6237 13.3155 14.6213 13.3167C14.6106 13.3221 14.6361 13.309 14.6623 13.2978L15.4492 15.1365C15.489 15.1195 15.5228 15.1021 15.5145 15.1062C15.5123 15.1073 15.5066 15.1101 15.4993 15.1136C15.4951 15.1156 15.4754 15.1251 15.4495 15.1358C15.4383 15.1404 15.4071 15.1531 15.3659 15.166C15.3457 15.1723 15.3064 15.1839 15.2558 15.1936C15.2237 15.1997 15.0984 15.2238 14.9385 15.2028C14.8009 15.1848 14.28 15.0706 14.1095 14.4955C13.9826 14.0672 14.1853 13.7404 14.2038 13.7087C14.2567 13.6177 14.3122 13.5562 14.3322 13.5345C14.3586 13.5058 14.3814 13.4844 14.3946 13.4723C14.4378 13.4329 14.4762 13.4055 14.4773 13.4047C14.4878 13.397 14.4961 13.3912 14.4991 13.3891C14.503 13.3865 14.5059 13.3844 14.5072 13.3836C14.5086 13.3826 14.5097 13.3819 14.51 13.3817C14.5116 13.3806 14.5075 13.3834 14.504 13.3858C14.4998 13.3886 14.495 13.3919 14.4896 13.3956L15.6355 15.0348ZM14.7174 13.2761C14.7399 13.2681 14.7667 13.2597 14.7956 13.2529C14.823 13.2464 14.8465 13.2429 14.8652 13.241C14.9031 13.2373 14.9147 13.2414 14.8943 13.2383L14.5936 15.2155C14.9506 15.2698 15.214 15.2229 15.3941 15.1582L14.7174 13.2761ZM14.8966 13.2386C14.7943 13.2228 14.1313 13.0583 12.8064 11.7426L11.3971 13.1617C12.8548 14.6093 13.887 15.1064 14.5914 15.2152L14.8966 13.2386ZM10.3508 3.52668C9.01768 1.75154 6.36012 1.4276 4.71467 3.06146L6.12387 4.48066C6.84979 3.75986 8.0971 3.85626 8.75152 4.72768L10.3508 3.52668ZM7.15372 5.5159C7.21961 5.45046 7.43282 5.40619 7.581 5.60378L9.1811 4.40392C8.34136 3.28407 6.71515 3.13278 5.74443 4.09677L7.15372 5.5159ZM8.98097 5.80391L10.1501 4.92723L8.95024 3.32712L7.78112 4.2038L8.98097 5.80391ZM9.55017 5.12718H9.55114V3.12718H9.55017V5.12718ZM5.46185 7.27543C5.46343 7.30287 5.4439 7.2146 5.62494 7.03489L4.21596 5.61547C3.75398 6.07405 3.42463 6.69023 3.46519 7.39099L5.46185 7.27543ZM5.62876 5.61928L4.59701 4.58401L3.18039 5.99581L4.21214 7.03108L5.62876 5.61928ZM3.18404 4.58037C2.5241 5.23577 1.93404 6.23464 2.00472 7.47197L4.00146 7.35791C3.97276 6.85552 4.20694 6.38322 4.59336 5.99946L3.18404 4.58037ZM3.05897 8.41338L4.51939 8.33165L4.40764 6.33477L2.94721 6.4165L3.05897 8.41338ZM18.0981 18.36C18.0249 18.4331 17.9661 18.4728 17.927 18.4932C17.8892 18.513 17.8712 18.5144 17.871 18.5144L18.053 20.5061C18.6321 20.4532 19.1267 20.1593 19.5114 19.7751L18.0981 18.36ZM16.9663 19.6031L17.1017 21.0558L19.0931 20.8702L18.9577 19.4175L16.9663 19.6031ZM18.1908 21.9586C19.1982 21.8642 19.9882 21.3599 20.5398 20.8128L19.1312 19.3929C18.8099 19.7117 18.4288 19.9275 18.0041 19.9673L18.1908 21.9586ZM20.5442 19.3973L19.5134 18.362L18.0961 19.7731L19.1269 20.8084L20.5442 19.3973ZM11.2611 10.0133C12.5931 8.69102 12.671 6.62434 11.58 5.16808L9.97937 6.36723C10.5037 7.06713 10.4393 8.01091 9.8521 8.59381L11.2611 10.0133ZM10.1809 4.96672L9.01084 5.84145L10.2084 7.44331L11.3784 6.56859L10.1809 4.96672ZM8.80908 7.24169C8.91535 7.38363 8.87105 7.51192 8.82097 7.56181L10.2326 8.9786C11.0165 8.19756 11.0891 6.95002 10.4101 6.04307L8.80908 7.24169ZM8.81847 8.9761L9.84827 10.0094L11.2649 8.59763L10.2351 7.56431L8.81847 8.9761ZM19.3546 16.5643C19.592 16.6932 19.5473 16.9218 19.4844 16.9843L20.894 18.4031C21.9554 17.3486 21.6631 15.5417 20.3086 14.8065L19.3546 16.5643ZM19.4809 18.3996L20.5116 19.4339L21.9283 18.0221L20.8975 16.9878L19.4809 18.3996ZM21.9247 19.4374C23.744 17.63 23.1403 14.6821 21.005 13.524L20.0515 15.2821C21.1059 15.8539 21.3069 17.2319 20.5152 18.0186L21.9247 19.4374ZM19.6495 13.9257L18.9529 15.2081L20.7103 16.1627L21.4069 14.8803L19.6495 13.9257ZM17.184 15.5688C17.2313 15.5217 17.3501 15.4762 17.494 15.554L18.4456 13.7949C17.5606 13.3162 16.4753 13.4536 15.7744 14.1499L17.184 15.5688ZM18.8481 15.1526L19.5457 13.8712L17.7891 12.9149L17.0915 14.1964L18.8481 15.1526ZM19.1449 12.5145C17.7189 11.7393 15.9254 11.9424 14.7442 13.1141L16.1526 14.5341C16.6782 14.0127 17.5036 13.8987 18.1898 14.2716L19.1449 12.5145ZM14.7397 14.5296L15.7705 15.5649L17.1878 14.1538L16.157 13.1185L14.7397 14.5296Z" fill="white" mask="url(#path-1-inside-1_606_5724)"/>
</svg>

<svg id="mail-w" width="24" height="24" viewBox="0 0 24 24" fill="none" xmlns="http://www.w3.org/2000/svg">
  <path d="M19.6095 5H5.39054C4.75653 5 4.14849 5.23236 3.70017 5.64595C3.25186 6.05955 3 6.62051 3 7.20542V16.7946C3 17.3795 3.25186 17.9405 3.70017 18.354C4.14849 18.7676 4.75653 19 5.39054 19H19.6095C20.2435 19 20.8515 18.7676 21.2998 18.354C21.7481 17.9405 22 17.3795 22 16.7946V7.20542C22 6.62051 21.7481 6.05955 21.2998 5.64595C20.8515 5.23236 20.2435 5 19.6095 5ZM5.39054 5.88217H19.6095C19.9714 5.8812 20.3201 6.00744 20.5848 6.23522C20.8495 6.463 21.0102 6.77521 21.0342 7.10838C18.6724 8.27284 16.301 9.42848 13.9295 10.5929C13.6087 10.7784 13.2693 10.935 12.916 11.0605C12.6386 11.111 12.3527 11.1064 12.0774 11.0471C11.802 10.9878 11.5435 10.8751 11.3191 10.7164C9.96125 10.0548 8.60342 9.38437 7.25516 8.72275C6.16507 8.19345 5.05586 7.65532 3.96578 7.1172C3.98795 6.78261 4.14777 6.46845 4.41257 6.23891C4.67737 6.00937 5.02718 5.88177 5.39054 5.88217ZM21.0438 16.7946C21.0438 17.1455 20.8927 17.4821 20.6237 17.7303C20.3547 17.9784 19.9899 18.1178 19.6095 18.1178H5.39054C5.01013 18.1178 4.64531 17.9784 4.37632 17.7303C4.10733 17.4821 3.95622 17.1455 3.95622 16.7946V8.11846C6.21288 9.21235 8.45999 10.3239 10.7167 11.4266C11.1198 11.6546 11.5539 11.8326 12.0075 11.9559C12.6715 12.0555 13.352 11.9268 13.92 11.5942C15.3065 10.9238 16.6834 10.2445 18.07 9.57404C19.0644 9.08003 20.0493 8.60365 21.0438 8.11846V16.7946Z" fill="white" stroke="white" stroke-width="0.5"/>
</svg>

<svg id="mapdot-w" width="24" height="24" viewBox="0 0 24 24" fill="none" xmlns="http://www.w3.org/2000/svg">
  <path d="M12.3571 2C14.5736 2 16.6993 2.88048 18.2665 4.44775C19.8338 6.01502 20.7143 8.14069 20.7143 10.3571C20.7143 13.8886 18.2329 17.7371 13.3343 21.944C13.0619 22.178 12.7146 22.3065 12.3555 22.3062C11.9965 22.3059 11.6494 22.1768 11.3774 21.9423L11.0534 21.6611C6.37171 17.564 4 13.8097 4 10.3571C4 8.14069 4.88048 6.01502 6.44775 4.44775C8.01502 2.88048 10.1407 2 12.3571 2ZM12.3571 3.28571C10.4817 3.28571 8.68304 4.03074 7.35689 5.35689C6.03074 6.68304 5.28571 8.48168 5.28571 10.3571C5.28571 13.3589 7.46971 16.8174 11.8977 20.6917L12.2174 20.9686C12.2563 21.002 12.3059 21.0204 12.3571 21.0204C12.4084 21.0204 12.458 21.002 12.4969 20.9686C17.1391 16.9811 19.4286 13.43 19.4286 10.3571C19.4286 9.42851 19.2457 8.50897 18.8903 7.65102C18.5349 6.79308 18.014 6.01353 17.3574 5.35689C16.7008 4.70024 15.9212 4.17937 15.0633 3.82399C14.2053 3.46862 13.2858 3.28571 12.3571 3.28571ZM12.3571 7.14286C13.2096 7.14286 14.0272 7.4815 14.63 8.0843C15.2328 8.6871 15.5714 9.50466 15.5714 10.3571C15.5714 11.2096 15.2328 12.0272 14.63 12.63C14.0272 13.2328 13.2096 13.5714 12.3571 13.5714C11.5047 13.5714 10.6871 13.2328 10.0843 12.63C9.4815 12.0272 9.14286 11.2096 9.14286 10.3571C9.14286 9.50466 9.4815 8.6871 10.0843 8.0843C10.6871 7.4815 11.5047 7.14286 12.3571 7.14286ZM12.3571 8.42857C11.8457 8.42857 11.3551 8.63176 10.9934 8.99344C10.6318 9.35511 10.4286 9.84565 10.4286 10.3571C10.4286 10.8686 10.6318 11.3592 10.9934 11.7208C11.3551 12.0825 11.8457 12.2857 12.3571 12.2857C12.8686 12.2857 13.3592 12.0825 13.7208 11.7208C14.0825 11.3592 14.2857 10.8686 14.2857 10.3571C14.2857 9.84565 14.0825 9.35511 13.7208 8.99344C13.3592 8.63176 12.8686 8.42857 12.3571 8.42857Z" fill="white" stroke="white" stroke-width="0.2"/>
</svg>













<svg id="tg" viewBox="0 0 28 28" fill="none" xmlns="http://www.w3.org/2000/svg">
  <path d="M13.9928 2.33333C11.6854 2.33333 9.42976 3.01757 7.51119 4.29952C5.59262 5.58147 4.09727 7.40355 3.21425 9.53535C2.33123 11.6672 2.10019 14.0129 2.55035 16.276C3.00051 18.5392 4.11165 20.618 5.74326 22.2496C7.37488 23.8812 9.45368 24.9923 11.7168 25.4425C13.9799 25.8927 16.3257 25.6616 18.4575 24.7786C20.5893 23.8956 22.4114 22.4002 23.6933 20.4816C24.9753 18.5631 25.6595 16.3074 25.6595 14C25.6595 12.4679 25.3577 10.9508 24.7714 9.53535C24.1851 8.11989 23.3258 6.83377 22.2424 5.75042C21.1591 4.66707 19.8729 3.80771 18.4575 3.2214C17.042 2.6351 15.5249 2.33333 13.9928 2.33333ZM17.7028 20.0107C17.6593 20.1197 17.5929 20.2181 17.5082 20.2993C17.4235 20.3805 17.3224 20.4427 17.2116 20.4816C17.1009 20.5205 16.9831 20.5352 16.8662 20.5248C16.7493 20.5144 16.636 20.4791 16.5338 20.4213L13.3663 17.9597L11.334 19.8357C11.2868 19.8705 11.2317 19.8929 11.1736 19.9009C11.1155 19.9088 11.0563 19.902 11.0015 19.8812L11.3912 16.394L11.4028 16.4045L11.411 16.3357C11.411 16.3357 17.1102 11.1463 17.3423 10.9258C17.578 10.7053 17.4998 10.6575 17.4998 10.6575C17.5138 10.3892 17.0787 10.6575 17.0787 10.6575L9.52684 15.5155L6.38268 14.4445C6.38268 14.4445 5.89968 14.2718 5.85418 13.8903C5.80634 13.5123 6.39784 13.307 6.39784 13.307L18.901 8.33933C18.901 8.33933 19.9288 7.88199 19.9288 8.64033L17.7028 20.0107Z" fill="currentColor"/>
</svg>

<svg id="vk" viewBox="0 0 29 28" fill="none" xmlns="http://www.w3.org/2000/svg">
  <path d="M18.3348 2.33333H11.1762C4.63817 2.33333 3.08301 3.8885 3.08301 10.4148V17.5735C3.08301 24.1103 4.62651 25.6667 11.1645 25.6667H18.3232C24.86 25.6667 26.4163 24.1232 26.4163 17.5852V10.4265C26.4163 3.8885 24.8728 2.33333 18.3348 2.33333ZM21.92 18.9817H20.2178C19.5738 18.9817 19.3802 18.4602 18.2252 17.3052C17.2172 16.3333 16.7913 16.212 16.5358 16.212C16.1835 16.212 16.0867 16.3088 16.0867 16.7953V18.326C16.0867 18.7402 15.9525 18.9828 14.871 18.9828C13.8214 18.9123 12.8036 18.5934 11.9014 18.0524C10.9992 17.5115 10.2384 16.7639 9.68167 15.8713C8.36004 14.2263 7.44044 12.2956 6.99601 10.2328C6.99601 9.97733 7.09284 9.74633 7.57934 9.74633H9.28034C9.71784 9.74633 9.87534 9.94116 10.0468 10.3903C10.8728 12.8217 12.2822 14.9357 12.8538 14.9357C13.0732 14.9357 13.1688 14.8388 13.1688 14.2917V11.788C13.0965 10.6458 12.4898 10.549 12.4898 10.136C12.4976 10.0271 12.5476 9.92545 12.629 9.8527C12.7105 9.77996 12.8171 9.7418 12.9262 9.74633H15.6002C15.9653 9.74633 16.0867 9.92833 16.0867 10.3658V13.7445C16.0867 14.1097 16.2442 14.231 16.3538 14.231C16.5732 14.231 16.7423 14.1097 17.1437 13.7083C18.0057 12.6571 18.71 11.4859 19.2343 10.2317C19.2879 10.081 19.3894 9.95202 19.5231 9.86439C19.6569 9.77676 19.8156 9.73529 19.9752 9.74633H21.6773C22.1872 9.74633 22.2957 10.0018 22.1872 10.3658C21.5682 11.7523 20.8024 13.0685 19.9028 14.2917C19.7197 14.5717 19.6462 14.7175 19.9028 15.0453C20.072 15.3008 20.6682 15.799 21.0695 16.2727C21.6527 16.8544 22.137 17.5275 22.5033 18.2653C22.6492 18.739 22.4053 18.9817 21.92 18.9817Z" fill="currentColor"/>
</svg>

<svg id="yt" viewBox="0 0 33 32" fill="none" xmlns="http://www.w3.org/2000/svg">
  <path d="M13.8337 20L20.7537 16L13.8337 12V20ZM29.247 9.56C29.4203 10.1867 29.5403 11.0267 29.6203 12.0933C29.7137 13.16 29.7537 14.08 29.7537 14.88L29.8337 16C29.8337 18.92 29.6203 21.0667 29.247 22.44C28.9137 23.64 28.1403 24.4133 26.9403 24.7467C26.3137 24.92 25.167 25.04 23.407 25.12C21.6737 25.2133 20.087 25.2533 18.6203 25.2533L16.5003 25.3333C10.9137 25.3333 7.43366 25.12 6.06033 24.7467C4.86033 24.4133 4.08699 23.64 3.75366 22.44C3.58033 21.8133 3.46033 20.9733 3.38033 19.9067C3.28699 18.84 3.24699 17.92 3.24699 17.12L3.16699 16C3.16699 13.08 3.38033 10.9333 3.75366 9.56C4.08699 8.36001 4.86033 7.58667 6.06033 7.25334C6.68699 7.08001 7.83366 6.96 9.59366 6.88C11.327 6.78667 12.9137 6.74667 14.3803 6.74667L16.5003 6.66667C22.087 6.66667 25.567 6.88001 26.9403 7.25334C28.1403 7.58667 28.9137 8.36001 29.247 9.56Z" fill="currentColor"/>
</svg>

<svg id="dzen" viewBox="0 0 25 24" fill="none" xmlns="http://www.w3.org/2000/svg">
  <g clip-path="url(#clip0_39_684)">
    <path d="M14.5643 14.3143C12.6786 16.26 12.5414 18.6857 12.3786 24C17.3329 24 20.7529 23.9829 22.5186 22.2686C24.2329 20.5029 24.25 16.92 24.25 12.1286C18.9357 12.3 16.51 12.4286 14.5643 14.3143ZM0.25 12.1286C0.25 16.92 0.267143 20.5029 1.98143 22.2686C3.74714 23.9829 7.16714 24 12.1214 24C11.95 18.6857 11.8214 16.26 9.93571 14.3143C7.99 12.4286 5.56429 12.2914 0.25 12.1286ZM12.1214 0C7.17571 0 3.74714 0.0171428 1.98143 1.73143C0.267143 3.49714 0.25 7.08 0.25 11.8714C5.56429 11.7 7.99 11.5714 9.93571 9.68571C11.8214 7.74 11.9586 5.31429 12.1214 0ZM14.5643 9.68571C12.6786 7.74 12.5414 5.31429 12.3786 0C17.3329 0 20.7529 0.0171428 22.5186 1.73143C24.2329 3.49714 24.25 7.08 24.25 11.8714C18.9357 11.7 16.51 11.5714 14.5643 9.68571Z" fill="currentColor"/>
  </g>
  <defs>
    <clipPath id="clip0_39_684">
      <rect width="24" height="24" fill="currentColor" transform="translate(0.25)"/>
    </clipPath>
  </defs>
</svg>

<svg id="mailru" viewBox="0 0 24 24" fill="none" xmlns="http://www.w3.org/2000/svg">
  <g clip-path="url(#clip0_39_687)">
    <path d="M11.5863 5.26575C13.4185 5.26575 15.145 6.078 16.4103 7.34775V7.3515C16.4103 6.74175 16.8205 6.2805 17.3875 6.2805H17.5315C18.4263 6.2805 18.6055 7.12425 18.6055 7.3905L18.6093 16.8668C18.547 17.4878 19.2505 17.8088 19.6413 17.4098C21.16 15.8475 22.9803 9.3705 18.6955 5.6205C14.6995 2.12026 9.33628 2.6985 6.48478 4.6635C3.45403 6.7575 1.51678 11.3828 3.39853 15.7298C5.45353 20.469 11.3283 21.8828 14.8248 20.4728C16.5948 19.758 17.4108 22.1475 15.571 22.9298C12.7983 24.1125 5.07103 23.9918 1.46203 17.742C-0.976221 13.5203 -0.847221 6.09375 5.62228 2.24625C10.567 -0.698995 17.0913 0.117005 21.0243 4.22325C25.1343 8.52 24.8965 16.5593 20.884 19.6845C19.0668 21.1058 16.3683 19.7235 16.3878 17.6528L16.3675 16.9778C15.1023 18.231 13.4185 18.966 11.5863 18.966C7.96153 18.966 4.77028 15.774 4.77028 12.153C4.77028 8.493 7.96153 5.26725 11.5863 5.26725V5.26575ZM16.1455 11.8913C16.0083 9.2385 14.0395 7.641 11.6605 7.641H11.5705C8.82853 7.641 7.30528 9.801 7.30528 12.2498C7.30528 14.9955 9.14503 16.7295 11.5593 16.7295C14.254 16.7295 16.0233 14.7578 16.1523 12.4253L16.1455 11.8913Z" fill="currentColor"/>
  </g>
  <defs>
    <clipPath id="clip0_39_687">
      <rect width="24" height="24" fill="currentColor"/>
    </clipPath>
  </defs>
</svg>

<svg id="tg-m" viewBox="0 0 28 28" fill="none" xmlns="http://www.w3.org/2000/svg">
  <path d="M13.9928 2.33337C11.6854 2.33337 9.42976 3.01761 7.51119 4.29956C5.59262 5.58151 4.09727 7.4036 3.21425 9.5354C2.33123 11.6672 2.10019 14.013 2.55035 16.2761C3.00051 18.5392 4.11165 20.618 5.74326 22.2496C7.37488 23.8812 9.45368 24.9924 11.7168 25.4425C13.9799 25.8927 16.3257 25.6617 18.4575 24.7786C20.5893 23.8956 22.4114 22.4003 23.6933 20.4817C24.9753 18.5631 25.6595 16.3075 25.6595 14C25.6595 12.468 25.3577 10.9509 24.7714 9.5354C24.1851 8.11994 23.3258 6.83381 22.2424 5.75046C21.1591 4.66711 19.8729 3.80775 18.4575 3.22145C17.042 2.63514 15.5249 2.33337 13.9928 2.33337ZM17.7028 20.0107C17.6593 20.1197 17.5929 20.2181 17.5082 20.2993C17.4235 20.3806 17.3224 20.4427 17.2116 20.4816C17.1009 20.5205 16.9831 20.5353 16.8662 20.5249C16.7493 20.5145 16.636 20.4792 16.5338 20.4214L13.3663 17.9597L11.334 19.8357C11.2868 19.8705 11.2317 19.893 11.1736 19.9009C11.1155 19.9089 11.0563 19.9021 11.0015 19.8812L11.3912 16.394L11.4028 16.4045L11.411 16.3357C11.411 16.3357 17.1102 11.1464 17.3423 10.9259C17.578 10.7054 17.4998 10.6575 17.4998 10.6575C17.5138 10.3892 17.0787 10.6575 17.0787 10.6575L9.52684 15.5155L6.38268 14.4445C6.38268 14.4445 5.89968 14.2719 5.85418 13.8904C5.80634 13.5124 6.39784 13.307 6.39784 13.307L18.901 8.33937C18.901 8.33937 19.9288 7.88204 19.9288 8.64037L17.7028 20.0107Z" fill="currentColor"/>
</svg>

<svg id="vk-m" viewBox="0 0 28 28" fill="none" xmlns="http://www.w3.org/2000/svg">
  <path d="M17.5853 2.33337H10.4267C3.88866 2.33337 2.3335 3.88854 2.3335 10.4149V17.5735C2.3335 24.1104 3.877 25.6667 10.415 25.6667H17.5737C24.1105 25.6667 25.6668 24.1232 25.6668 17.5852V10.4265C25.6668 3.88854 24.1233 2.33337 17.5853 2.33337ZM21.1705 18.9817H19.4683C18.8243 18.9817 18.6307 18.4602 17.4757 17.3052C16.4677 16.3334 16.0418 16.212 15.7863 16.212C15.434 16.212 15.3372 16.3089 15.3372 16.7954V18.326C15.3372 18.7402 15.203 18.9829 14.1215 18.9829C13.0719 18.9123 12.0541 18.5935 11.1519 18.0525C10.2496 17.5115 9.48886 16.764 8.93216 15.8714C7.61053 14.2264 6.69093 12.2957 6.2465 10.2329C6.2465 9.97737 6.34333 9.74637 6.82983 9.74637H8.53083C8.96833 9.74637 9.12583 9.94121 9.29733 10.3904C10.1233 12.8217 11.5327 14.9357 12.1043 14.9357C12.3237 14.9357 12.4193 14.8389 12.4193 14.2917V11.788C12.347 10.6459 11.7403 10.549 11.7403 10.136C11.7481 10.0271 11.798 9.92549 11.8795 9.85275C11.961 9.78 12.0675 9.74185 12.1767 9.74637H14.8507C15.2158 9.74637 15.3372 9.92837 15.3372 10.3659V13.7445C15.3372 14.1097 15.4947 14.231 15.6043 14.231C15.8237 14.231 15.9928 14.1097 16.3942 13.7084C17.2562 12.6571 17.9605 11.486 18.4848 10.2317C18.5384 10.081 18.6398 9.95206 18.7736 9.86443C18.9074 9.7768 19.0661 9.73534 19.2257 9.74637H20.9278C21.4377 9.74637 21.5462 10.0019 21.4377 10.3659C20.8187 11.7524 20.0529 13.0685 19.1533 14.2917C18.9702 14.5717 18.8967 14.7175 19.1533 15.0454C19.3225 15.3009 19.9187 15.799 20.32 16.2727C20.9032 16.8545 21.3875 17.5275 21.7538 18.2654C21.8997 18.739 21.6558 18.9817 21.1705 18.9817Z" fill="currentColor"/>
</svg>

<svg id="yt-m" viewBox="0 0 32 32" fill="none" xmlns="http://www.w3.org/2000/svg">
  <path d="M13.5 20L21.285 15.5L13.5 11V20ZM30.84 8.255C31.035 8.96 31.17 9.905 31.26 11.105C31.365 12.305 31.41 13.34 31.41 14.24L31.5 15.5C31.5 18.785 31.26 21.2 30.84 22.745C30.465 24.095 29.595 24.965 28.245 25.34C27.54 25.535 26.25 25.67 24.27 25.76C22.32 25.865 20.535 25.91 18.885 25.91L16.5 26C10.215 26 6.3 25.76 4.755 25.34C3.405 24.965 2.535 24.095 2.16 22.745C1.965 22.04 1.83 21.095 1.74 19.895C1.635 18.695 1.59 17.66 1.59 16.76L1.5 15.5C1.5 12.215 1.74 9.8 2.16 8.255C2.535 6.905 3.405 6.035 4.755 5.66C5.46 5.465 6.75 5.33 8.73 5.24C10.68 5.135 12.465 5.09 14.115 5.09L16.5 5C22.785 5 26.7 5.24 28.245 5.66C29.595 6.035 30.465 6.905 30.84 8.255Z" fill="currentColor"/>
</svg>

<svg id="dzen-m" viewBox="0 0 24 24" fill="none" xmlns="http://www.w3.org/2000/svg">
  <g clip-path="url(#clip0_280_5421)">
    <path d="M14.3143 14.3143C12.4286 16.26 12.2914 18.6857 12.1286 24C17.0829 24 20.5029 23.9829 22.2686 22.2686C23.9829 20.5029 24 16.92 24 12.1286C18.6857 12.3 16.26 12.4286 14.3143 14.3143ZM0 12.1286C0 16.92 0.0171428 20.5029 1.73143 22.2686C3.49714 23.9829 6.91714 24 11.8714 24C11.7 18.6857 11.5714 16.26 9.68571 14.3143C7.74 12.4286 5.31429 12.2914 0 12.1286ZM11.8714 0C6.92571 0 3.49714 0.0171428 1.73143 1.73143C0.0171428 3.49714 0 7.08 0 11.8714C5.31429 11.7 7.74 11.5714 9.68571 9.68571C11.5714 7.74 11.7086 5.31429 11.8714 0ZM14.3143 9.68571C12.4286 7.74 12.2914 5.31429 12.1286 0C17.0829 0 20.5029 0.0171428 22.2686 1.73143C23.9829 3.49714 24 7.08 24 11.8714C18.6857 11.7 16.26 11.5714 14.3143 9.68571Z" fill="currentColor"/>
  </g>
  <defs>
    <clipPath id="clip0_280_5421">
      <rect width="24" height="24" fill="white"/>
    </clipPath>
  </defs>
</svg>

<svg id="mailru-m" viewBox="0 0 24 24" fill="none" xmlns="http://www.w3.org/2000/svg">
  <g clip-path="url(#clip0_280_5424)">
    <path d="M11.5858 5.26575C13.418 5.26575 15.1445 6.078 16.4098 7.34775V7.3515C16.4098 6.74175 16.82 6.2805 17.387 6.2805H17.531C18.4258 6.2805 18.605 7.12425 18.605 7.3905L18.6088 16.8668C18.5465 17.4878 19.25 17.8088 19.6408 17.4098C21.1595 15.8475 22.9798 9.3705 18.695 5.6205C14.699 2.12026 9.33579 2.6985 6.48429 4.6635C3.45354 6.7575 1.51629 11.3828 3.39804 15.7298C5.45304 20.469 11.3278 21.8828 14.8243 20.4728C16.5943 19.758 17.4103 22.1475 15.5705 22.9298C12.7978 24.1125 5.07054 23.9918 1.46154 17.742C-0.976709 13.5203 -0.84771 6.09375 5.62179 2.24625C10.5665 -0.698995 17.0908 0.117005 21.0238 4.22325C25.1338 8.52 24.896 16.5593 20.8835 19.6845C19.0663 21.1058 16.3678 19.7235 16.3873 17.6528L16.367 16.9778C15.1018 18.231 13.418 18.966 11.5858 18.966C7.96104 18.966 4.76979 15.774 4.76979 12.153C4.76979 8.493 7.96104 5.26725 11.5858 5.26725V5.26575ZM16.145 11.8913C16.0078 9.2385 14.039 7.641 11.66 7.641H11.57C8.82804 7.641 7.30479 9.801 7.30479 12.2498C7.30479 14.9955 9.14454 16.7295 11.5588 16.7295C14.2535 16.7295 16.0228 14.7578 16.1518 12.4253L16.145 11.8913Z" fill="currentColor"/>
  </g>
  <defs>
    <clipPath id="clip0_280_5424">
      <rect width="24" height="24" fill="white"/>
    </clipPath>
  </defs>
</svg>

<svg id="arr-thin" viewBox="0 0 30 30" fill="none" xmlns="http://www.w3.org/2000/svg">
  <path d="M27 15.5L22 20L21.5 19L24.4252 16.1537H14.2126H4V14.8464L24.4254 14.8464L21 12L22 11L27 15.5Z" fill="currentColor" fill-opacity="0.7"/>
  <path d="M27 15.5L22 20L21.5 19L24.4252 16.1537H14.2126H4V14.8464L24.4254 14.8464L21 12L22 11L27 15.5Z" stroke="transparent"/>
</svg>

<svg id="close-filter" viewBox="0 0 14 14" fill="none" xmlns="http://www.w3.org/2000/svg">
  <g clip-path="url(#clip0_90_1994)">
    <path d="M13 13L1 1M13 1L1 13" stroke="currentColor" stroke-linecap="round" stroke-linejoin="round"/>
  </g>
  <defs>
    <clipPath id="clip0_90_1994">
      <rect width="14" height="14" fill="white"/>
    </clipPath>
  </defs>
</svg>

<svg id="basket-close" viewBox="0 0 21 21" fill="none" xmlns="http://www.w3.org/2000/svg">
  <path d="M18 18L3 3M18 3L3 18" stroke="#0C0C0C" stroke-linecap="round" stroke-linejoin="round"/>
</svg>




<!--  -->

<svg id="form1" viewBox="0 0 35 50" fill="none" xmlns="http://www.w3.org/2000/svg">
  <g clip-path="url(#clip0_90_1997)">
    <rect width="34.5" height="50" fill="white"/>
    <rect x="0.75" y="7.25" width="33" height="33" rx="5.25" stroke="currentColor" stroke-width="1.5"/>
    <rect x="4.75" y="11.25" width="25" height="25" rx="3.25" stroke="currentColor" stroke-width="1.5"/>
    <circle cx="17.498" cy="17" r="1.1875" stroke="currentColor" stroke-width="0.625"/>
  </g>
  <defs>
    <clipPath id="clip0_90_1997">
      <rect width="34.5" height="50" fill="white"/>
    </clipPath>
  </defs>
</svg>


<svg id="form2"  viewBox="0 0 51 50" fill="none" xmlns="http://www.w3.org/2000/svg">
  <g clip-path="url(#clip0_90_2001)">
  <rect width="50" height="50" transform="translate(0.5)" fill="white"/>
  <rect x="1.25195" y="7.25" width="48.5" height="33" rx="5.25" stroke="currentColor" stroke-width="1.5"/>
  <rect x="5.25" y="11.25" width="24" height="25" rx="3.25" stroke="currentColor" stroke-width="1.5"/>
  <circle cx="9.50195" cy="23.5" r="1.1875" stroke="currentColor" stroke-width="0.625"/>
  <rect x="33.502" y="15.5" width="13.5" height="1" fill="currentColor"/>
  <rect x="33.502" y="18.5" width="13.5" height="1" fill="currentColor"/>
  <rect x="33.502" y="21.5" width="13.5" height="1" fill="currentColor"/>
  <rect x="33.502" y="24.5" width="13.5" height="1" fill="currentColor"/>
  <rect x="33.502" y="27.5" width="13.5" height="1" fill="currentColor"/>
  <rect x="33.502" y="30.5" width="13.5" height="1" fill="currentColor"/>
  </g>
  <defs>
  <clipPath id="clip0_90_2001">
  <rect width="50" height="50" fill="white" transform="translate(0.5)"/>
  </clipPath>
  </defs>
</svg>

<svg id="form3" viewBox="0 0 51 50" fill="none" xmlns="http://www.w3.org/2000/svg">
  <g clip-path="url(#clip0_90_2012)">
    <rect width="50" height="50" transform="translate(0.5)" fill="white"/>
    <rect x="1.25" y="7.25" width="48.5" height="33" rx="5.25" stroke="currentColor" stroke-width="1.5"/>
    <rect x="5.25" y="11.25" width="26.5" height="25" rx="3.25" stroke="currentColor" stroke-width="1.5"/>
    <circle cx="18" cy="17" r="1.1875" stroke="currentColor" stroke-width="0.625"/>
    <rect x="34.75" y="11.25" width="11" height="25" rx="3.25" stroke="currentColor" stroke-width="1.5"/>
    <circle cx="40.5" cy="17" r="1.1875" stroke="currentColor" stroke-width="0.625"/>
  </g>
  <defs>
    <clipPath id="clip0_90_2012">
      <rect width="50" height="50" fill="white" transform="translate(0.5)"/>
    </clipPath>
  </defs>
</svg>

<svg id="form4" viewBox="0 0 51 50" fill="none" xmlns="http://www.w3.org/2000/svg">
  <g clip-path="url(#clip0_90_2018)">
    <rect width="50" height="50" transform="translate(0.5)" fill="white"/>
    <rect x="1.25" y="7.25" width="48.5" height="33" rx="5.25" stroke="currentColor" stroke-width="1.5"/>
    <rect x="5.25" y="11.25" width="19" height="25" rx="3.25" stroke="currentColor" stroke-width="1.5"/>
    <circle cx="15" cy="17" r="1.1875" stroke="currentColor" stroke-width="0.625"/>
    <rect x="26.75" y="11.25" width="19" height="25" rx="3.25" stroke="currentColor" stroke-width="1.5"/>
    <circle cx="36.501" cy="17" r="1.1875" stroke="currentColor" stroke-width="0.625"/>
  </g>
  <defs>
    <clipPath id="clip0_90_2018">
      <rect width="50" height="50" fill="white" transform="translate(0.5)"/>
    </clipPath>
  </defs>
</svg>

<svg id="form5" viewBox="0 0 35 50" fill="none" xmlns="http://www.w3.org/2000/svg">
  <g clip-path="url(#clip0_90_2024)">
    <rect width="34.5" height="50" fill="white"/>
    <rect x="0.75" y="7.25" width="33" height="33" rx="16.5" stroke="currentColor" stroke-width="1.5"/>
    <rect x="4.74805" y="11.25" width="25" height="25" rx="12.5" stroke="currentColor" stroke-width="1.5"/>
    <circle cx="17.498" cy="17" r="1.1875" stroke="currentColor" stroke-width="0.625"/>
  </g>
  <defs>
    <clipPath id="clip0_90_2024">
      <rect width="34.5" height="50" fill="white"/>
    </clipPath>
  </defs>
</svg>

<svg id="form6" viewBox="0 0 51 50" fill="none" xmlns="http://www.w3.org/2000/svg">
  <g clip-path="url(#clip0_90_2028)">
  <rect width="50" height="50" transform="translate(0.5)" fill="white"/>
  <rect x="1.25195" y="7.25" width="48.5" height="33" rx="16.5" stroke="currentColor" stroke-width="1.5"/>
  <rect x="5.25" y="11.25" width="24" height="25" rx="12" stroke="currentColor" stroke-width="1.5"/>
  <circle cx="10.5" cy="23.5" r="1.1875" stroke="currentColor" stroke-width="0.625"/>
  <rect x="32.502" y="15.5" width="12.5" height="1" rx="0.5" fill="currentColor"/>
  <rect x="32.502" y="18.5" width="12.5" height="1" rx="0.5" fill="currentColor"/>
  <rect x="32.502" y="21.5" width="12.5" height="1" rx="0.5" fill="currentColor"/>
  <rect x="32.502" y="24.5" width="12.5" height="1" rx="0.5" fill="currentColor"/>
  <rect x="32.502" y="27.5" width="12.5" height="1" rx="0.5" fill="currentColor"/>
  <rect x="32.502" y="30.5" width="12.5" height="1" rx="0.5" fill="currentColor"/>
  </g>
  <defs>
  <clipPath id="clip0_90_2028">
  <rect width="50" height="50" fill="white" transform="translate(0.5)"/>
  </clipPath>
  </defs>
</svg>

<svg id="form7" viewBox="0 0 51 50" fill="none" xmlns="http://www.w3.org/2000/svg">
  <rect width="50" height="50" transform="translate(0.5)" fill="white"/>
  <path d="M46.8039 13.7788C29.3349 2.86388 12.1982 8.40654 3.69166 13.7338C2.40332 14.5407 2.07857 16.2261 2.84671 17.5379L15.131 38.5159C15.6692 39.4352 16.6546 40 17.7198 40H34.1867C35.3016 40 36.3246 39.3817 36.8429 38.3945L47.7766 17.5683C48.4766 16.235 48.081 14.5768 46.8039 13.7788Z" stroke="currentColor" stroke-width="1.5"/>
  <rect x="16.252" y="11.75" width="18.5" height="24.5" rx="1.25" stroke="currentColor" stroke-width="1.5"/>
  <circle cx="25.5" cy="32" r="0.75" stroke="currentColor" stroke-width="1.5"/>
  <rect x="37" y="15.5" width="8" height="1" fill="currentColor"/>
  <rect x="37" y="18" width="7" height="1" fill="currentColor"/>
  <rect x="37" y="20.5" width="6" height="1" fill="currentColor"/>
  <rect width="8" height="1" transform="matrix(-1 0 0 1 14 15.5)" fill="currentColor"/>
  <rect width="7" height="1" transform="matrix(-1 0 0 1 14 18)" fill="currentColor"/>
  <rect width="6" height="1" transform="matrix(-1 0 0 1 14 20.5)" fill="currentColor"/>
</svg>

<svg id="form8" viewBox="0 0 40 40" fill="none" xmlns="http://www.w3.org/2000/svg">
  <path d="M17.2319 36.552C17.2319 36.704 17.1119 36.856 16.9039 36.976C16.3439 37.328 15.1119 37.568 13.6799 37.568C12.2479 37.568 11.0159 37.32 10.4559 36.976C10.2479 36.848 10.1279 36.704 10.1279 36.552" stroke="currentColor" stroke-miterlimit="10"/>
  <path d="M17.2319 35.2081C17.2319 35.3601 17.1119 35.5121 16.9039 35.6321C16.3439 35.9841 15.1119 36.2241 13.6799 36.2241C12.2479 36.2241 11.0159 35.9761 10.4559 35.6321C10.2479 35.5041 10.1279 35.3601 10.1279 35.2081C10.1279 34.6481 11.7199 34.1841 13.6799 34.1841C15.6399 34.1841 17.2319 34.6481 17.2319 35.2081Z" fill="white" stroke="currentColor" stroke-miterlimit="10"/>
  <path d="M16.1838 26.3521V34.7521C14.5118 35.2801 12.8478 35.2801 11.1758 34.7521V26.3521" fill="white"/>
  <path d="M16.1838 26.3521V34.7521C14.5118 35.2801 12.8478 35.2801 11.1758 34.7521V26.3521" stroke="currentColor" stroke-linejoin="round"/>
  <path d="M13.6798 27.1761C15.0627 27.1761 16.1838 26.8072 16.1838 26.3521C16.1838 25.897 15.0627 25.5281 13.6798 25.5281C12.2969 25.5281 11.1758 25.897 11.1758 26.3521C11.1758 26.8072 12.2969 27.1761 13.6798 27.1761Z" stroke="currentColor" stroke-miterlimit="10"/>
  <path d="M17.2319 36.5521V35.2161" stroke="currentColor" stroke-miterlimit="10"/>
  <path d="M10.1279 36.5521V35.2161" stroke="currentColor" stroke-miterlimit="10"/>
  <path d="M15.9038 27.432L19.9758 26.656C21.2398 26.656 22.2638 27.68 22.2638 28.944C22.2638 30.016 21.5278 30.92 20.5278 31.168L20.3918 31.184L16.3598 31.888" stroke="currentColor" stroke-miterlimit="10"/>
  <path d="M16.8799 27.2401C18.0719 27.2081 19.1039 28.1041 19.2159 29.3041C19.3119 30.3121 18.7439 31.2321 17.8639 31.6161" stroke="currentColor" stroke-miterlimit="10"/>
  <path d="M20.3761 20.7439C20.3761 20.3861 20.086 20.0959 19.7281 20.0959C19.3702 20.0959 19.0801 20.3861 19.0801 20.7439V26.5199C19.0801 26.8778 19.3702 27.1679 19.7281 27.1679C20.086 27.1679 20.3761 26.8778 20.3761 26.5199V20.7439Z" fill="white" stroke="currentColor" stroke-miterlimit="10"/>
  <path d="M32.7039 4.93611L15.4559 5.70411C15.1919 5.70411 14.9759 5.92011 14.9759 6.18411V25.8481C14.1199 26.0721 13.2879 26.0801 12.4639 25.8481V5.70411C12.4639 4.32011 13.5839 3.19211 14.9759 3.19211L32.7039 2.46411C32.7039 2.46411 33.2479 2.88811 33.2479 3.65611C33.2479 4.75211 32.7039 4.94411 32.7039 4.94411V4.93611Z" fill="white" stroke="currentColor" stroke-linejoin="round"/>
  <path d="M28.3439 2.69604C28.3439 2.69604 27.8799 3.29605 27.9519 3.98405C28.0319 4.72005 28.4559 5.17604 28.4559 5.17604" stroke="currentColor" stroke-linejoin="round"/>
  <path d="M32.5922 2.46411C32.5922 2.46411 32.0882 3.03211 32.1122 3.72011C32.1442 4.46411 32.5282 4.94411 32.5282 4.94411" stroke="currentColor" stroke-linejoin="round"/>
  <path d="M32.1118 5.24805V5.96005C31.4158 6.07205 30.7358 6.08805 30.0718 5.96005V5.24805" stroke="currentColor" stroke-linejoin="round"/>
</svg>

<svg id="form9" viewBox="0 0 40 40" fill="none" xmlns="http://www.w3.org/2000/svg">
  <path d="M18.2798 36.28C18.2798 36.432 18.1598 36.584 17.9518 36.704C17.3918 37.056 16.1598 37.296 14.7278 37.296C13.2958 37.296 12.0638 37.048 11.5038 36.704C11.2958 36.576 11.1758 36.432 11.1758 36.28" stroke="currentColor" stroke-miterlimit="10"/>
  <path d="M18.2798 34.9439C18.2798 35.0959 18.1598 35.2479 17.9518 35.3679C17.3918 35.7199 16.1598 35.9599 14.7278 35.9599C13.2958 35.9599 12.0638 35.7119 11.5038 35.3679C11.2958 35.2399 11.1758 35.0959 11.1758 34.9439C11.1758 34.3839 12.7678 33.9199 14.7278 33.9199C16.6878 33.9199 18.2798 34.3839 18.2798 34.9439Z" fill="white" stroke="currentColor" stroke-miterlimit="10"/>
  <path d="M17.2321 26.0879V34.4879C15.5601 35.0159 13.8961 35.0159 12.2241 34.4879V26.0879" fill="white"/>
  <path d="M17.2321 26.0879V34.4879C15.5601 35.0159 13.8961 35.0159 12.2241 34.4879V26.0879" stroke="currentColor" stroke-linejoin="round"/>
  <path d="M14.7281 26.9119C16.111 26.9119 17.2321 26.543 17.2321 26.0879C17.2321 25.6328 16.111 25.2639 14.7281 25.2639C13.3452 25.2639 12.2241 25.6328 12.2241 26.0879C12.2241 26.543 13.3452 26.9119 14.7281 26.9119Z" stroke="currentColor" stroke-miterlimit="10"/>
  <path d="M18.2798 36.2801V34.9441" stroke="currentColor" stroke-miterlimit="10"/>
  <path d="M11.1758 36.2801V34.9441" stroke="currentColor" stroke-miterlimit="10"/>
  <path d="M16.9438 27.1681L21.0158 26.3921C22.2798 26.3921 23.3038 27.4161 23.3038 28.6801C23.3038 29.7521 22.5678 30.6561 21.5678 30.9041L21.4318 30.9201L17.3998 31.6241" stroke="currentColor" stroke-miterlimit="10"/>
  <path d="M17.9199 26.9759C19.1119 26.9439 20.1439 27.8399 20.2559 29.0399C20.3519 30.0479 19.7839 30.9679 18.9039 31.3519" stroke="currentColor" stroke-miterlimit="10"/>
  <path d="M21.4239 20.48C21.4239 20.1222 21.1338 19.832 20.7759 19.832C20.418 19.832 20.1279 20.1222 20.1279 20.48V26.256C20.1279 26.6139 20.418 26.904 20.7759 26.904C21.1338 26.904 21.4239 26.6139 21.4239 26.256V20.48Z" fill="white" stroke="currentColor" stroke-miterlimit="10"/>
  <path d="M31.4642 4.59208V5.44008H31.4562V11.0481C30.5922 11.3841 29.7522 11.4241 28.9442 11.0481V5.07208C28.9442 4.80808 28.7282 4.59208 28.4642 4.59208L16.5042 5.44008C16.2402 5.44008 16.0242 5.65608 16.0242 5.92008V25.5841C15.1682 25.8081 14.3362 25.8161 13.5122 25.5841V5.44008C13.5122 4.05608 14.6322 2.92808 16.0242 2.92808L28.9522 2.08008C30.3362 2.08008 31.4642 3.20008 31.4642 4.59208Z" fill="white" stroke="currentColor" stroke-linejoin="round"/>
  <path d="M31.4558 7.27197V9.28797C30.5918 9.61597 29.7598 9.65597 28.9438 9.28797V7.27197" stroke="currentColor" stroke-linejoin="round"/>
</svg>

<svg id="form10" viewBox="0 0 22 39" fill="none" xmlns="http://www.w3.org/2000/svg">
  <path d="M8.0957 36.9192C8.0957 37.0736 7.9757 37.2208 7.7677 37.3464C7.2077 37.6968 5.9757 37.9416 4.5437 37.9416C3.1117 37.9416 1.8797 37.696 1.3197 37.3464C1.1117 37.22 0.991699 37.0728 0.991699 36.9192" stroke="currentColor" stroke-miterlimit="10"/>
  <path d="M8.0957 35.5798C8.0957 35.7342 7.9757 35.8814 7.7677 36.007C7.2077 36.3574 5.9757 36.6022 4.5437 36.6022C3.1117 36.6022 1.8797 36.3566 1.3197 36.007C1.1117 35.8806 0.991699 35.7334 0.991699 35.5798C0.991699 35.019 2.5837 34.5566 4.5437 34.5566C6.5037 34.5566 8.0957 35.019 8.0957 35.5798Z" fill="white" stroke="currentColor" stroke-miterlimit="10"/>
  <path d="M7.04786 26.7207V35.1183C5.37826 35.6439 3.70866 35.6439 2.03906 35.1183C2.03906 32.3191 2.03906 29.5199 2.03906 26.7207" fill="white"/>
  <path d="M7.04786 26.7207V35.1183C5.37826 35.6439 3.70866 35.6439 2.03906 35.1183C2.03906 32.3191 2.03906 29.5199 2.03906 26.7207" stroke="currentColor" stroke-miterlimit="10" stroke-linejoin="round"/>
  <path d="M4.54355 27.5439C5.92647 27.5439 7.04755 27.1753 7.04755 26.7207C7.04755 26.266 5.92647 25.8975 4.54355 25.8975C3.16063 25.8975 2.03955 26.266 2.03955 26.7207C2.03955 27.1753 3.16063 27.5439 4.54355 27.5439Z" stroke="currentColor" stroke-miterlimit="10"/>
  <path d="M8.0957 36.919C8.0957 36.4726 8.0957 36.0262 8.0957 35.5798" stroke="currentColor" stroke-miterlimit="10"/>
  <path d="M0.991699 36.919C0.991699 36.4726 0.991699 36.0262 0.991699 35.5798" stroke="currentColor" stroke-miterlimit="10"/>
  <path d="M18.838 9.99992C18.1892 5.64471 15.2188 3.27751 12.2948 3.38231C8.47795 3.51831 6.03715 6.04872 5.83475 9.70391V26.3127C4.98195 26.5343 4.14435 26.5431 3.32275 26.3127V10.0111C3.32275 5.35591 6.71715 1.49111 11.3524 1.06071C16.5548 0.576715 20.6276 5.01512 20.994 9.44792" fill="white"/>
  <path d="M18.838 9.99991C18.1892 5.64471 15.2188 3.27751 12.2948 3.38231C8.47795 3.51831 6.03715 6.04871 5.83475 9.70391V26.3127C4.98195 26.5343 4.14435 26.5431 3.32275 26.3127V10.0111C3.32275 5.35591 6.71715 1.49111 11.3524 1.06071C16.5548 0.576715 20.6276 5.01512 20.994 9.44792" stroke="currentColor" stroke-miterlimit="10" stroke-linejoin="round"/>
  <path d="M6.76514 27.804L10.8371 27.0288C12.1011 27.0288 13.1259 28.0536 13.1259 29.3176C13.1259 30.3904 12.3883 31.2904 11.3923 31.5392L11.2555 31.5584L7.22434 32.2656" stroke="currentColor" stroke-miterlimit="10"/>
  <path d="M7.74121 27.6134C8.93161 27.5806 9.96201 28.475 10.0796 29.679C10.178 30.6862 9.60841 31.6054 8.73081 31.995" stroke="currentColor" stroke-miterlimit="10"/>
  <path d="M10.5959 27.544C10.2375 27.544 9.94629 27.2527 9.94629 26.8943V21.1184C9.94629 20.76 10.2375 20.4688 10.5959 20.4688C10.9543 20.4688 11.2455 20.76 11.2455 21.1184V26.8943C11.2455 27.2527 10.9543 27.544 10.5959 27.544Z" fill="white" stroke="currentColor" stroke-miterlimit="10"/>
  <path d="M20.0879 10.3181C20.6832 10.1533 21.0893 9.74353 20.995 9.40287C20.9007 9.0622 20.3417 8.91963 19.7464 9.08442C19.1511 9.24922 18.7449 9.65898 18.8392 9.99964C18.9335 10.3403 19.4926 10.4829 20.0879 10.3181Z" fill="white" stroke="currentColor" stroke-miterlimit="10"/>
  <path d="M18.3725 8.04385C18.2813 7.71345 18.6949 7.30945 19.2981 7.14305C19.9013 6.97665 20.4637 7.10945 20.5549 7.43985" stroke="currentColor" stroke-miterlimit="10"/>
  <path d="M18.4012 8.17194C18.31 7.84154 18.7284 7.43674 19.3364 7.26794C19.9444 7.09994 20.5116 7.23114 20.6036 7.56234" stroke="currentColor" stroke-miterlimit="10"/>
</svg>

<svg id="form11" viewBox="0 0 35 34" fill="none" xmlns="http://www.w3.org/2000/svg">
  <path d="M20.7002 24.8506C20.7002 24.8506 18.0634 31.9082 17.941 31.9082C16.3154 32.8538 14.6522 32.8146 12.957 31.9082C12.845 31.9082 9.79297 24.4458 9.79297 24.4458" fill="white"/>
  <path d="M20.7002 24.8506C20.7002 24.8506 18.0634 31.9082 17.941 31.9082C16.3154 32.8538 14.6522 32.8146 12.957 31.9082C12.845 31.9082 9.79297 24.4458 9.79297 24.4458" stroke="currentColor" stroke-miterlimit="10" stroke-linejoin="round"/>
  <path d="M14.2277 22.1453C14.4389 22.5477 13.6173 23.3949 12.3925 24.0381C11.1677 24.6805 10.0037 24.8749 9.79248 24.4725" stroke="currentColor" stroke-miterlimit="10"/>
  <path d="M13.4277 21.2532C13.7541 21.4716 14.0325 21.7724 14.2277 22.1452L13.4277 21.2532Z" fill="white"/>
  <path d="M13.4277 21.2532C13.7541 21.4716 14.0325 21.7724 14.2277 22.1452" stroke="currentColor" stroke-miterlimit="10"/>
  <path d="M9.79256 24.4724C9.61416 24.1324 9.52376 23.7692 9.51416 23.4092L9.79256 24.4724Z" fill="white"/>
  <path d="M9.79256 24.4724C9.61416 24.1324 9.52376 23.7692 9.51416 23.4092" stroke="currentColor" stroke-miterlimit="10"/>
  <path d="M19.8569 24.1804C20.3737 24.3444 20.7001 24.5844 20.7001 24.8508C20.7001 25.3452 19.5809 25.746 18.2009 25.746C16.8201 25.746 15.7017 25.3452 15.7017 24.8508C15.7017 24.5852 16.0233 24.3476 16.5345 24.1836" fill="white"/>
  <path d="M19.8569 24.1804C20.3737 24.3444 20.7001 24.5844 20.7001 24.8508C20.7001 25.3452 19.5809 25.746 18.2009 25.746C16.8201 25.746 15.7017 25.3452 15.7017 24.8508C15.7017 24.5852 16.0233 24.3476 16.5345 24.1836" stroke="currentColor" stroke-miterlimit="10"/>
  <path d="M18.2001 23.1028C19.1204 23.1028 19.8665 22.8356 19.8665 22.506C19.8665 22.1764 19.1204 21.9092 18.2001 21.9092C17.2798 21.9092 16.5337 22.1764 16.5337 22.506C16.5337 22.8356 17.2798 23.1028 18.2001 23.1028Z" fill="white" stroke="currentColor" stroke-miterlimit="10"/>
  <path d="M19.8665 24.1499C19.8665 24.4795 19.1209 24.7467 18.2001 24.7467C17.2801 24.7467 16.5337 24.4795 16.5337 24.1499" fill="white"/>
  <path d="M19.8665 24.1499C19.8665 24.4795 19.1209 24.7467 18.2001 24.7467C17.2801 24.7467 16.5337 24.4795 16.5337 24.1499" stroke="currentColor" stroke-miterlimit="10"/>
  <path d="M16.5342 24.1499V22.5059" stroke="currentColor" stroke-miterlimit="10"/>
  <path d="M19.8662 24.1499V22.5059" stroke="currentColor" stroke-miterlimit="10"/>
  <path d="M17.0455 14.7539C16.7207 4.78591 22.9015 -0.025293 29.8247 1.18271C31.7783 1.60591 32.7687 2.31071 33.2519 2.81391C33.5167 3.08991 33.6791 3.44431 33.7191 3.82511L33.8439 5.00111C33.8559 5.11311 33.7767 5.21471 33.6647 5.22991C33.2135 5.66271 32.5911 5.74111 31.8063 5.48431C31.6911 5.50031 31.5855 5.41871 31.5711 5.30351L31.5015 4.76031C31.3783 3.86511 30.7991 3.30191 29.9935 3.13231C24.1735 1.91791 18.6559 5.95151 19.2495 14.7539L19.2911 21.8787C18.5367 22.2243 17.7879 22.2507 17.0463 21.8819L17.0455 14.7539Z" fill="white" stroke="currentColor" stroke-miterlimit="10"/>
  <path d="M33.7759 5.11304L33.9383 6.36744C33.9487 6.49704 33.8535 6.61064 33.7247 6.62504C33.2663 6.98424 32.7263 7.00744 32.1295 6.79704C31.9943 6.81144 31.8743 6.71144 31.8647 6.57624L31.7031 5.25144" stroke="currentColor" stroke-miterlimit="10"/>
  <path d="M9.34898 18.4371C10.565 17.7779 11.7322 17.5899 11.937 17.9795C12.1418 18.3691 11.3554 19.2915 10.0898 19.8483C7.87938 20.8203 1.00098 23.1187 1.00098 23.1187C1.00098 23.1187 7.24578 19.5779 9.34898 18.4371Z" stroke="currentColor" stroke-miterlimit="10" stroke-linecap="round" stroke-linejoin="round"/>
  <path d="M1 23.1187C4.3544 21.9099 7.9176 20.3875 8.6136 23.1979C8.8472 23.6435 10.172 23.4091 11.572 22.6747C12.972 21.9403 13.9176 20.9835 13.684 20.5387L11.9368 17.9795" stroke="currentColor" stroke-miterlimit="10"/>
  <path d="M14.228 22.145L15.7008 24.8506" stroke="currentColor" stroke-miterlimit="10"/>
</svg>

<svg id="form12" viewBox="0 0 29 21" fill="none" xmlns="http://www.w3.org/2000/svg">
  <path d="M8.50439 19.3533C8.50439 19.5077 8.38439 19.6549 8.17639 19.7805C7.61639 20.1309 6.38439 20.3757 4.95239 20.3757C3.52039 20.3757 2.28839 20.1301 1.72839 19.7805C1.52039 19.6541 1.40039 19.5069 1.40039 19.3533" stroke="currentColor" stroke-miterlimit="10"/>
  <path d="M8.50439 18.0134C8.50439 18.1678 8.38439 18.315 8.17639 18.4406C7.61639 18.791 6.38439 19.0358 4.95239 19.0358C3.52039 19.0358 2.28839 18.7902 1.72839 18.4406C1.52039 18.3142 1.40039 18.167 1.40039 18.0134C1.40039 17.4526 2.99239 16.9902 4.95239 16.9902C6.91239 16.991 8.50439 17.4534 8.50439 18.0134Z" fill="white" stroke="currentColor" stroke-miterlimit="10"/>
  <path d="M7.45655 6.96777V17.4542C5.78695 18.1102 4.11735 18.1102 2.44775 17.4542C2.44775 13.959 2.44775 10.463 2.44775 6.96777" fill="white"/>
  <path d="M7.45655 6.96777V17.4542C5.78695 18.1102 4.11735 18.1102 2.44775 17.4542C2.44775 13.959 2.44775 10.463 2.44775 6.96777" stroke="currentColor" stroke-miterlimit="10" stroke-linejoin="round"/>
  <path d="M7.45624 6.96777C7.45624 7.42217 6.33464 7.79097 4.95224 7.79097C3.56984 7.79097 2.44824 7.42217 2.44824 6.96777" stroke="currentColor" stroke-miterlimit="10"/>
  <path d="M7.45624 13.2622C7.45624 13.7166 6.33464 14.0854 4.95224 14.0854C3.56984 14.0854 2.44824 13.7166 2.44824 13.2622" stroke="currentColor" stroke-miterlimit="10"/>
  <path d="M8.50439 19.3534C8.50439 18.907 8.50439 18.4606 8.50439 18.0142" stroke="currentColor" stroke-miterlimit="10"/>
  <path d="M1.40039 19.3534C1.40039 18.907 1.40039 18.4606 1.40039 18.0142" stroke="currentColor" stroke-miterlimit="10"/>
  <path d="M7.45654 16.7294V14.551L21.2477 5.32778C21.8061 4.95418 22.4029 4.63018 23.0453 4.43258C23.8189 4.19418 24.6253 4.07178 25.4389 4.07178H28.1997C28.3309 4.07178 28.4373 4.17818 28.4373 4.30938V5.95578H25.4229C24.4973 5.95578 23.5813 6.23018 22.7125 6.59178C22.2549 6.78218 21.8181 7.02058 21.4053 7.29498L7.45654 16.7294Z" fill="white" stroke="currentColor" stroke-miterlimit="10"/>
  <path d="M7.1626 5.80615C7.3498 6.15175 7.457 6.54695 7.457 6.96775L7.1626 5.80615Z" fill="white"/>
  <path d="M7.1626 5.80615C7.3498 6.15175 7.457 6.54695 7.457 6.96775" stroke="currentColor" stroke-miterlimit="10"/>
  <path d="M2.44775 6.96768C2.44775 6.58368 2.53655 6.21968 2.69495 5.89648L2.44775 6.96768Z" fill="white"/>
  <path d="M2.44775 6.96768C2.44775 6.58368 2.53655 6.21968 2.69495 5.89648" stroke="currentColor" stroke-miterlimit="10"/>
  <path d="M26.0731 7.40043H28.1995C28.3307 7.40043 28.4379 7.29403 28.4379 7.16203V5.97803H25.8355V7.16203C25.8347 7.29323 25.9419 7.40043 26.0731 7.40043Z" fill="white" stroke="currentColor" stroke-miterlimit="10"/>
  <path d="M4.80225 1.43412C3.41905 1.45812 2.31025 1.86932 2.32385 2.30932C2.33745 2.74932 3.47585 3.16532 4.85185 3.02692C7.25425 2.78532 14.3735 1.40052 14.3735 1.40052C14.3735 1.40052 7.19505 1.39252 4.80225 1.43412Z" stroke="currentColor" stroke-miterlimit="10" stroke-linecap="round" stroke-linejoin="round"/>
  <path d="M14.3742 1.40063C10.859 1.99983 7.00779 2.42703 7.78539 5.21663C7.80139 5.71903 6.53339 6.16703 4.95259 6.21663C3.37259 6.26623 2.07899 5.89903 2.06299 5.39663L2.32379 2.30863" stroke="currentColor" stroke-miterlimit="10"/>
</svg>

<!--   -->


<svg id="sort"  viewBox="0 0 18 18" fill="none" xmlns="http://www.w3.org/2000/svg">
  <path d="M1.125 5.0625H16.875M3.9375 9H14.0625M7.3125 12.9375H10.6875" stroke="currentColor" stroke-width="1.5" stroke-linecap="round" stroke-linejoin="round"/>
</svg>

<svg id="arr-d" viewBox="0 0 17 9" fill="none" xmlns="http://www.w3.org/2000/svg">
  <path d="M16 1L8.5 7L1 1" stroke="currentColor" stroke-width="2"/>
</svg>

<svg id="active-filter-close"  viewBox="0 0 10 10" fill="none" xmlns="http://www.w3.org/2000/svg">
  <g clip-path="url(#clip0_124_272)">
    <path d="M9.2853 9.28578L0.713867 0.714355M9.2853 0.714355L0.713867 9.28578" stroke="currentColor" stroke-linecap="round" stroke-linejoin="round"/>
  </g>
  <defs>
    <clipPath id="clip0_124_272">
      <rect width="10" height="10" fill="white"/>
    </clipPath>
  </defs>
</svg>

<svg id="header-close" viewBox="0 0 22 22" fill="none" xmlns="http://www.w3.org/2000/svg">
  <path d="M21.2853 21.2858L0.713867 0.714355M21.2853 0.714355L0.713867 21.2858" stroke="currentColor" stroke-linecap="round" stroke-linejoin="round"/>
</svg>

<svg id="slider-arr-l" viewBox="0 0 44 44" fill="none" xmlns="http://www.w3.org/2000/svg">
  <path d="M20.1393 12.1466C20.1918 12.1931 20.2335 12.2482 20.262 12.3089C20.2904 12.3696 20.305 12.4347 20.305 12.5004C20.305 12.5661 20.2904 12.6311 20.262 12.6918C20.2335 12.7525 20.1918 12.8077 20.1393 12.8541L10.9306 21.0001H34.4348C34.5847 21.0001 34.7285 21.0528 34.8345 21.1465C34.9405 21.2403 35 21.3675 35 21.5001C35 21.6327 34.9405 21.7598 34.8345 21.8536C34.7285 21.9474 34.5847 22 34.4348 22H10.9306L20.1393 30.146C20.1918 30.1925 20.2334 30.2476 20.2619 30.3083C20.2903 30.369 20.3049 30.434 20.3049 30.4997C20.3049 30.5654 20.2903 30.6305 20.2619 30.6912C20.2334 30.7519 20.1918 30.807 20.1393 30.8535C20.0868 30.8999 20.0244 30.9368 19.9558 30.9619C19.8872 30.9871 19.8137 31 19.7394 31C19.6651 31 19.5916 30.9871 19.523 30.9619C19.4544 30.9368 19.392 30.8999 19.3395 30.8535L9.16577 21.8538C9.11322 21.8074 9.07153 21.7522 9.04308 21.6915C9.01464 21.6308 9 21.5658 9 21.5001C9 21.4344 9.01464 21.3693 9.04308 21.3086C9.07153 21.2479 9.11322 21.1928 9.16577 21.1463L19.3395 12.1466C19.392 12.1002 19.4543 12.0633 19.523 12.0381C19.5916 12.013 19.6651 12 19.7394 12C19.8137 12 19.8872 12.013 19.9558 12.0381C20.0244 12.0633 20.0868 12.1002 20.1393 12.1466Z" fill="currentColor"/>
</svg>

<svg id="slider-arr-r" viewBox="0 0 44 44" fill="none" xmlns="http://www.w3.org/2000/svg">
  <path d="M23.8607 30.8534C23.8082 30.8069 23.7665 30.7518 23.738 30.6911C23.7096 30.6304 23.695 30.5653 23.695 30.4996C23.695 30.4339 23.7096 30.3689 23.738 30.3082C23.7665 30.2475 23.8082 30.1923 23.8607 30.1459L33.0694 21.9999H9.56521C9.41531 21.9999 9.27154 21.9472 9.16555 21.8535C9.05955 21.7597 9 21.6325 9 21.4999C9 21.3673 9.05955 21.2402 9.16555 21.1464C9.27154 21.0526 9.41531 21 9.56521 21H33.0694L23.8607 12.854C23.8082 12.8075 23.7666 12.7524 23.7381 12.6917C23.7097 12.631 23.6951 12.566 23.6951 12.5003C23.6951 12.4346 23.7097 12.3695 23.7381 12.3088C23.7666 12.2481 23.8082 12.193 23.8607 12.1465C23.9132 12.1001 23.9756 12.0632 24.0442 12.0381C24.1128 12.0129 24.1863 12 24.2606 12C24.3349 12 24.4084 12.0129 24.477 12.0381C24.5456 12.0632 24.608 12.1001 24.6605 12.1465L34.8342 21.1462C34.8868 21.1926 34.9285 21.2478 34.9569 21.3085C34.9854 21.3692 35 21.4342 35 21.4999C35 21.5656 34.9854 21.6307 34.9569 21.6914C34.9285 21.7521 34.8868 21.8072 34.8342 21.8537L24.6605 30.8534C24.608 30.8998 24.5457 30.9367 24.477 30.9619C24.4084 30.987 24.3349 31 24.2606 31C24.1863 31 24.1128 30.987 24.0442 30.9619C23.9756 30.9367 23.9132 30.8998 23.8607 30.8534Z" fill="currentColor"/>
</svg>

<svg id="download" viewBox="0 0 24 24" fill="none" xmlns="http://www.w3.org/2000/svg">
  <path d="M19.5 18V21H4.5V18H3V21C3 21.3978 3.15804 21.7794 3.43934 22.0607C3.72064 22.342 4.10218 22.5 4.5 22.5H19.5C19.8978 22.5 20.2794 22.342 20.5607 22.0607C20.842 21.7794 21 21.3978 21 21V18H19.5ZM19.5 10.5L18.4425 9.4425L12.75 15.1275V1.5H11.25V15.1275L5.5575 9.4425L4.5 10.5L12 18L19.5 10.5Z" fill="currentColor"/>
</svg>

<svg id="burger" viewBox="0 0 42 42" fill="none" xmlns="http://www.w3.org/2000/svg">
  <path d="M5.25 31.5H36.75V28.875H5.25V31.5ZM5.25 22.3125H36.75V19.6875H5.25V22.3125ZM5.25 10.5V13.125H36.75V10.5H5.25Z" fill="currentColor" stroke="white" stroke-width="0.8"/>
</svg>

<svg id="home" viewBox="0 0 20 22" fill="none" xmlns="http://www.w3.org/2000/svg">
  <path d="M2.35 19.5556V19.7056H2.5H6.25H6.4V19.5556V12.3722H13.6V19.5556V19.7056H13.75H17.5H17.65V19.5556V8.55556V8.47954L17.5887 8.43459L10.0887 2.93459L10 2.86954L9.9113 2.93459L2.4113 8.43459L2.35 8.47954V8.55556V19.5556ZM19.85 7.40934V21.85H11.4V14.6667V14.5167H11.25H8.75H8.6V14.6667V21.85H0.15V7.40934L10 0.18601L19.85 7.40934Z" fill="currentColor" stroke="white" stroke-width="0.3"/>
</svg>

<svg id="catalog" viewBox="0 0 29 28" fill="none" xmlns="http://www.w3.org/2000/svg">
  <path fill-rule="evenodd" clip-rule="evenodd" d="M19.4167 18.6666H24.0833V23.3333H19.4167V18.6666ZM12.4167 18.6666H17.0833V23.3333H12.4167V18.6666ZM5.41666 18.6666H10.0833V23.3333H5.41666V18.6666ZM19.4167 11.6666H24.0833V16.3333H19.4167V11.6666ZM12.4167 11.6666H17.0833V16.3333H12.4167V11.6666ZM5.41666 11.6666H10.0833V16.3333H5.41666V11.6666ZM19.4167 4.66663H24.0833V9.33329H19.4167V4.66663ZM12.4167 4.66663H17.0833V9.33329H12.4167V4.66663ZM5.41666 4.66663H10.0833V9.33329H5.41666V4.66663Z" fill="currentColor"/>
</svg>

<svg id="phone" viewBox="0 0 29 28" fill="none" xmlns="http://www.w3.org/2000/svg">
  <path d="M24.4509 21.2379L25.068 21.8586L24.4497 21.2379H24.4509ZM9.74387 18.7226L10.3599 18.1019L9.7427 18.7226H9.74387ZM4.9302 6.36522L4.3142 5.74572L4.93137 6.36638L4.9302 6.36522ZM18.8579 17.7472L19.391 17.2187L18.1555 15.9774L17.6259 16.5059L18.8579 17.7472ZM21.1749 16.9971L23.4044 18.2092L24.2385 16.6715L22.0102 15.4605L21.1749 16.9971ZM23.8325 20.6172L22.1759 22.2657L23.409 23.5059L25.0657 21.8586L23.8325 20.6172ZM21.1655 22.7954C19.4739 22.9541 15.0989 22.8129 10.3599 18.1019L9.12554 19.3421C14.2962 24.4835 19.2184 24.7355 21.3289 24.5384L21.1644 22.7954H21.1655ZM10.3599 18.1019C5.8437 13.6102 5.0947 9.83372 5.00137 8.19455L3.2537 8.29372C3.37037 10.3564 4.29787 14.5424 9.12554 19.3421L10.3599 18.1019ZM11.964 10.8919L12.2989 10.5582L11.0669 9.31805L10.732 9.65055L11.9652 10.8907L11.964 10.8919ZM12.5649 6.31738L11.0949 4.35272L9.6937 5.40272L11.1637 7.36622L12.5649 6.31738ZM6.14704 3.92455L4.31537 5.74455L5.5497 6.98588L7.3802 5.16588L6.14704 3.92455ZM11.348 10.2712C10.7297 9.65055 10.7297 9.65055 10.7297 9.65288H10.7274L10.7239 9.65755C10.6688 9.71377 10.6192 9.7751 10.5757 9.84072C10.5127 9.93405 10.4439 10.0566 10.3855 10.2117C10.2435 10.6123 10.2081 11.0429 10.2829 11.4612C10.4392 12.4704 11.1345 13.8039 12.9149 15.5749L14.1492 14.3336C12.482 12.6769 12.0854 11.6689 12.0119 11.1929C11.9769 10.9665 12.013 10.8545 12.0235 10.8289C12.0294 10.8126 12.0317 10.8114 12.0235 10.8219C12.0132 10.8381 12.0015 10.8533 11.9885 10.8674L11.9769 10.879C11.9731 10.8827 11.9692 10.8862 11.9652 10.8895L11.3469 10.2712H11.348ZM12.9149 15.5749C14.6964 17.3459 16.0369 18.0365 17.0472 18.1905C17.564 18.2699 17.9805 18.2069 18.2967 18.089C18.4735 18.0236 18.6389 17.9307 18.7867 17.8137C18.8068 17.7969 18.8262 17.7794 18.845 17.7612L18.8532 17.7542L18.8567 17.7507L18.8579 17.7484C18.8579 17.7484 18.859 17.7472 18.2419 17.1265C17.6235 16.5059 17.627 16.5047 17.627 16.5047L17.6294 16.5024L17.6317 16.5L17.6387 16.4942L17.6504 16.4825C17.6644 16.47 17.6792 16.4583 17.6947 16.4476C17.7064 16.4394 17.7029 16.4429 17.6865 16.4499C17.6574 16.4604 17.543 16.4965 17.3132 16.4615C16.8302 16.3869 15.8152 15.9902 14.1492 14.3336L12.9149 15.5749ZM11.0949 4.35155C9.90487 2.76488 7.56687 2.51288 6.14704 3.92455L7.3802 5.16588C8.00087 4.54872 9.1022 4.61288 9.6937 5.40272L11.0937 4.35155H11.0949ZM5.00254 8.19572C4.9792 7.79205 5.1647 7.36972 5.5497 6.98705L4.3142 5.74572C3.6877 6.36872 3.1942 7.25072 3.2537 8.29372L5.00254 8.19572ZM22.1759 22.2657C21.8562 22.5854 21.5109 22.765 21.1667 22.7965L21.3289 24.5384C22.1864 24.4579 22.8875 24.0262 23.4102 23.507L22.1759 22.2657ZM12.2989 10.5582C13.448 9.41605 13.5332 7.61122 12.566 6.31855L11.1649 7.36738C11.635 7.99622 11.565 8.82105 11.0657 9.31922L12.2989 10.5582ZM23.4055 18.2104C24.3587 18.7284 24.5069 19.9487 23.8337 20.6184L25.068 21.8586C26.6314 20.3034 26.1495 17.7099 24.2397 16.6727L23.4055 18.2104ZM19.391 17.2199C19.839 16.7742 20.56 16.6645 21.176 16.9982L22.0114 15.4617C20.7467 14.7734 19.1787 14.9635 18.1567 15.9785L19.391 17.2199Z" fill="currentColor"/>
</svg>

<svg id="arr-bold-r" viewBox="0 0 22 22" fill="none" xmlns="http://www.w3.org/2000/svg">
  <path d="M12.4227 17.1929C12.3907 17.1609 12.3653 17.123 12.3481 17.0813C12.3308 17.0396 12.3218 16.9948 12.3218 16.9497C12.3218 16.9045 12.3308 16.8597 12.3481 16.818C12.3653 16.7763 12.3907 16.7384 12.4227 16.7065L18.0232 11.1059H3.72837C3.6372 11.1059 3.54977 11.0697 3.4853 11.0052C3.42084 10.9408 3.38462 10.8533 3.38462 10.7622C3.38462 10.671 3.42084 10.5836 3.4853 10.5191C3.54977 10.4546 3.6372 10.4184 3.72837 10.4184H18.0232L12.4227 4.81786C12.3907 4.78592 12.3654 4.748 12.3481 4.70627C12.3308 4.66455 12.3219 4.61982 12.3219 4.57465C12.3219 4.52949 12.3308 4.48476 12.3481 4.44303C12.3654 4.4013 12.3907 4.36339 12.4227 4.33145C12.4546 4.29951 12.4925 4.27418 12.5342 4.25689C12.576 4.23961 12.6207 4.23071 12.6659 4.23071C12.711 4.23071 12.7558 4.23961 12.7975 4.25689C12.8392 4.27418 12.8771 4.29951 12.9091 4.33145L19.0966 10.519C19.1285 10.5509 19.1539 10.5888 19.1712 10.6305C19.1885 10.6722 19.1974 10.717 19.1974 10.7622C19.1974 10.8073 19.1885 10.8521 19.1712 10.8938C19.1539 10.9355 19.1285 10.9734 19.0966 11.0054L12.9091 17.1929C12.8771 17.2248 12.8392 17.2502 12.7975 17.2675C12.7558 17.2848 12.711 17.2937 12.6659 17.2937C12.6207 17.2937 12.576 17.2848 12.5342 17.2675C12.4925 17.2502 12.4546 17.2248 12.4227 17.1929Z" fill="#12406E" stroke="#12406E"/>
</svg>

<svg id="cross-bold" viewBox="0 0 24 24" fill="none" xmlns="http://www.w3.org/2000/svg">
  <g clip-path="url(#clip0_363_700)">
    <path d="M21.8233 23.6458L12.1846 13.9981L12.0077 13.8211L11.8309 13.9981L2.1915 23.6464L0.353806 21.8099L10.0081 12.177L10.1855 12L10.0081 11.823L0.353806 2.19009L2.1915 0.353579L11.8309 10.0019L12.0076 10.1788L12.1844 10.002L21.8238 0.368864L23.6463 2.19023L14.0072 11.8232L13.8303 12L14.0072 12.1768L23.647 21.8104L21.8233 23.6458Z" fill="currentColor" stroke="white" stroke-width="0.5"/>
  </g>
  <defs>
    <clipPath id="clip0_363_700">
      <rect width="24" height="24" fill="white"/>
    </clipPath>
  </defs>
</svg>

<svg id="arr-d2" viewBox="0 0 13 15" fill="none" xmlns="http://www.w3.org/2000/svg">
  <path d="M0.933061 8.16395C0.959182 8.1378 0.9902 8.11706 1.02434 8.10291C1.05849 8.08875 1.09509 8.08147 1.13205 8.08147C1.16901 8.08147 1.2056 8.08875 1.23975 8.10291C1.27389 8.11706 1.30491 8.1378 1.33103 8.16395L5.9133 12.7462L5.9133 1.05044C5.9133 0.975847 5.94293 0.90431 5.99567 0.851565C6.04842 0.79882 6.11995 0.76919 6.19455 0.76919C6.26914 0.76919 6.34067 0.79882 6.39342 0.851565C6.44616 0.90431 6.4758 0.975847 6.4758 1.05044L6.4758 12.7462L11.0581 8.16395C11.0842 8.13782 11.1152 8.1171 11.1494 8.10295C11.1835 8.08881 11.2201 8.08153 11.257 8.08153C11.294 8.08153 11.3306 8.08881 11.3647 8.10295C11.3989 8.1171 11.4299 8.13782 11.456 8.16395C11.4822 8.19009 11.5029 8.22111 11.517 8.25525C11.5312 8.28939 11.5385 8.32598 11.5385 8.36294C11.5385 8.39989 11.5312 8.43649 11.517 8.47063C11.5029 8.50477 11.4822 8.53579 11.456 8.56192L6.39353 13.6244C6.36741 13.6506 6.33639 13.6713 6.30225 13.6855C6.26811 13.6996 6.23151 13.7069 6.19455 13.7069C6.15758 13.7069 6.12099 13.6996 6.08684 13.6855C6.0527 13.6713 6.02168 13.6506 5.99556 13.6244L0.933061 8.56192C0.906912 8.5358 0.886167 8.50478 0.872013 8.47064C0.85786 8.4365 0.850574 8.3999 0.850574 8.36294C0.850574 8.32598 0.85786 8.28938 0.872013 8.25524C0.886167 8.22109 0.906912 8.19007 0.933061 8.16395Z" fill="currentColor" stroke="currentColor"/>
</svg>

<svg id="arr-bold-l" viewBox="0 0 42 42" fill="none" xmlns="http://www.w3.org/2000/svg">
  <path d="M18.284 9.17718C18.345 9.23813 18.3934 9.31051 18.4265 9.39017C18.4595 9.46984 18.4765 9.55524 18.4765 9.64148C18.4765 9.72772 18.4595 9.81312 18.4265 9.89279C18.3934 9.97245 18.345 10.0448 18.284 10.1058L7.59207 20.7977H34.8822C35.0563 20.7977 35.2232 20.8669 35.3463 20.9899C35.4693 21.113 35.5385 21.2799 35.5385 21.454C35.5385 21.628 35.4693 21.7949 35.3463 21.918C35.2232 22.0411 35.0563 22.1102 34.8822 22.1102H7.59207L18.284 32.8022C18.345 32.8632 18.3934 32.9355 18.4264 33.0152C18.4594 33.0949 18.4763 33.1803 18.4763 33.2665C18.4763 33.3527 18.4594 33.4381 18.4264 33.5178C18.3934 33.5974 18.345 33.6698 18.284 33.7308C18.2231 33.7918 18.1507 33.8401 18.071 33.8731C17.9913 33.9061 17.906 33.9231 17.8197 33.9231C17.7335 33.9231 17.6481 33.9061 17.5685 33.8731C17.4888 33.8401 17.4164 33.7918 17.3554 33.7308L5.54293 21.9183C5.48192 21.8573 5.43351 21.785 5.40049 21.7053C5.36746 21.6256 5.35046 21.5402 5.35046 21.454C5.35046 21.3677 5.36746 21.2823 5.40049 21.2027C5.43351 21.123 5.48192 21.0506 5.54293 20.9897L17.3554 9.17718C17.4164 9.11617 17.4888 9.06776 17.5684 9.03474C17.6481 9.00171 17.7335 8.98471 17.8197 8.98471C17.906 8.98471 17.9914 9.00171 18.071 9.03474C18.1507 9.06776 18.2231 9.11617 18.284 9.17718Z" fill="currentColor" stroke="currentColor"/>
</svg>

<svg id="delete" viewBox="0 0 16 16" fill="none" xmlns="http://www.w3.org/2000/svg">
  <path d="M12 12.6667C12 13.1971 11.7893 13.7058 11.4142 14.0809C11.0391 14.456 10.5304 14.6667 10 14.6667H5.33334C4.80291 14.6667 4.2942 14.456 3.91912 14.0809C3.54405 13.7058 3.33334 13.1971 3.33334 12.6667V4.66667H2.66667V2.66667H5.66667L6.33334 2H9.00001L9.66667 2.66667H12.6667V4.66667H12V12.6667ZM4.00001 4.66667V12.6667C4.00001 13.0203 4.14048 13.3594 4.39053 13.6095C4.64058 13.8595 4.97972 14 5.33334 14H10C10.3536 14 10.6928 13.8595 10.9428 13.6095C11.1929 13.3594 11.3333 13.0203 11.3333 12.6667V4.66667H4.00001ZM12 4V3.33333H9.33334L8.66667 2.66667H6.66667L6.00001 3.33333H3.33334V4H12ZM5.33334 6H6.00001V12.6667H5.33334V6ZM9.33334 6H10V12.6667H9.33334V6Z" fill="currentColor"/>
</svg>

<svg id="basket-arr" viewBox="0 0 29 28" fill="none" xmlns="http://www.w3.org/2000/svg">
  <path d="M15.9405 22.1845C15.8998 22.1439 15.8675 22.0956 15.8455 22.0425C15.8235 21.9894 15.8122 21.9325 15.8122 21.875C15.8122 21.8175 15.8235 21.7606 15.8455 21.7075C15.8675 21.6544 15.8998 21.6061 15.9405 21.5655L23.0685 14.4375L4.87502 14.4375C4.75899 14.4375 4.64771 14.3914 4.56566 14.3094C4.48362 14.2273 4.43752 14.116 4.43752 14C4.43752 13.884 4.48362 13.7727 4.56566 13.6906C4.64771 13.6086 4.75899 13.5625 4.87502 13.5625H23.0685L15.9405 6.43453C15.8998 6.39388 15.8676 6.34563 15.8456 6.29252C15.8236 6.23941 15.8123 6.18248 15.8123 6.125C15.8123 6.06751 15.8236 6.01059 15.8456 5.95748C15.8676 5.90437 15.8998 5.85612 15.9405 5.81547C15.9811 5.77482 16.0294 5.74258 16.0825 5.72058C16.1356 5.69858 16.1925 5.68726 16.25 5.68726C16.3075 5.68726 16.3644 5.69858 16.4175 5.72058C16.4706 5.74258 16.5189 5.77482 16.5596 5.81547L24.4346 13.6905C24.4752 13.7311 24.5075 13.7794 24.5295 13.8325C24.5515 13.8856 24.5629 13.9425 24.5629 14C24.5629 14.0575 24.5515 14.1144 24.5295 14.1675C24.5075 14.2206 24.4752 14.2689 24.4346 14.3095L16.5596 22.1845C16.5189 22.2252 16.4707 22.2575 16.4176 22.2795C16.3644 22.3015 16.3075 22.3128 16.25 22.3128C16.1925 22.3128 16.1356 22.3015 16.0825 22.2795C16.0294 22.2575 15.9811 22.2252 15.9405 22.1845Z" fill="currentColor"/>
</svg>


</svg>